<svg width="1432" height="922" viewBox="0 0 1432 922" fill="none" xmlns="http://www.w3.org/2000/svg">
<mask id="mask0_1054_41666" style="mask-type:alpha" maskUnits="userSpaceOnUse" x="0" y="0" width="1432" height="922">
<ellipse cx="716" cy="461" rx="716" ry="461" fill="url(#paint0_linear_1054_41666)"/>
</mask>
<g mask="url(#mask0_1054_41666)">
<ellipse cx="716" cy="461" rx="716" ry="461" fill="url(#paint1_linear_1054_41666)"/>
<path d="M720.285 1967.92C1259.47 1967.92 1696.57 1519.55 1696.57 966.461C1696.57 413.369 1259.47 -35 720.285 -35" stroke="white" stroke-opacity="0.5" stroke-width="3.05199"/>
<path d="M721.687 1967.92C802.796 1967.92 868.549 1519.55 868.549 966.461C868.549 413.369 802.796 -35 721.687 -35" stroke="white" stroke-opacity="0.5" stroke-width="3.05199"/>
<path d="M720.311 1967.92C1254.06 1967.92 1686.76 1519.55 1686.76 966.461C1686.76 413.369 1254.06 -35 720.311 -35" stroke="white" stroke-opacity="0.5" stroke-width="3.05199"/>
<path d="M720.318 1967.92C1247 1967.92 1673.96 1519.55 1673.96 966.461C1673.96 413.369 1247 -35 720.318 -35" stroke="white" stroke-opacity="0.5" stroke-width="3.05199"/>
<path d="M720.349 1967.92C1238.32 1967.92 1658.22 1519.55 1658.22 966.461C1658.22 413.369 1238.32 -35 720.349 -35" stroke="white" stroke-opacity="0.5" stroke-width="3.05199"/>
<path d="M720.383 1967.92C1228.01 1967.92 1639.52 1519.55 1639.52 966.461C1639.52 413.369 1228.01 -35 720.383 -35" stroke="white" stroke-opacity="0.5" stroke-width="3.05199"/>
<path d="M720.417 1967.92C1216.06 1967.92 1617.85 1519.55 1617.85 966.461C1617.85 413.369 1216.06 -35 720.417 -35" stroke="white" stroke-opacity="0.5" stroke-width="3.05199"/>
<path d="M720.46 1967.92C1202.48 1967.92 1593.23 1519.55 1593.23 966.461C1593.23 413.369 1202.48 -35 720.46 -35" stroke="white" stroke-opacity="0.5" stroke-width="3.05199"/>
<path d="M720.502 1967.92C1187.26 1967.92 1565.64 1519.55 1565.64 966.461C1565.64 413.369 1187.26 -35 720.502 -35" stroke="white" stroke-opacity="0.5" stroke-width="3.05199"/>
<path d="M720.558 1967.92C1170.41 1967.92 1535.1 1519.55 1535.1 966.461C1535.1 413.369 1170.41 -35 720.558 -35" stroke="white" stroke-opacity="0.5" stroke-width="3.05199"/>
<path d="M720.613 1967.92C1151.93 1967.92 1501.59 1519.55 1501.59 966.461C1501.59 413.369 1151.93 -35 720.613 -35" stroke="white" stroke-opacity="0.5" stroke-width="3.05199"/>
<path d="M720.677 1967.92C1131.82 1967.92 1465.12 1519.55 1465.12 966.461C1465.12 413.369 1131.82 -35 720.677 -35" stroke="white" stroke-opacity="0.5" stroke-width="3.05199"/>
<path d="M720.742 1967.92C1110.07 1967.92 1425.69 1519.55 1425.69 966.461C1425.69 413.369 1110.07 -35 720.742 -35" stroke="white" stroke-opacity="0.5" stroke-width="3.05199"/>
<path d="M720.807 1967.92C1086.69 1967.92 1383.29 1519.55 1383.29 966.461C1383.29 413.369 1086.69 -35 720.807 -35" stroke="white" stroke-opacity="0.5" stroke-width="3.05199"/>
<path d="M720.887 1967.92C1061.68 1967.92 1337.94 1519.55 1337.94 966.461C1337.94 413.369 1061.68 -35 720.887 -35" stroke="white" stroke-opacity="0.5" stroke-width="3.05199"/>
<path d="M720.973 1967.92C1035.04 1967.92 1289.64 1519.55 1289.64 966.461C1289.64 413.369 1035.04 -35 720.973 -35" stroke="white" stroke-opacity="0.5" stroke-width="3.05199"/>
<path d="M721.062 1967.92C1006.76 1967.92 1238.37 1519.55 1238.37 966.461C1238.37 413.369 1006.76 -35 721.062 -35" stroke="white" stroke-opacity="0.5" stroke-width="3.05199"/>
<path d="M721.152 1967.92C976.848 1967.92 1184.13 1519.55 1184.13 966.461C1184.13 413.369 976.848 -35 721.152 -35" stroke="white" stroke-opacity="0.5" stroke-width="3.05199"/>
<path d="M721.246 1967.92C945.3 1967.92 1126.93 1519.55 1126.93 966.461C1126.93 413.369 945.3 -35 721.246 -35" stroke="white" stroke-opacity="0.5" stroke-width="3.05199"/>
<path d="M721.345 1967.92C912.12 1967.92 1066.77 1519.55 1066.77 966.461C1066.77 413.369 912.12 -35 721.345 -35" stroke="white" stroke-opacity="0.5" stroke-width="3.05199"/>
<path d="M721.455 1967.92C877.313 1967.92 1003.66 1519.55 1003.66 966.461C1003.66 413.369 877.313 -35 721.455 -35" stroke="white" stroke-opacity="0.5" stroke-width="3.05199"/>
<path d="M721.566 1967.92C840.869 1967.92 937.583 1519.55 937.583 966.461C937.583 413.369 840.869 -35 721.566 -35" stroke="white" stroke-opacity="0.5" stroke-width="3.05199"/>
<path d="M720.285 1967.92C181.098 1967.92 -256 1519.55 -256 966.461C-256 413.369 181.098 -35 720.285 -35" stroke="white" stroke-opacity="0.5" stroke-width="3.05199"/>
<path d="M718.887 1967.92C637.777 1967.92 572.024 1519.55 572.024 966.461C572.024 413.369 637.777 -35 718.887 -35" stroke="white" stroke-opacity="0.5" stroke-width="3.05199"/>
<path d="M720.263 1967.92C186.509 1967.92 -246.184 1519.55 -246.184 966.461C-246.184 413.369 186.509 -35 720.263 -35" stroke="white" stroke-opacity="0.5" stroke-width="3.05199"/>
<path d="M720.255 1967.92C193.572 1967.92 -233.388 1519.55 -233.388 966.461C-233.388 413.369 193.572 -35 720.255 -35" stroke="white" stroke-opacity="0.5" stroke-width="3.05199"/>
<path d="M720.221 1967.92C202.247 1967.92 -217.653 1519.55 -217.653 966.461C-217.653 413.369 202.247 -35 720.221 -35" stroke="white" stroke-opacity="0.5" stroke-width="3.05199"/>
<path d="M720.19 1967.92C212.564 1967.92 -198.948 1519.55 -198.948 966.461C-198.948 413.369 212.564 -35 720.19 -35" stroke="white" stroke-opacity="0.5" stroke-width="3.05199"/>
<path d="M720.156 1967.92C224.516 1967.92 -177.281 1519.55 -177.281 966.461C-177.281 413.369 224.516 -35 720.156 -35" stroke="white" stroke-opacity="0.5" stroke-width="3.05199"/>
<path d="M720.109 1967.92C238.092 1967.92 -152.66 1519.55 -152.66 966.461C-152.66 413.369 238.092 -35 720.109 -35" stroke="white" stroke-opacity="0.5" stroke-width="3.05199"/>
<path d="M720.066 1967.92C253.31 1967.92 -125.07 1519.55 -125.07 966.461C-125.07 413.369 253.31 -35 720.066 -35" stroke="white" stroke-opacity="0.5" stroke-width="3.05199"/>
<path d="M720.011 1967.92C270.154 1967.92 -94.5272 1519.55 -94.5272 966.461C-94.5272 413.369 270.154 -35 720.011 -35" stroke="white" stroke-opacity="0.5" stroke-width="3.05199"/>
<path d="M719.955 1967.92C288.635 1967.92 -61.0182 1519.55 -61.0182 966.461C-61.0182 413.369 288.635 -35 719.955 -35" stroke="white" stroke-opacity="0.5" stroke-width="3.05199"/>
<path d="M719.892 1967.92C308.747 1967.92 -24.5512 1519.55 -24.5512 966.461C-24.5512 413.369 308.747 -35 719.892 -35" stroke="white" stroke-opacity="0.5" stroke-width="3.05199"/>
<path d="M719.827 1967.92C330.496 1967.92 14.8806 1519.55 14.8806 966.461C14.8806 413.369 330.496 -35 719.827 -35" stroke="white" stroke-opacity="0.5" stroke-width="3.05199"/>
<path d="M719.764 1967.92C353.884 1967.92 57.2793 1519.55 57.2793 966.461C57.2793 413.369 353.884 -35 719.764 -35" stroke="white" stroke-opacity="0.5" stroke-width="3.05199"/>
<path d="M719.686 1967.92C378.895 1967.92 102.629 1519.55 102.629 966.461C102.629 413.369 378.895 -35 719.686 -35" stroke="white" stroke-opacity="0.5" stroke-width="3.05199"/>
<path d="M719.597 1967.92C405.533 1967.92 150.934 1519.55 150.934 966.461C150.934 413.369 405.533 -35 719.597 -35" stroke="white" stroke-opacity="0.5" stroke-width="3.05199"/>
<path d="M719.511 1967.92C433.812 1967.92 202.208 1519.55 202.208 966.461C202.208 413.369 433.812 -35 719.511 -35" stroke="white" stroke-opacity="0.5" stroke-width="3.05199"/>
<path d="M719.422 1967.92C463.727 1967.92 256.444 1519.55 256.444 966.461C256.444 413.369 463.727 -35 719.422 -35" stroke="white" stroke-opacity="0.5" stroke-width="3.05199"/>
<path d="M719.323 1967.92C495.269 1967.92 313.637 1519.55 313.637 966.461C313.637 413.369 495.269 -35 719.323 -35" stroke="white" stroke-opacity="0.5" stroke-width="3.05199"/>
<path d="M719.229 1967.92C528.453 1967.92 373.8 1519.55 373.8 966.461C373.8 413.369 528.453 -35 719.229 -35" stroke="white" stroke-opacity="0.5" stroke-width="3.05199"/>
<path d="M719.117 1967.92C563.259 1967.92 436.911 1519.55 436.911 966.461C436.911 413.369 563.259 -35 719.117 -35" stroke="white" stroke-opacity="0.5" stroke-width="3.05199"/>
<path d="M719.006 1967.92C599.703 1967.92 502.989 1519.55 502.989 966.461C502.989 413.369 599.703 -35 719.006 -35" stroke="white" stroke-opacity="0.5" stroke-width="3.05199"/>
<line x1="721.812" y1="-35" x2="721.812" y2="1967.92" stroke="white" stroke-opacity="0.5" stroke-width="3.05199"/>
</g>
<defs>
<linearGradient id="paint0_linear_1054_41666" x1="715.463" y1="3.8273e-07" x2="706.617" y2="609.032" gradientUnits="userSpaceOnUse">
<stop stop-color="#B3DAF7"/>
<stop offset="1" stop-color="white"/>
</linearGradient>
<linearGradient id="paint1_linear_1054_41666" x1="715.463" y1="3.8273e-07" x2="706.617" y2="609.032" gradientUnits="userSpaceOnUse">
<stop stop-color="#B3DAF7"/>
<stop offset="1" stop-color="white"/>
</linearGradient>
</defs>
</svg>
