<svg width="114" height="289" viewBox="0 0 114 289" fill="none" xmlns="http://www.w3.org/2000/svg">
<g clip-path="url(#clip0_1165_45458)">
<path d="M13.1526 125.233C10.0073 130.304 9.94452 136.703 12.9899 141.834L85.8879 264.658C88.7703 269.515 93.9995 272.492 99.647 272.492L763.714 272.493C769.309 272.493 774.497 269.571 777.397 264.787L847.08 149.83C850.068 144.901 850.174 138.746 847.357 133.717L777.308 8.66929C774.478 3.61745 769.14 0.488847 763.349 0.488842L99.4405 0.488285C93.9047 0.48828 88.7623 3.34976 85.8441 8.05388L13.1526 125.233Z" fill="url(#paint0_linear_1165_45458)"/>
<path d="M110.944 0.485352C105.321 0.485357 100.11 3.43679 97.2198 8.25977L26.6915 125.934C23.7134 130.903 23.6541 137.094 26.5362 142.119L97.2686 265.449C99.1481 268.726 102.088 271.175 105.516 272.465H136.921V273.488H703.796C708.486 273.488 712.941 271.43 715.981 267.858L813.913 152.785C818.836 147.001 819.014 138.553 814.339 132.567L715.993 6.63672C712.961 2.75406 708.309 0.48437 703.383 0.484375L110.944 0.485352Z" fill="url(#paint1_linear_1165_45458)"/>
</g>
<defs>
<linearGradient id="paint0_linear_1165_45458" x1="429.975" y1="0.488263" x2="429.975" y2="272.493" gradientUnits="userSpaceOnUse">
<stop stop-color="#FF8E38"/>
<stop offset="1" stop-color="white"/>
</linearGradient>
<linearGradient id="paint1_linear_1165_45458" x1="450.123" y1="-18.5117" x2="450.123" y2="273.488" gradientUnits="userSpaceOnUse">
<stop stop-color="#EEF7FE"/>
<stop offset="1" stop-color="white"/>
</linearGradient>
<clipPath id="clip0_1165_45458">
<rect width="114" height="289" fill="white" transform="matrix(-1 0 0 1 114 0)"/>
</clipPath>
</defs>
</svg>
