<svg width="114" height="289" viewBox="0 0 114 289" fill="none" xmlns="http://www.w3.org/2000/svg">
<g clip-path="url(#clip0_1157_45467)">
<path d="M100.847 125.233C103.993 130.304 104.055 136.703 101.01 141.834L28.1121 264.658C25.2297 269.515 20.0005 272.492 14.353 272.492L-649.714 272.493C-655.309 272.493 -660.497 269.571 -663.397 264.787L-733.08 149.83C-736.068 144.901 -736.174 138.746 -733.357 133.717L-663.308 8.66929C-660.478 3.61745 -655.14 0.488847 -649.349 0.488842L14.5595 0.488285C20.0953 0.48828 25.2377 3.34976 28.1559 8.05388L100.847 125.233Z" fill="url(#paint0_linear_1157_45467)"/>
<path d="M3.0556 0.485352C8.67851 0.485357 13.8895 3.43679 16.7802 8.25977L87.3085 125.934C90.2866 130.903 90.3459 137.094 87.4638 142.119L16.7314 265.449C14.8519 268.726 11.9115 271.175 8.48431 272.465H-22.921V273.488H-589.796C-594.486 273.488 -598.941 271.43 -601.981 267.858L-699.913 152.785C-704.836 147.001 -705.014 138.553 -700.339 132.567L-601.993 6.63672C-598.961 2.75406 -594.309 0.48437 -589.383 0.484375L3.0556 0.485352Z" fill="url(#paint1_linear_1157_45467)"/>
</g>
<defs>
<linearGradient id="paint0_linear_1157_45467" x1="-315.975" y1="0.488263" x2="-315.975" y2="272.493" gradientUnits="userSpaceOnUse">
<stop stop-color="#FF8E38"/>
<stop offset="1" stop-color="white"/>
</linearGradient>
<linearGradient id="paint1_linear_1157_45467" x1="-336.123" y1="-18.5117" x2="-336.123" y2="273.488" gradientUnits="userSpaceOnUse">
<stop stop-color="#EEF7FE"/>
<stop offset="1" stop-color="white"/>
</linearGradient>
<clipPath id="clip0_1157_45467">
<rect width="114" height="289" fill="white"/>
</clipPath>
</defs>
</svg>
