<svg width="350" height="132" viewBox="0 0 350 132" fill="none" xmlns="http://www.w3.org/2000/svg">
<path d="M223.309 0.605469C262.265 0.605469 293.846 32.1859 293.846 71.1423C293.846 78.2307 292.796 85.0731 290.848 91.5264C290.006 94.3165 292.322 97.2432 295.233 97.1091C296.148 97.067 297.067 97.0456 297.992 97.0456C319.598 97.0456 338.508 108.576 348.912 125.817C350.331 128.17 348.542 131.027 345.795 131.027H186.033C185.415 130.642 184.802 130.251 184.198 129.848C183.739 130.251 183.269 130.642 182.795 131.027H3.66897C0.925745 131.027 -0.850543 128.178 0.68458 125.904C7.60346 115.658 19.3204 108.919 32.615 108.919C38.197 108.919 43.4988 110.111 48.2859 112.25C50.3576 113.175 52.868 112.34 53.9256 110.332C61.9101 95.1769 77.8167 84.8446 96.1369 84.8446C98.1146 84.8446 100.064 84.9649 101.979 85.1988C104.076 85.4548 106.072 84.0921 106.6 82.0469C111.904 61.4977 130.563 46.3174 152.769 46.3174C153.293 46.3174 153.815 46.3263 154.334 46.3436C156.022 46.3997 157.589 45.4196 158.243 43.8625C168.909 18.4523 194.024 0.605469 223.309 0.605469Z" fill="url(#paint0_linear_851_38842)"/>
<defs>
<linearGradient id="paint0_linear_851_38842" x1="351.711" y1="65.8164" x2="-2.23047" y2="65.8164" gradientUnits="userSpaceOnUse">
<stop stop-color="#EEF7FE"/>
<stop offset="1" stop-color="#DDEDFB"/>
</linearGradient>
</defs>
</svg>
