<svg width="386" height="143" viewBox="0 0 386 143" fill="none" xmlns="http://www.w3.org/2000/svg">
<path d="M206.035 0.589844C158.895 0.58997 119.244 32.6305 107.657 76.1211C107.105 78.1941 104.981 79.4588 102.892 78.9717C96.6111 77.5073 90.0653 76.7324 83.3389 76.7324C44.454 76.7325 11.6138 102.606 1.09064 138.075C0.403789 140.39 2.18765 142.648 4.60251 142.648H378.73C380.285 142.648 381.688 141.689 382.183 140.214C384.491 133.334 385.742 125.969 385.742 118.312C385.742 80.3033 354.93 49.4915 316.922 49.4912C310.38 49.4912 304.052 50.4067 298.058 52.1123C296.325 52.6053 294.461 51.884 293.538 50.3369C275.776 20.547 243.238 0.589844 206.035 0.589844Z" fill="url(#paint0_linear_851_38843)"/>
<defs>
<linearGradient id="paint0_linear_851_38843" x1="0.942047" y1="71.6192" x2="385.742" y2="71.6192" gradientUnits="userSpaceOnUse">
<stop stop-color="#EEF7FE"/>
<stop offset="1" stop-color="#DDEDFB"/>
</linearGradient>
</defs>
</svg>
