<svg width="364" height="217" viewBox="0 0 364 217" fill="none" xmlns="http://www.w3.org/2000/svg">
<g clip-path="url(#clip0_34_1742)">
<path d="M0 107.788C0 48.3468 48.1869 0.160034 107.628 0.160034H363.448V215.417H107.628C48.1869 215.417 0 167.23 0 107.788Z" fill="white"/>
<g clip-path="url(#clip1_34_1742)">
<mask id="mask0_34_1742" style="mask-type:luminance" maskUnits="userSpaceOnUse" x="167" y="19" width="179" height="178">
<path d="M345.413 83.5713H227.306C227.306 83.5713 227.364 83.4988 227.393 83.4698C234.401 75.1605 244.906 69.8676 256.644 69.8676H344.47V19.4467H256.049C207.225 19.4467 167.628 59.0061 167.628 107.817V108.078C167.628 156.875 207.21 196.449 256.049 196.449H344.47V146.028H256.644C244.862 146.028 234.343 140.692 227.32 132.324H345.413V83.5858V83.5713Z" fill="white"/>
</mask>
<g mask="url(#mask0_34_1742)">
<path d="M345.398 19.4467H167.614V21.4189H345.398V19.4467Z" fill="#F55911"/>
<path d="M345.398 21.4189H167.614V23.3911H345.398V21.4189Z" fill="#F55911"/>
<path d="M345.398 23.3765H167.614V25.3487H345.398V23.3765Z" fill="#F55911"/>
<path d="M345.398 25.3487H167.614V27.3209H345.398V25.3487Z" fill="#F55911"/>
<path d="M345.398 27.3064H167.614V29.2786H345.398V27.3064Z" fill="#F55911"/>
<path d="M345.398 29.2786H167.614V31.2507H345.398V29.2786Z" fill="#F55911"/>
<path d="M345.398 31.2507H167.614V33.2229H345.398V31.2507Z" fill="#F55911"/>
<path d="M345.398 33.2084H167.614V35.1805H345.398V33.2084Z" fill="#F55911"/>
<path d="M345.398 35.1806H167.614V37.1527H345.398V35.1806Z" fill="#F55911"/>
<path d="M345.398 37.1382H167.614V39.1104H345.398V37.1382Z" fill="#F55911"/>
<path d="M345.398 39.1104H167.614V41.0826H345.398V39.1104Z" fill="#F55911"/>
<path d="M345.398 41.0826H167.614V43.0548H345.398V41.0826Z" fill="#F55911"/>
<path d="M345.398 43.0403H167.614V45.0124H345.398V43.0403Z" fill="#F55911"/>
<path d="M345.398 45.0124H167.614V46.9846H345.398V45.0124Z" fill="#F55911"/>
<path d="M345.398 46.9846H167.614V48.9568H345.398V46.9846Z" fill="#F55911"/>
<path d="M345.398 48.9423H167.614V50.9144H345.398V48.9423Z" fill="#F55911"/>
<path d="M345.398 50.9144H167.614V52.8866H345.398V50.9144Z" fill="#F55911"/>
<path d="M345.398 52.8721H167.614V54.8442H345.398V52.8721Z" fill="#F55911"/>
<path d="M345.398 54.8443H167.614V56.8164H345.398V54.8443Z" fill="#F55911"/>
<path d="M345.398 56.8164H167.614V58.7886H345.398V56.8164Z" fill="#F55911"/>
<path d="M345.398 58.7741H167.614V60.7463H345.398V58.7741Z" fill="#F55911"/>
<path d="M345.398 60.7463H167.614V62.7184H345.398V60.7463Z" fill="#F55911"/>
<path d="M345.398 62.7039H167.614V64.6761H345.398V62.7039Z" fill="#F55911"/>
<path d="M345.398 64.6761H167.614V66.6483H345.398V64.6761Z" fill="#F55911"/>
<path d="M345.398 66.6483H167.614V68.6205H345.398V66.6483Z" fill="#F55911"/>
<path d="M345.398 68.606H167.614V70.5781H345.398V68.606Z" fill="#F55911"/>
<path d="M345.398 70.5781H167.614V72.5503H345.398V70.5781Z" fill="#F55911"/>
<path d="M345.398 72.5358H167.614V74.508H345.398V72.5358Z" fill="#F55911"/>
<path d="M345.398 74.508H167.614V76.4801H345.398V74.508Z" fill="#F55911"/>
<path d="M345.398 76.4801H167.614V78.4523H345.398V76.4801Z" fill="#F55911"/>
<path d="M345.398 78.4378H167.614V80.41H345.398V78.4378Z" fill="#F55911"/>
<path d="M345.398 80.41H167.614V82.3821H345.398V80.41Z" fill="#F55911"/>
<path d="M345.398 82.3821H167.614V84.3543H345.398V82.3821Z" fill="#F55911"/>
<path d="M345.398 84.3398H167.614V86.312H345.398V84.3398Z" fill="#F55911"/>
<path d="M345.398 86.312H167.614V88.2842H345.398V86.312Z" fill="#F55911"/>
<path d="M345.398 88.2697H167.614V90.2418H345.398V88.2697Z" fill="#F55911"/>
<path d="M345.398 90.2418H167.614V92.214H345.398V90.2418Z" fill="#F55911"/>
<path d="M345.398 92.214H167.614V94.1862H345.398V92.214Z" fill="#F55911"/>
<path d="M345.398 94.1717H167.614V96.1438H345.398V94.1717Z" fill="#F55911"/>
<path d="M345.398 96.1438H167.614V98.116H345.398V96.1438Z" fill="#F55911"/>
<path d="M345.398 98.1015H167.614V100.074H345.398V98.1015Z" fill="#F55911"/>
<path d="M345.398 100.074H167.614V102.046H345.398V100.074Z" fill="#F55911"/>
<path d="M345.398 102.046H167.614V104.018H345.398V102.046Z" fill="#F55911"/>
<path d="M345.398 104.004H167.614V105.976H345.398V104.004Z" fill="#F55911"/>
<path d="M345.398 105.976H167.614V107.948H345.398V105.976Z" fill="#F55911"/>
<path d="M345.398 107.933H167.614V109.906H345.398V107.933Z" fill="#F55911"/>
<path d="M345.398 109.906H167.614V111.878H345.398V109.906Z" fill="#F55911"/>
<path d="M345.398 111.878H167.614V113.85H345.398V111.878Z" fill="#F55911"/>
<path d="M345.398 113.835H167.614V115.808H345.398V113.835Z" fill="#F55911"/>
<path d="M345.398 115.808H167.614V117.78H345.398V115.808Z" fill="#F55911"/>
<path d="M345.398 117.78H167.614V119.752H345.398V117.78Z" fill="#F55911"/>
<path d="M345.398 119.737H167.614V121.71H345.398V119.737Z" fill="#F55911"/>
<path d="M345.398 121.71H167.614V123.682H345.398V121.71Z" fill="#F55911"/>
<path d="M345.398 123.667H167.614V125.639H345.398V123.667Z" fill="#F55911"/>
<path d="M345.398 125.639H167.614V127.612H345.398V125.639Z" fill="#F55911"/>
<path d="M345.398 127.612H167.614V129.584H345.398V127.612Z" fill="#F55911"/>
<path d="M345.398 129.569H167.614V131.541H345.398V129.569Z" fill="#F55911"/>
<path d="M345.398 131.541H167.614V133.514H345.398V131.541Z" fill="#F55911"/>
<path d="M345.398 133.499H167.614V135.471H345.398V133.499Z" fill="#F55911"/>
<path d="M345.398 135.471H167.614V137.443H345.398V135.471Z" fill="#F55911"/>
<path d="M345.398 137.443H167.614V139.416H345.398V137.443Z" fill="#F55911"/>
<path d="M345.398 139.401H167.614V141.373H345.398V139.401Z" fill="#F55911"/>
<path d="M345.398 141.373H167.614V143.345H345.398V141.373Z" fill="#F55911"/>
<path d="M345.398 143.345H167.614V145.318H345.398V143.345Z" fill="#F55911"/>
<path d="M345.398 145.303H167.614V147.275H345.398V145.303Z" fill="#F55911"/>
<path d="M345.398 147.275H167.614V149.247H345.398V147.275Z" fill="#F55911"/>
<path d="M345.398 149.233H167.614V151.205H345.398V149.233Z" fill="#F55911"/>
<path d="M345.398 151.205H167.614V153.177H345.398V151.205Z" fill="#F55911"/>
<path d="M345.398 153.177H167.614V155.149H345.398V153.177Z" fill="#F55911"/>
<path d="M345.398 155.135H167.614V157.107H345.398V155.135Z" fill="#F55911"/>
<path d="M345.398 157.107H167.614V159.079H345.398V157.107Z" fill="#F55911"/>
<path d="M345.398 159.065H167.614V161.037H345.398V159.065Z" fill="#F55911"/>
<path d="M345.398 161.037H167.614V163.009H345.398V161.037Z" fill="#F55911"/>
<path d="M345.398 163.009H167.614V164.981H345.398V163.009Z" fill="#F55911"/>
<path d="M345.398 164.967H167.614V166.939H345.398V164.967Z" fill="#F55911"/>
<path d="M345.398 166.939H167.614V168.911H345.398V166.939Z" fill="#F55911"/>
<path d="M345.398 168.897H167.614V170.869H345.398V168.897Z" fill="#F55911"/>
<path d="M345.398 170.869H167.614V172.841H345.398V170.869Z" fill="#F55911"/>
<path d="M345.398 172.841H167.614V174.813H345.398V172.841Z" fill="#F55911"/>
<path d="M345.398 174.799H167.614V176.771H345.398V174.799Z" fill="#F55911"/>
<path d="M345.398 176.771H167.614V178.743H345.398V176.771Z" fill="#F55911"/>
<path d="M345.398 178.743H167.614V180.715H345.398V178.743Z" fill="#F55911"/>
<path d="M345.398 180.701H167.614V182.673H345.398V180.701Z" fill="#F55911"/>
<path d="M345.398 182.673H167.614V184.645H345.398V182.673Z" fill="#F55911"/>
<path d="M345.398 184.63H167.614V186.603H345.398V184.63Z" fill="#F55911"/>
<path d="M345.398 186.603H167.614V188.575H345.398V186.603Z" fill="#F55911"/>
<path d="M345.398 188.575H167.614V190.547H345.398V188.575Z" fill="#F55911"/>
<path d="M345.398 190.532H167.614V192.505H345.398V190.532Z" fill="#F55911"/>
<path d="M345.398 192.505H167.614V194.477H345.398V192.505Z" fill="#F55911"/>
<path d="M345.398 194.462H167.614V196.435H345.398V194.462Z" fill="#F55911"/>
</g>
<path d="M156.877 108.064V107.803C156.877 69.0265 179.279 35.4126 211.824 19.1422H109.169C60.3015 19.1422 20.676 58.7306 20.676 107.585C20.676 156.426 60.2869 196.029 109.169 196.029H210.417C178.641 179.497 156.877 146.289 156.877 108.078V108.064ZM147.837 69.476V107.585C147.837 128.931 130.527 146.231 109.169 146.231C87.8115 146.231 70.5016 128.931 70.5016 107.585C70.5016 86.2395 87.8115 68.9395 109.169 68.9395H147.837V69.476Z" fill="#0A3F6A"/>
<path d="M363.448 215.417H107.689C48.3166 215.417 0 167.142 0 107.788C0 48.4347 48.3166 0.160034 107.689 0.160034H363.448V215.417ZM107.689 4.06087C50.464 4.06087 3.90305 50.5954 3.90305 107.788C3.90305 164.981 50.464 211.516 107.689 211.516H359.531V4.06087H107.689Z" fill="#0A3F6A"/>
</g>
</g>
<defs>
<clipPath id="clip0_34_1742">
<rect width="364" height="216" fill="white" transform="translate(0 0.0800171)"/>
</clipPath>
<clipPath id="clip1_34_1742">
<rect width="363.448" height="215.257" fill="white" transform="translate(0 0.160034)"/>
</clipPath>
</defs>
</svg>
