<svg width="2657" height="96" viewBox="0 0 2657 96" fill="none" xmlns="http://www.w3.org/2000/svg">
<path d="M77.6504 0.398438C79.8235 0.44283 81.6832 0.803857 83.3408 1.41797V1.46387C85.6058 2.32472 87.4931 3.65799 89.2852 5.2959C89.3042 5.31319 89.3238 5.3303 89.3428 5.34766C89.5132 5.50424 89.6835 5.66326 89.8525 5.8252C91.1756 7.08576 92.4647 8.50545 93.8311 10.0186C95.2986 11.6485 96.866 13.387 98.6289 15.0527C103.216 19.3735 109.123 23.2046 118.047 23.334C118.193 23.336 118.341 23.3379 118.489 23.3379C118.498 23.3379 118.506 23.3369 118.515 23.3369L118.528 23.3213C121.869 23.3213 124.793 22.8061 127.386 21.9395C134.578 19.5158 139.213 14.3766 143.147 10.0186C147.912 4.74711 151.687 0.556822 159.434 0.398438H160.348C162.405 0.440456 164.18 0.768735 165.77 1.32422V1.25293C168.3 2.09823 170.358 3.51801 172.303 5.2959C172.322 5.31319 172.341 5.3303 172.36 5.34766C172.531 5.50424 172.701 5.66326 172.87 5.8252C174.193 7.08576 175.482 8.50545 176.849 10.0186C178.316 11.6485 179.884 13.387 181.646 15.0527C186.233 19.3735 192.14 23.2046 201.064 23.334C201.211 23.336 201.359 23.3379 201.507 23.3379C201.515 23.3379 201.524 23.3369 201.532 23.3369L201.546 23.3213C204.887 23.3213 207.811 22.8061 210.403 21.9395C217.595 19.5158 222.231 14.3766 226.165 10.0186C230.929 4.74711 234.704 0.556822 242.451 0.398438H243.365C245.422 0.440456 247.197 0.768735 248.787 1.32422V1.25293C251.318 2.09823 253.375 3.51801 255.32 5.2959C255.339 5.31319 255.359 5.3303 255.378 5.34766C255.548 5.50424 255.719 5.66326 255.888 5.8252C257.211 7.08576 258.5 8.50545 259.866 10.0186C261.334 11.6485 262.901 13.387 264.664 15.0527C269.251 19.3735 275.158 23.2046 284.082 23.334C284.229 23.336 284.376 23.3379 284.524 23.3379C284.533 23.3379 284.541 23.3369 284.55 23.3369L284.563 23.3213C287.904 23.3213 290.828 22.8061 293.421 21.9395C300.613 19.5158 305.249 14.3766 309.183 10.0186C313.947 4.74711 317.722 0.556822 325.469 0.398438H326.383C328.44 0.440456 330.215 0.768735 331.805 1.32422V1.25293C334.336 2.09823 336.393 3.51801 338.338 5.2959C338.357 5.31319 338.377 5.3303 338.396 5.34766C338.566 5.50424 338.736 5.66326 338.905 5.8252C340.228 7.08576 341.517 8.50545 342.884 10.0186C344.351 11.6485 345.919 13.387 347.682 15.0527C352.268 19.3735 358.176 23.2046 367.1 23.334C367.246 23.336 367.394 23.3379 367.542 23.3379C367.55 23.3379 367.559 23.3369 367.567 23.3369L367.581 23.3213C370.922 23.3213 373.846 22.8061 376.438 21.9395C383.63 19.5158 388.266 14.3766 392.2 10.0186C396.965 4.74711 400.74 0.556822 408.486 0.398438H409.4C411.457 0.440456 413.233 0.768735 414.822 1.32422V1.25293C417.353 2.09823 419.41 3.51801 421.355 5.2959C421.374 5.31319 421.394 5.3303 421.413 5.34766C421.584 5.50424 421.754 5.66326 421.923 5.8252C423.246 7.08576 424.535 8.50545 425.901 10.0186C427.369 11.6485 428.936 13.387 430.699 15.0527C435.286 19.3735 441.193 23.2046 450.117 23.334C450.264 23.336 450.411 23.3379 450.56 23.3379C450.568 23.3379 450.576 23.3369 450.585 23.3369L450.599 23.3213C453.94 23.3213 456.863 22.8061 459.456 21.9395C466.648 19.5158 471.284 14.3766 475.218 10.0186C479.982 4.74711 483.757 0.556822 491.504 0.398438H492.418C494.475 0.440456 496.25 0.768735 497.84 1.32422V1.25293C500.371 2.09823 502.428 3.51801 504.373 5.2959C504.392 5.31319 504.412 5.3303 504.431 5.34766C504.601 5.50424 504.771 5.66326 504.94 5.8252C506.263 7.08576 507.553 8.50545 508.919 10.0186C510.386 11.6485 511.954 13.387 513.717 15.0527C518.304 19.3735 524.211 23.2046 533.135 23.334C533.281 23.336 533.429 23.3379 533.577 23.3379C533.586 23.3379 533.594 23.3369 533.603 23.3369L533.616 23.3213C536.957 23.3213 539.881 22.8061 542.474 21.9395C549.665 19.5158 554.301 14.3766 558.235 10.0186C563 4.74711 566.775 0.556822 574.521 0.398438H575.436C577.492 0.440456 579.268 0.768735 580.857 1.32422V1.25293C583.388 2.09823 585.445 3.51801 587.391 5.2959C587.41 5.31319 587.429 5.3303 587.448 5.34766C587.619 5.50424 587.789 5.66326 587.958 5.8252C589.281 7.08576 590.57 8.50545 591.937 10.0186C593.404 11.6485 594.972 13.387 596.734 15.0527C601.321 19.3735 607.228 23.2046 616.152 23.334C616.299 23.336 616.446 23.3379 616.595 23.3379C616.603 23.3379 616.612 23.3369 616.62 23.3369L616.634 23.3213C619.975 23.3213 622.898 22.8061 625.491 21.9395C632.683 19.5158 637.319 14.3766 641.253 10.0186C646.017 4.74711 649.792 0.556822 657.539 0.398438H658.453C660.51 0.440456 662.285 0.768735 663.875 1.32422V1.25293C666.406 2.09823 668.463 3.51801 670.408 5.2959C670.427 5.31319 670.447 5.3303 670.466 5.34766C670.636 5.50424 670.807 5.66326 670.976 5.8252C672.299 7.08576 673.588 8.50545 674.954 10.0186C676.422 11.6485 677.989 13.387 679.752 15.0527C684.339 19.3735 690.246 23.2046 699.17 23.334C699.317 23.336 699.464 23.3379 699.612 23.3379C699.621 23.3379 699.629 23.3369 699.638 23.3369L699.651 23.3213C702.992 23.3213 705.916 22.8061 708.509 21.9395C715.701 19.5158 720.337 14.3766 724.271 10.0186C729.035 4.74711 732.81 0.556822 740.557 0.398438H741.471C743.528 0.440456 745.303 0.768735 746.893 1.32422V1.25293C749.423 2.09823 751.481 3.51801 753.426 5.2959C753.445 5.31319 753.464 5.3303 753.483 5.34766C753.654 5.50424 753.824 5.66326 753.993 5.8252C755.316 7.08576 756.605 8.50545 757.972 10.0186C759.439 11.6485 761.007 13.387 762.77 15.0527C767.356 19.3735 773.263 23.2046 782.188 23.334C782.334 23.336 782.482 23.3379 782.63 23.3379C782.638 23.3379 782.647 23.3369 782.655 23.3369L782.669 23.3213C786.01 23.3213 788.934 22.8061 791.526 21.9395C798.718 19.5158 803.354 14.3766 807.288 10.0186C812.053 4.74711 815.827 0.556822 823.574 0.398438H824.488C826.545 0.440456 828.32 0.768735 829.91 1.32422V1.25293C832.441 2.09823 834.498 3.51801 836.443 5.2959C836.462 5.31319 836.482 5.3303 836.501 5.34766C836.671 5.50424 836.842 5.66326 837.011 5.8252C838.334 7.08576 839.623 8.50545 840.989 10.0186C842.457 11.6485 844.024 13.387 845.787 15.0527C850.374 19.3735 856.281 23.2046 865.205 23.334C865.352 23.336 865.499 23.3379 865.647 23.3379C865.656 23.3379 865.664 23.3369 865.673 23.3369L865.687 23.3213C869.027 23.3213 871.951 22.8061 874.544 21.9395C881.736 19.5158 886.372 14.3766 890.306 10.0186C895.07 4.74711 898.845 0.556822 906.592 0.398438H907.506C909.563 0.440456 911.338 0.768735 912.928 1.32422V1.25293C915.459 2.09823 917.516 3.51801 919.461 5.2959C919.48 5.31319 919.5 5.3303 919.519 5.34766C919.689 5.50424 919.859 5.66326 920.028 5.8252C921.351 7.08576 922.64 8.50545 924.007 10.0186C925.474 11.6485 927.042 13.387 928.805 15.0527C933.391 19.3735 939.299 23.2046 948.223 23.334C948.369 23.336 948.517 23.3379 948.665 23.3379C948.674 23.3379 948.682 23.3369 948.69 23.3369L948.704 23.3213C952.045 23.3213 954.969 22.8061 957.562 21.9395C964.753 19.5158 969.389 14.3766 973.323 10.0186C978.088 4.74711 981.863 0.556822 989.609 0.398438H990.523C992.58 0.440456 994.356 0.768735 995.945 1.32422V1.25293C998.476 2.09823 1000.53 3.51801 1002.48 5.2959C1002.5 5.31319 1002.52 5.3303 1002.54 5.34766C1002.71 5.50424 1002.88 5.66326 1003.05 5.8252C1004.37 7.08576 1005.66 8.50545 1007.02 10.0186C1008.49 11.6485 1010.06 13.387 1011.82 15.0527C1016.41 19.3735 1022.32 23.2046 1031.24 23.334C1031.39 23.336 1031.53 23.3379 1031.68 23.3379C1031.69 23.3379 1031.7 23.3369 1031.71 23.3369L1031.72 23.3213C1035.06 23.3213 1037.99 22.8061 1040.58 21.9395C1047.77 19.5158 1052.41 14.3766 1056.34 10.0186C1061.11 4.74711 1064.88 0.556822 1072.63 0.398438H1073.54C1075.6 0.440456 1077.37 0.768735 1078.96 1.32422V1.25293C1081.49 2.09823 1083.55 3.51801 1085.5 5.2959C1085.52 5.31319 1085.53 5.3303 1085.55 5.34766C1085.72 5.50424 1085.89 5.66326 1086.06 5.8252C1087.39 7.08576 1088.68 8.50545 1090.04 10.0186C1091.51 11.6485 1093.08 13.387 1094.84 15.0527C1099.43 19.3735 1105.33 23.2046 1114.26 23.334C1114.4 23.336 1114.55 23.3379 1114.7 23.3379C1114.71 23.3379 1114.72 23.3369 1114.73 23.3369L1114.74 23.3213C1118.08 23.3213 1121 22.8061 1123.6 21.9395C1130.79 19.5158 1135.42 14.3766 1139.36 10.0186C1144.12 4.74711 1147.9 0.556822 1155.64 0.398438H1156.56C1158.62 0.440456 1160.39 0.768735 1161.98 1.32422V1.25293C1164.51 2.09823 1166.57 3.51801 1168.51 5.2959C1168.53 5.31319 1168.55 5.3303 1168.57 5.34766C1168.74 5.50424 1168.91 5.66326 1169.08 5.8252C1170.4 7.08576 1171.69 8.50545 1173.06 10.0186C1174.53 11.6485 1176.09 13.387 1177.86 15.0527C1182.44 19.3735 1188.35 23.2046 1197.28 23.334C1197.42 23.336 1197.57 23.3379 1197.72 23.3379C1197.73 23.3379 1197.73 23.3369 1197.74 23.3369L1197.76 23.3213C1201.1 23.3213 1204.02 22.8061 1206.61 21.9395C1213.81 19.5158 1218.44 14.3766 1222.38 10.0186C1227.14 4.74711 1230.92 0.556822 1238.66 0.398438H1239.58C1241.63 0.440456 1243.41 0.768735 1245 1.32422V1.25293C1247.53 2.09823 1249.59 3.51801 1251.53 5.2959C1251.55 5.31319 1251.57 5.3303 1251.59 5.34766C1251.76 5.50424 1251.93 5.66326 1252.1 5.8252C1253.42 7.08576 1254.71 8.50545 1256.08 10.0186C1257.54 11.6485 1259.11 13.387 1260.88 15.0527C1265.46 19.3735 1271.37 23.2046 1280.29 23.334C1280.44 23.336 1280.59 23.3379 1280.74 23.3379C1280.74 23.3379 1280.75 23.3369 1280.76 23.3369L1280.77 23.3213C1284.12 23.3213 1287.04 22.8061 1289.63 21.9395C1296.82 19.5158 1301.46 14.3766 1305.39 10.0186C1310.16 4.74711 1313.93 0.556822 1321.68 0.398438H1322.59C1324.65 0.440456 1326.43 0.768735 1328.02 1.32422V1.25293C1330.55 2.09823 1332.6 3.51801 1334.55 5.2959C1334.57 5.31319 1334.59 5.3303 1334.61 5.34766C1334.78 5.50424 1334.95 5.66326 1335.12 5.8252C1336.44 7.08576 1337.73 8.50545 1339.09 10.0186C1340.56 11.6485 1342.13 13.387 1343.89 15.0527C1348.48 19.3735 1354.39 23.2046 1363.31 23.334C1363.46 23.336 1363.6 23.3379 1363.75 23.3379C1363.76 23.3379 1363.77 23.3369 1363.78 23.3369L1363.79 23.3213C1367.13 23.3213 1370.06 22.8061 1372.65 21.9395C1379.84 19.5158 1384.48 14.3766 1388.41 10.0186C1393.18 4.74711 1396.95 0.556822 1404.7 0.398438H1405.61C1407.67 0.440456 1409.44 0.768735 1411.03 1.32422V1.25293C1413.56 2.09823 1415.62 3.51801 1417.57 5.2959C1417.59 5.31319 1417.61 5.3303 1417.62 5.34766C1417.79 5.50424 1417.96 5.66326 1418.13 5.8252C1419.46 7.08576 1420.75 8.50545 1422.11 10.0186C1423.58 11.6485 1425.15 13.387 1426.91 15.0527C1431.5 19.3735 1437.4 23.2046 1446.33 23.334C1446.47 23.336 1446.62 23.3379 1446.77 23.3379C1446.78 23.3379 1446.79 23.3369 1446.8 23.3369L1446.81 23.3213C1450.15 23.3213 1453.07 22.8061 1455.67 21.9395C1462.86 19.5158 1467.49 14.3766 1471.43 10.0186C1476.19 4.74711 1479.97 0.556822 1487.71 0.398438H1488.63C1490.69 0.440456 1492.46 0.768735 1494.05 1.32422V1.25293C1496.58 2.09823 1498.64 3.51801 1500.58 5.2959C1500.6 5.31319 1500.62 5.3303 1500.64 5.34766C1500.81 5.50424 1500.98 5.66326 1501.15 5.8252C1502.47 7.08576 1503.76 8.50545 1505.13 10.0186C1506.6 11.6485 1508.16 13.387 1509.93 15.0527C1514.51 19.3735 1520.42 23.2046 1529.35 23.334C1529.49 23.336 1529.64 23.3379 1529.79 23.3379C1529.8 23.3379 1529.81 23.3369 1529.81 23.3369L1529.83 23.3213C1533.17 23.3213 1536.09 22.8061 1538.68 21.9395C1545.88 19.5158 1550.51 14.3766 1554.45 10.0186C1559.21 4.74711 1562.99 0.556822 1570.73 0.398438H1571.65C1573.7 0.440456 1575.48 0.768735 1577.07 1.32422V1.25293C1579.6 2.09823 1581.66 3.51801 1583.6 5.2959C1583.62 5.31319 1583.64 5.3303 1583.66 5.34766C1583.83 5.50424 1584 5.66326 1584.17 5.8252C1585.49 7.08576 1586.78 8.50545 1588.15 10.0186C1589.61 11.6485 1591.18 13.387 1592.95 15.0527C1597.53 19.3735 1603.44 23.2046 1612.36 23.334C1612.51 23.336 1612.66 23.3379 1612.81 23.3379C1612.81 23.3379 1612.82 23.3369 1612.83 23.3369L1612.84 23.3213C1616.19 23.3213 1619.11 22.8061 1621.7 21.9395C1628.89 19.5158 1633.53 14.3766 1637.46 10.0186C1642.23 4.74711 1646 0.556822 1653.75 0.398438H1654.66C1656.72 0.440456 1658.5 0.768735 1660.09 1.32422V1.25293C1662.62 2.09823 1664.67 3.51801 1666.62 5.2959C1666.64 5.31319 1666.66 5.3303 1666.68 5.34766C1666.85 5.50424 1667.02 5.66326 1667.19 5.8252C1668.51 7.08576 1669.8 8.50545 1671.17 10.0186C1672.63 11.6485 1674.2 13.387 1675.96 15.0527C1680.55 19.3735 1686.46 23.2046 1695.38 23.334C1695.53 23.336 1695.68 23.3379 1695.82 23.3379C1695.83 23.3379 1695.84 23.3369 1695.85 23.3369L1695.86 23.3213C1699.2 23.3213 1702.13 22.8061 1704.72 21.9395C1711.91 19.5158 1716.55 14.3766 1720.48 10.0186C1725.25 4.74711 1729.02 0.556822 1736.77 0.398438H1737.68C1739.74 0.440456 1741.51 0.768735 1743.1 1.32422V1.25293C1745.63 2.09823 1747.69 3.51801 1749.64 5.2959C1749.66 5.31319 1749.68 5.3303 1749.69 5.34766C1749.86 5.50424 1750.04 5.66326 1750.2 5.8252C1751.53 7.08576 1752.82 8.50545 1754.18 10.0186C1755.65 11.6485 1757.22 13.387 1758.98 15.0527C1763.57 19.3735 1769.47 23.2046 1778.4 23.334C1778.55 23.336 1778.69 23.3379 1778.84 23.3379C1778.85 23.3379 1778.86 23.3369 1778.87 23.3369L1778.88 23.3213C1782.22 23.3213 1785.14 22.8061 1787.74 21.9395C1794.93 19.5158 1799.57 14.3766 1803.5 10.0186C1808.26 4.74711 1812.04 0.556822 1819.79 0.398438H1820.7C1822.76 0.440456 1824.53 0.768735 1826.12 1.32422V1.25293C1828.65 2.09823 1830.71 3.51801 1832.65 5.2959C1832.67 5.31319 1832.69 5.3303 1832.71 5.34766C1832.88 5.50424 1833.05 5.66326 1833.22 5.8252C1834.54 7.08576 1835.83 8.50545 1837.2 10.0186C1838.67 11.6485 1840.24 13.387 1842 15.0527C1846.58 19.3735 1852.49 23.2046 1861.42 23.334C1861.56 23.336 1861.71 23.3379 1861.86 23.3379C1861.87 23.3379 1861.88 23.3369 1861.88 23.3369L1861.9 23.3213C1865.24 23.3213 1868.16 22.8061 1870.75 21.9395C1877.95 19.5158 1882.58 14.3766 1886.52 10.0186C1891.28 4.74711 1895.06 0.556822 1902.8 0.398438H1903.72C1905.77 0.440456 1907.55 0.768735 1909.14 1.32422V1.25293C1911.67 2.09823 1913.73 3.51801 1915.67 5.2959C1915.69 5.31319 1915.71 5.3303 1915.73 5.34766C1915.9 5.50424 1916.07 5.66326 1916.24 5.8252C1917.56 7.08576 1918.85 8.50545 1920.22 10.0186C1921.69 11.6485 1923.25 13.387 1925.02 15.0527C1929.6 19.3735 1935.51 23.2046 1944.43 23.334C1944.58 23.336 1944.73 23.3379 1944.88 23.3379C1944.88 23.3379 1944.89 23.3369 1944.9 23.3369L1944.92 23.3213C1948.26 23.3213 1951.18 22.8061 1953.77 21.9395C1960.96 19.5158 1965.6 14.3766 1969.53 10.0186C1974.3 4.74711 1978.07 0.556822 1985.82 0.398438H1986.73C1988.79 0.440456 1990.57 0.768735 1992.16 1.32422V1.25293C1994.69 2.09823 1996.74 3.51801 1998.69 5.2959C1998.71 5.31319 1998.73 5.3303 1998.75 5.34766C1998.92 5.50424 1999.09 5.66326 1999.26 5.8252C2000.58 7.08576 2001.87 8.50545 2003.24 10.0186C2004.7 11.6485 2006.27 13.387 2008.03 15.0527C2012.62 19.3735 2018.53 23.2046 2027.45 23.334C2027.6 23.336 2027.75 23.3379 2027.89 23.3379C2027.9 23.3379 2027.91 23.3369 2027.92 23.3369L2027.93 23.3213C2031.27 23.3213 2034.2 22.8061 2036.79 21.9395C2043.98 19.5158 2048.62 14.3766 2052.55 10.0186C2057.32 4.74711 2061.09 0.556822 2068.84 0.398438H2069.75C2071.81 0.440456 2073.58 0.768735 2075.17 1.32422V1.25293C2077.7 2.09823 2079.76 3.51801 2081.71 5.2959C2081.73 5.31319 2081.75 5.3303 2081.76 5.34766C2081.94 5.50424 2082.11 5.66326 2082.27 5.8252C2083.6 7.08576 2084.89 8.50545 2086.25 10.0186C2087.72 11.6485 2089.29 13.387 2091.05 15.0527C2095.64 19.3735 2101.54 23.2046 2110.47 23.334C2110.62 23.336 2110.76 23.3379 2110.91 23.3379C2110.92 23.3379 2110.93 23.3369 2110.94 23.3369L2110.95 23.3213C2114.29 23.3213 2117.21 22.8061 2119.81 21.9395C2127 19.5158 2131.64 14.3766 2135.57 10.0186C2140.33 4.74711 2144.11 0.556822 2151.86 0.398438H2152.77C2154.83 0.440456 2156.6 0.768735 2158.19 1.32422V1.25293C2160.72 2.09823 2162.78 3.51801 2164.72 5.2959C2164.74 5.31319 2164.76 5.3303 2164.78 5.34766C2164.95 5.50424 2165.12 5.66326 2165.29 5.8252C2166.62 7.08576 2167.9 8.50545 2169.27 10.0186C2170.74 11.6485 2172.31 13.387 2174.07 15.0527C2178.66 19.3735 2184.56 23.2046 2193.49 23.334C2193.63 23.336 2193.78 23.3379 2193.93 23.3379C2193.94 23.3379 2193.95 23.3369 2193.95 23.3369L2193.97 23.3213C2197.31 23.3213 2200.23 22.8061 2202.83 21.9395C2210.02 19.5158 2214.65 14.3766 2218.59 10.0186C2223.35 4.74711 2227.13 0.556822 2234.87 0.398438H2235.79C2237.84 0.440456 2239.62 0.768735 2241.21 1.32422V1.25293C2243.74 2.09823 2245.8 3.51801 2247.74 5.2959C2247.76 5.31319 2247.78 5.3303 2247.8 5.34766C2247.97 5.50424 2248.14 5.66326 2248.31 5.8252C2249.63 7.08576 2250.92 8.50545 2252.29 10.0186C2253.76 11.6485 2255.32 13.387 2257.09 15.0527C2261.67 19.3735 2267.58 23.2046 2276.5 23.334C2276.65 23.336 2276.8 23.3379 2276.95 23.3379C2276.95 23.3379 2276.96 23.3369 2276.97 23.3369L2276.99 23.3213C2280.33 23.3213 2283.25 22.8061 2285.84 21.9395C2293.03 19.5158 2297.67 14.3766 2301.6 10.0186C2306.37 4.74711 2310.14 0.556822 2317.89 0.398438H2318.8C2320.86 0.440456 2322.64 0.768735 2324.23 1.32422V1.25293C2326.76 2.09823 2328.81 3.51801 2330.76 5.2959C2330.78 5.31319 2330.8 5.3303 2330.82 5.34766C2330.99 5.50424 2331.16 5.66326 2331.33 5.8252C2332.65 7.08576 2333.94 8.50545 2335.31 10.0186C2336.77 11.6485 2338.34 13.387 2340.1 15.0527C2344.69 19.3735 2350.6 23.2046 2359.52 23.334C2359.67 23.336 2359.82 23.3379 2359.96 23.3379C2359.97 23.3379 2359.98 23.3369 2359.99 23.3369L2360 23.3213C2363.34 23.3213 2366.27 22.8061 2368.86 21.9395C2376.05 19.5158 2380.69 14.3766 2384.62 10.0186C2389.39 4.74711 2393.16 0.556822 2400.91 0.398438H2401.82C2403.88 0.440456 2405.65 0.768735 2407.24 1.32422V1.25293C2409.77 2.09823 2411.83 3.51801 2413.78 5.2959C2413.8 5.31319 2413.82 5.3303 2413.83 5.34766C2414.01 5.50424 2414.18 5.66326 2414.34 5.8252C2415.67 7.08576 2416.96 8.50545 2418.32 10.0186C2419.79 11.6485 2421.36 13.387 2423.12 15.0527C2427.71 19.3735 2433.62 23.2046 2442.54 23.334C2442.69 23.336 2442.83 23.3379 2442.98 23.3379C2442.99 23.3379 2443 23.3369 2443.01 23.3369L2443.02 23.3213C2446.36 23.3213 2449.29 22.8061 2451.88 21.9395C2459.07 19.5158 2463.71 14.3766 2467.64 10.0186C2472.4 4.74711 2476.18 0.556822 2483.93 0.398438H2484.84C2486.9 0.440456 2488.67 0.768735 2490.26 1.32422V1.25293C2492.79 2.09823 2494.85 3.51801 2496.79 5.2959C2496.81 5.31319 2496.83 5.3303 2496.85 5.34766C2497.02 5.50424 2497.19 5.66326 2497.36 5.8252C2498.69 7.08576 2499.97 8.50545 2501.34 10.0186C2502.81 11.6485 2504.38 13.387 2506.14 15.0527C2510.73 19.3735 2516.63 23.2046 2525.56 23.334C2525.7 23.336 2525.85 23.3379 2526 23.3379C2526.01 23.3379 2526.02 23.3369 2526.02 23.3369L2526.04 23.3213C2529.38 23.3213 2532.3 22.8061 2534.9 21.9395C2542.09 19.5158 2546.72 14.3766 2550.66 10.0186C2555.42 4.74711 2559.2 0.556822 2566.94 0.398438H2567.86C2569.91 0.440456 2571.69 0.768735 2573.28 1.32422V1.25293C2575.81 2.09823 2577.87 3.51801 2579.81 5.2959C2579.83 5.31319 2579.85 5.3303 2579.87 5.34766C2580.04 5.50424 2580.21 5.66326 2580.38 5.8252C2581.7 7.08576 2582.99 8.50545 2584.36 10.0186C2585.83 11.6485 2587.39 13.387 2589.16 15.0527C2593.74 19.3735 2599.65 23.2046 2608.57 23.334C2608.72 23.336 2608.87 23.3379 2609.02 23.3379C2609.03 23.3379 2609.03 23.3369 2609.04 23.3369L2609.06 23.3213C2612.4 23.3213 2615.32 22.8061 2617.91 21.9395C2625.1 19.5158 2629.74 14.3766 2633.67 10.0186C2638.44 4.74711 2642.21 0.556822 2649.96 0.398438H2650.88C2653.05 0.44283 2654.91 0.803857 2656.57 1.41797V73.0889C2654.68 72.68 2652.64 72.4512 2650.42 72.4512C2648.4 72.4512 2646.53 72.6397 2644.8 72.9805V73.0605C2635.76 74.8905 2630.31 80.8081 2625.83 85.7539C2620.97 91.1448 2617.13 95.3983 2609.06 95.3984C2609.05 95.3984 2609.04 95.3975 2609.04 95.3975C2609.03 95.3975 2609.02 95.3984 2609.02 95.3984C2600.96 95.3984 2597.13 91.1447 2592.27 85.7705C2587.82 80.8083 2582.37 74.907 2573.33 73.0771V73.0439C2571.51 72.6643 2569.54 72.4512 2567.4 72.4512C2565.38 72.4512 2563.52 72.6397 2561.78 72.9805V73.0605C2552.74 74.8905 2547.3 80.8081 2542.81 85.7539C2537.95 91.1448 2534.11 95.3983 2526.04 95.3984C2526.03 95.3984 2526.02 95.3975 2526.02 95.3975C2526.01 95.3975 2526.01 95.3984 2526 95.3984C2517.94 95.3984 2514.11 91.1447 2509.25 85.7705C2504.8 80.8083 2499.35 74.907 2490.31 73.0771V73.0439C2488.49 72.6643 2486.52 72.4512 2484.38 72.4512C2482.36 72.4512 2480.5 72.6397 2478.76 72.9805V73.0605C2469.72 74.8905 2464.28 80.8081 2459.79 85.7539C2454.93 91.1448 2451.09 95.3983 2443.02 95.3984C2443.01 95.3984 2443.01 95.3975 2443 95.3975C2442.99 95.3975 2442.99 95.3984 2442.98 95.3984C2434.92 95.3984 2431.09 91.1447 2426.24 85.7705C2421.78 80.8083 2416.34 74.907 2407.29 73.0771V73.0439C2405.47 72.6643 2403.51 72.4512 2401.37 72.4512C2399.35 72.4512 2397.48 72.6397 2395.75 72.9805V73.0605C2386.7 74.8905 2381.26 80.8081 2376.77 85.7539C2371.92 91.1448 2368.07 95.3983 2360 95.3984C2360 95.3984 2359.99 95.3975 2359.98 95.3975C2359.98 95.3975 2359.97 95.3984 2359.96 95.3984C2351.91 95.3984 2348.08 91.1447 2343.22 85.7705C2338.76 80.8083 2333.32 74.907 2324.28 73.0771V73.0439C2322.46 72.6643 2320.49 72.4512 2318.35 72.4512C2316.33 72.4512 2314.46 72.6397 2312.73 72.9805V73.0605C2303.69 74.8905 2298.24 80.8081 2293.76 85.7539C2288.9 91.1448 2285.06 95.3983 2276.99 95.3984C2276.98 95.3984 2276.97 95.3975 2276.96 95.3975C2276.96 95.3975 2276.95 95.3984 2276.95 95.3984C2268.89 95.3984 2265.06 91.1447 2260.2 85.7705C2255.74 80.8083 2250.3 74.907 2241.26 73.0771V73.0439C2239.44 72.6643 2237.47 72.4512 2235.33 72.4512C2233.31 72.4512 2231.44 72.6397 2229.71 72.9805V73.0605C2220.67 74.8905 2215.23 80.8081 2210.74 85.7539C2205.88 91.1448 2202.04 95.3983 2193.97 95.3984C2193.96 95.3984 2193.95 95.3975 2193.95 95.3975C2193.94 95.3975 2193.93 95.3984 2193.93 95.3984C2185.87 95.3984 2182.04 91.1447 2177.18 85.7705C2172.73 80.8083 2167.28 74.907 2158.24 73.0771V73.0439C2156.42 72.6643 2154.45 72.4512 2152.31 72.4512C2150.29 72.4512 2148.43 72.6397 2146.69 72.9805V73.0605C2137.65 74.8905 2132.21 80.8081 2127.72 85.7539C2122.86 91.1448 2119.02 95.3983 2110.95 95.3984C2110.94 95.3984 2110.94 95.3975 2110.93 95.3975C2110.92 95.3975 2110.92 95.3984 2110.91 95.3984C2102.85 95.3984 2099.02 91.1447 2094.17 85.7705C2089.71 80.8083 2084.27 74.907 2075.22 73.0771V73.0439C2073.4 72.6643 2071.44 72.4512 2069.29 72.4512C2067.28 72.4512 2065.41 72.6397 2063.68 72.9805V73.0605C2054.63 74.8905 2049.19 80.8081 2044.7 85.7539C2039.85 91.1448 2036 95.3983 2027.93 95.3984C2027.93 95.3984 2027.92 95.3975 2027.91 95.3975C2027.91 95.3975 2027.9 95.3984 2027.89 95.3984C2019.84 95.3984 2016.01 91.1447 2011.15 85.7705C2006.69 80.8083 2001.25 74.907 1992.21 73.0771V73.0439C1990.39 72.6643 1988.42 72.4512 1986.28 72.4512C1984.26 72.4512 1982.39 72.6397 1980.66 72.9805V73.0605C1971.62 74.8905 1966.17 80.8081 1961.69 85.7539C1956.83 91.1448 1952.99 95.3983 1944.92 95.3984C1944.91 95.3984 1944.9 95.3975 1944.89 95.3975C1944.89 95.3975 1944.88 95.3984 1944.88 95.3984C1936.82 95.3984 1932.99 91.1447 1928.13 85.7705C1923.67 80.8083 1918.23 74.907 1909.19 73.0771V73.0439C1907.37 72.6643 1905.4 72.4512 1903.26 72.4512C1901.24 72.4512 1899.37 72.6397 1897.64 72.9805V73.0605C1888.6 74.8905 1883.15 80.8081 1878.67 85.7539C1873.81 91.1448 1869.97 95.3983 1861.9 95.3984C1861.89 95.3984 1861.88 95.3975 1861.88 95.3975C1861.87 95.3975 1861.86 95.3984 1861.86 95.3984C1853.8 95.3984 1849.97 91.1447 1845.11 85.7705C1840.66 80.8083 1835.21 74.907 1826.17 73.0771V73.0439C1824.35 72.6643 1822.38 72.4512 1820.24 72.4512C1818.22 72.4512 1816.36 72.6397 1814.62 72.9805V73.0605C1805.58 74.8905 1800.14 80.8081 1795.65 85.7539C1790.79 91.1448 1786.95 95.3983 1778.88 95.3984C1778.87 95.3984 1778.87 95.3975 1778.86 95.3975C1778.85 95.3975 1778.85 95.3984 1778.84 95.3984C1770.78 95.3984 1766.95 91.1447 1762.1 85.7705C1757.64 80.8083 1752.2 74.907 1743.15 73.0771V73.0439C1741.33 72.6643 1739.36 72.4512 1737.22 72.4512C1735.21 72.4512 1733.34 72.6397 1731.61 72.9805V73.0605C1722.56 74.8905 1717.12 80.8081 1712.63 85.7539C1707.78 91.1448 1703.93 95.3983 1695.86 95.3984C1695.86 95.3984 1695.85 95.3975 1695.84 95.3975C1695.84 95.3975 1695.83 95.3984 1695.82 95.3984C1687.77 95.3984 1683.94 91.1447 1679.08 85.7705C1674.62 80.8083 1669.18 74.907 1660.14 73.0771V73.0439C1658.32 72.6643 1656.35 72.4512 1654.21 72.4512C1652.19 72.4512 1650.32 72.6397 1648.59 72.9805V73.0605C1639.55 74.8905 1634.1 80.8081 1629.62 85.7539C1624.76 91.1448 1620.92 95.3983 1612.84 95.3984C1612.84 95.3984 1612.83 95.3975 1612.82 95.3975C1612.82 95.3975 1612.81 95.3984 1612.81 95.3984C1604.75 95.3984 1600.92 91.1447 1596.06 85.7705C1591.6 80.8083 1586.16 74.907 1577.12 73.0771V73.0439C1575.3 72.6643 1573.33 72.4512 1571.19 72.4512C1569.17 72.4512 1567.3 72.6397 1565.57 72.9805V73.0605C1556.53 74.8905 1551.08 80.8081 1546.6 85.7539C1541.74 91.1448 1537.9 95.3983 1529.83 95.3984C1529.82 95.3984 1529.81 95.3975 1529.81 95.3975C1529.8 95.3975 1529.79 95.3984 1529.79 95.3984C1521.73 95.3984 1517.9 91.1447 1513.04 85.7705C1508.59 80.8083 1503.14 74.907 1494.1 73.0771V73.0439C1492.28 72.6643 1490.31 72.4512 1488.17 72.4512C1486.15 72.4512 1484.29 72.6397 1482.55 72.9805V73.0605C1473.51 74.8905 1468.07 80.8081 1463.58 85.7539C1458.72 91.1448 1454.88 95.3983 1446.81 95.3984C1446.8 95.3984 1446.8 95.3975 1446.79 95.3975C1446.78 95.3975 1446.78 95.3984 1446.77 95.3984C1438.71 95.3984 1434.88 91.1447 1430.03 85.7705C1425.57 80.8083 1420.13 74.907 1411.08 73.0771V73.0439C1409.26 72.6643 1407.29 72.4512 1405.15 72.4512C1403.14 72.4512 1401.27 72.6397 1399.54 72.9805V73.0605C1390.49 74.8905 1385.05 80.8081 1380.56 85.7539C1375.71 91.1448 1371.86 95.3983 1363.79 95.3984C1363.79 95.3984 1363.78 95.3975 1363.77 95.3975C1363.77 95.3975 1363.76 95.3984 1363.75 95.3984C1355.7 95.3984 1351.87 91.1447 1347.01 85.7705C1342.55 80.8083 1337.11 74.907 1328.07 73.0771V73.0439C1326.25 72.6643 1324.28 72.4512 1322.14 72.4512C1320.12 72.4512 1318.25 72.6397 1316.52 72.9805V73.0605C1307.48 74.8905 1302.03 80.8081 1297.55 85.7539C1292.69 91.1448 1288.85 95.3983 1280.77 95.3984C1280.77 95.3984 1280.76 95.3975 1280.75 95.3975C1280.75 95.3975 1280.74 95.3984 1280.74 95.3984C1272.68 95.3984 1268.85 91.1447 1263.99 85.7705C1259.53 80.8083 1254.09 74.907 1245.05 73.0771V73.0439C1243.23 72.6643 1241.26 72.4512 1239.12 72.4512C1237.1 72.4512 1235.23 72.6397 1233.5 72.9805V73.0605C1224.46 74.8905 1219.01 80.8081 1214.53 85.7539C1209.67 91.1448 1205.83 95.3983 1197.76 95.3984C1197.75 95.3984 1197.74 95.3975 1197.74 95.3975C1197.73 95.3975 1197.72 95.3984 1197.72 95.3984C1189.66 95.3984 1185.83 91.1447 1180.97 85.7705C1176.52 80.8083 1171.07 74.907 1162.03 73.0771V73.0439C1160.21 72.6643 1158.24 72.4512 1156.1 72.4512C1154.08 72.4512 1152.22 72.6397 1150.48 72.9805V73.0605C1141.44 74.8905 1136 80.8081 1131.51 85.7539C1126.65 91.1448 1122.81 95.3983 1114.74 95.3984C1114.73 95.3984 1114.73 95.3975 1114.72 95.3975C1114.71 95.3975 1114.71 95.3984 1114.7 95.3984C1106.64 95.3984 1102.81 91.1447 1097.96 85.7705C1093.5 80.8083 1088.06 74.907 1079.01 73.0771V73.0439C1077.19 72.6643 1075.22 72.4512 1073.08 72.4512C1071.06 72.4512 1069.2 72.6397 1067.47 72.9805V73.0605C1058.42 74.8905 1052.98 80.8081 1048.49 85.7539C1043.64 91.1448 1039.79 95.3983 1031.72 95.3984C1031.71 95.3984 1031.71 95.3975 1031.7 95.3975C1031.69 95.3975 1031.69 95.3984 1031.68 95.3984C1023.63 95.3984 1019.8 91.1447 1014.94 85.7705C1010.48 80.8083 1005.04 74.907 995.995 73.0771V73.0439C994.175 72.6643 992.207 72.4512 990.066 72.4512C988.047 72.4512 986.181 72.6397 984.448 72.9805V73.0605C975.405 74.8905 969.962 80.8081 965.476 85.7539C960.618 91.1448 956.776 95.3983 948.704 95.3984C948.697 95.3984 948.69 95.3975 948.684 95.3975C948.677 95.3975 948.671 95.3984 948.665 95.3984C940.608 95.3984 936.778 91.1447 931.921 85.7705C927.463 80.8083 922.021 74.907 912.978 73.0771V73.0439C911.158 72.6643 909.189 72.4512 907.049 72.4512C905.03 72.4512 903.163 72.6397 901.431 72.9805V73.0605C892.387 74.8905 886.944 80.8081 882.458 85.7539C877.601 91.1448 873.758 95.3983 865.687 95.3984C865.68 95.3984 865.673 95.3975 865.666 95.3975C865.66 95.3975 865.654 95.3984 865.647 95.3984C857.59 95.3984 853.761 91.1447 848.903 85.7705C844.446 80.8083 839.003 74.907 829.96 73.0771V73.0439C828.14 72.6643 826.172 72.4512 824.031 72.4512C822.012 72.4512 820.146 72.6397 818.413 72.9805V73.0605C809.37 74.8905 803.926 80.8081 799.44 85.7539C794.583 91.1448 790.74 95.3983 782.669 95.3984C782.662 95.3984 782.655 95.3975 782.648 95.3975C782.642 95.3975 782.636 95.3984 782.63 95.3984C774.572 95.3984 770.743 91.1447 765.886 85.7705C761.428 80.8083 755.986 74.907 746.942 73.0771V73.0439C745.122 72.6643 743.154 72.4512 741.014 72.4512C738.995 72.4512 737.128 72.6397 735.396 72.9805V73.0605C726.352 74.8905 720.909 80.8081 716.423 85.7539C711.566 91.1448 707.723 95.3983 699.651 95.3984C699.645 95.3984 699.638 95.3975 699.631 95.3975C699.625 95.3975 699.618 95.3984 699.612 95.3984C691.555 95.3984 687.725 91.1447 682.868 85.7705C678.411 80.8083 672.968 74.907 663.925 73.0771V73.0439C662.105 72.6643 660.136 72.4512 657.996 72.4512C655.977 72.4512 654.111 72.6397 652.378 72.9805V73.0605C643.335 74.8905 637.891 80.8081 633.405 85.7539C628.548 91.1448 624.705 95.3983 616.634 95.3984C616.627 95.3984 616.62 95.3975 616.613 95.3975C616.607 95.3975 616.601 95.3984 616.595 95.3984C608.537 95.3984 604.708 91.1447 599.851 85.7705C595.393 80.8083 589.95 74.907 580.907 73.0771V73.0439C579.087 72.6643 577.119 72.4512 574.979 72.4512C572.959 72.4512 571.093 72.6397 569.36 72.9805V73.0605C560.317 74.8905 554.874 80.8081 550.388 85.7539C545.531 91.1448 541.688 95.3983 533.616 95.3984C533.609 95.3984 533.602 95.3975 533.596 95.3975C533.59 95.3975 533.583 95.3984 533.577 95.3984C525.52 95.3984 521.69 91.1447 516.833 85.7705C512.376 80.8083 506.933 74.907 497.89 73.0771V73.0439C496.07 72.6643 494.101 72.4512 491.961 72.4512C489.942 72.4512 488.076 72.6397 486.343 72.9805V73.0605C477.299 74.8905 471.856 80.8081 467.37 85.7539C462.513 91.1448 458.67 95.3983 450.599 95.3984C450.592 95.3984 450.585 95.3975 450.578 95.3975C450.572 95.3975 450.566 95.3984 450.56 95.3984C442.502 95.3984 438.673 91.1447 433.815 85.7705C429.358 80.8083 423.915 74.907 414.872 73.0771V73.0439C413.052 72.6643 411.084 72.4512 408.943 72.4512C406.924 72.4512 405.058 72.6397 403.325 72.9805V73.0605C394.282 74.8905 388.839 80.8081 384.353 85.7539C379.495 91.1448 375.653 95.3983 367.581 95.3984C367.574 95.3984 367.567 95.3975 367.561 95.3975C367.554 95.3975 367.548 95.3984 367.542 95.3984C359.485 95.3984 355.655 91.1447 350.798 85.7705C346.34 80.8083 340.898 74.907 331.854 73.0771V73.0439C330.035 72.6643 328.066 72.4512 325.926 72.4512C323.907 72.4512 322.04 72.6397 320.308 72.9805V73.0605C311.264 74.8905 305.821 80.8081 301.335 85.7539C296.478 91.1448 292.635 95.3983 284.563 95.3984C284.557 95.3984 284.55 95.3975 284.543 95.3975C284.537 95.3975 284.531 95.3984 284.524 95.3984C276.467 95.3984 272.638 91.1447 267.78 85.7705C263.323 80.8083 257.88 74.907 248.837 73.0771V73.0439C247.017 72.6643 245.049 72.4512 242.908 72.4512C240.889 72.4512 239.023 72.6397 237.29 72.9805V73.0605C228.247 74.8905 222.803 80.8081 218.317 85.7539C213.46 91.1448 209.617 95.3983 201.546 95.3984C201.539 95.3984 201.532 95.3975 201.525 95.3975C201.519 95.3975 201.513 95.3984 201.507 95.3984C193.449 95.3984 189.62 91.1447 184.763 85.7705C180.305 80.8083 174.862 74.907 165.819 73.0771V73.0439C163.999 72.6643 162.031 72.4512 159.891 72.4512C157.872 72.4512 156.005 72.6397 154.272 72.9805V73.0605C145.229 74.8905 139.786 80.8081 135.3 85.7539C130.443 91.1448 126.6 95.3983 118.528 95.3984C118.522 95.3984 118.515 95.3975 118.508 95.3975C118.502 95.3975 118.495 95.3984 118.489 95.3984C110.432 95.3984 106.602 91.1447 101.745 85.7705C97.2877 80.8083 91.8449 74.907 82.8018 73.0771V73.002C82.7852 72.9986 82.7686 72.9954 82.752 72.9922V72.9688C81.036 72.6361 79.1894 72.4512 77.1934 72.4512C75.1743 72.4512 73.308 72.6397 71.5752 72.9805V73.0605C62.5319 74.8905 57.0886 80.8081 52.6025 85.7539C47.7454 91.1448 43.9025 95.3983 35.8311 95.3984C35.8243 95.3984 35.8173 95.3975 35.8105 95.3975C35.8044 95.3975 35.7982 95.3984 35.792 95.3984C27.7346 95.3984 23.9051 91.1447 19.0479 85.7705C14.5904 80.8083 9.14761 74.907 0.104492 73.0771V73.002C0.0879142 72.9986 0.0713075 72.9954 0.0546875 72.9922V1.25293C2.58553 2.09823 4.64271 3.51801 6.58789 5.2959C6.60692 5.31319 6.6265 5.3303 6.64551 5.34766C6.81596 5.50424 6.98625 5.66326 7.15527 5.8252C8.47829 7.08576 9.76745 8.50545 11.1338 10.0186C12.6013 11.6485 14.1688 13.387 15.9316 15.0527C20.5184 19.3735 26.4256 23.2046 35.3496 23.334C35.4962 23.336 35.6438 23.3379 35.792 23.3379C35.8005 23.3379 35.8089 23.3369 35.8174 23.3369L35.8311 23.3213C39.172 23.3213 42.0957 22.8061 44.6885 21.9395C51.8803 19.5158 56.5162 14.3766 60.4502 10.0186C65.2146 4.74711 68.9896 0.556822 76.7363 0.398438H77.6504Z" fill="#EEF7FE"/>
</svg>
