<svg width="2657" height="146" viewBox="0 0 2657 146" fill="none" xmlns="http://www.w3.org/2000/svg">
<path d="M78.084 0.742188C80.2571 0.78658 82.1168 1.14761 83.7744 1.76172V1.80762C86.0394 2.66847 87.9267 4.00174 89.7188 5.63965C89.7378 5.65694 89.7574 5.67405 89.7764 5.69141C89.9468 5.84799 90.1171 6.00701 90.2861 6.16895C91.6091 7.42951 92.8983 8.8492 94.2646 10.3623C95.7322 11.9922 97.2996 13.7308 99.0625 15.3965C103.649 19.7172 109.556 23.5484 118.48 23.6777C118.627 23.6797 118.775 23.6816 118.923 23.6816C118.931 23.6816 118.94 23.6807 118.948 23.6807L118.962 23.665C122.303 23.665 125.227 23.1498 127.819 22.2832C135.011 19.8596 139.647 14.7203 143.581 10.3623C148.345 5.09086 152.12 0.900572 159.867 0.742188H160.781C162.838 0.784206 164.613 1.11248 166.203 1.66797V1.59668C168.734 2.44198 170.791 3.86176 172.736 5.63965C172.755 5.65694 172.775 5.67405 172.794 5.69141C172.964 5.84799 173.135 6.00701 173.304 6.16895C174.627 7.42951 175.916 8.8492 177.282 10.3623C178.75 11.9922 180.317 13.7308 182.08 15.3965C186.667 19.7172 192.574 23.5484 201.498 23.6777C201.645 23.6797 201.792 23.6816 201.94 23.6816C201.949 23.6816 201.957 23.6807 201.966 23.6807L201.979 23.665C205.32 23.665 208.244 23.1498 210.837 22.2832C218.029 19.8596 222.665 14.7203 226.599 10.3623C231.363 5.09086 235.138 0.900572 242.885 0.742188H243.799C245.856 0.784206 247.631 1.11248 249.221 1.66797V1.59668C251.752 2.44198 253.809 3.86176 255.754 5.63965C255.773 5.65694 255.793 5.67405 255.812 5.69141C255.982 5.84799 256.152 6.00701 256.321 6.16895C257.644 7.42951 258.933 8.8492 260.3 10.3623C261.767 11.9922 263.335 13.7308 265.098 15.3965C269.684 19.7172 275.592 23.5484 284.516 23.6777C284.662 23.6797 284.81 23.6816 284.958 23.6816C284.966 23.6816 284.975 23.6807 284.983 23.6807L284.997 23.665C288.338 23.665 291.262 23.1498 293.854 22.2832C301.046 19.8596 305.682 14.7203 309.616 10.3623C314.381 5.09086 318.156 0.900572 325.902 0.742188H326.816C328.873 0.784206 330.649 1.11248 332.238 1.66797V1.59668C334.769 2.44198 336.826 3.86176 338.771 5.63965C338.791 5.65694 338.81 5.67405 338.829 5.69141C339 5.84799 339.17 6.00701 339.339 6.16895C340.662 7.42951 341.951 8.8492 343.317 10.3623C344.785 11.9922 346.352 13.7308 348.115 15.3965C352.702 19.7172 358.609 23.5484 367.533 23.6777C367.68 23.6797 367.827 23.6816 367.976 23.6816C367.984 23.6816 367.993 23.6807 368.001 23.6807L368.015 23.665C371.356 23.665 374.279 23.1498 376.872 22.2832C384.064 19.8596 388.7 14.7203 392.634 10.3623C397.398 5.09086 401.173 0.900572 408.92 0.742188H409.834C411.891 0.784206 413.666 1.11248 415.256 1.66797V1.59668C417.787 2.44198 419.844 3.86176 421.789 5.63965C421.808 5.65694 421.828 5.67405 421.847 5.69141C422.017 5.84799 422.187 6.00701 422.356 6.16895C423.679 7.42951 424.969 8.8492 426.335 10.3623C427.802 11.9922 429.37 13.7308 431.133 15.3965C435.72 19.7172 441.627 23.5484 450.551 23.6777C450.697 23.6797 450.845 23.6816 450.993 23.6816C451.002 23.6816 451.01 23.6807 451.019 23.6807L451.032 23.665C454.373 23.665 457.297 23.1498 459.89 22.2832C467.081 19.8596 471.717 14.7203 475.651 10.3623C480.416 5.09086 484.191 0.900572 491.938 0.742188H492.852C494.908 0.784206 496.684 1.11248 498.273 1.66797V1.59668C500.804 2.44198 502.861 3.86176 504.807 5.63965C504.826 5.65694 504.845 5.67405 504.864 5.69141C505.035 5.84799 505.205 6.00701 505.374 6.16895C506.697 7.42951 507.986 8.8492 509.353 10.3623C510.82 11.9922 512.388 13.7308 514.15 15.3965C518.737 19.7172 524.644 23.5484 533.568 23.6777C533.715 23.6797 533.863 23.6816 534.011 23.6816C534.019 23.6816 534.028 23.6807 534.036 23.6807L534.05 23.665C537.391 23.665 540.314 23.1498 542.907 22.2832C550.099 19.8596 554.735 14.7203 558.669 10.3623C563.433 5.09086 567.208 0.900572 574.955 0.742188H575.869C577.926 0.784206 579.701 1.11248 581.291 1.66797V1.59668C583.822 2.44198 585.879 3.86176 587.824 5.63965C587.843 5.65694 587.863 5.67405 587.882 5.69141C588.052 5.84799 588.223 6.00701 588.392 6.16895C589.715 7.42951 591.004 8.8492 592.37 10.3623C593.838 11.9922 595.405 13.7308 597.168 15.3965C601.755 19.7172 607.662 23.5484 616.586 23.6777C616.733 23.6797 616.88 23.6816 617.028 23.6816C617.037 23.6816 617.045 23.6807 617.054 23.6807L617.067 23.665C620.408 23.665 623.332 23.1498 625.925 22.2832C633.117 19.8596 637.753 14.7203 641.687 10.3623C646.451 5.09086 650.226 0.900572 657.973 0.742188H658.887C660.944 0.784206 662.719 1.11248 664.309 1.66797V1.59668C666.839 2.44198 668.897 3.86176 670.842 5.63965C670.861 5.65694 670.88 5.67405 670.899 5.69141C671.07 5.84799 671.24 6.00701 671.409 6.16895C672.732 7.42951 674.021 8.8492 675.388 10.3623C676.855 11.9922 678.423 13.7308 680.186 15.3965C684.772 19.7172 690.68 23.5484 699.604 23.6777C699.75 23.6797 699.898 23.6816 700.046 23.6816C700.054 23.6816 700.063 23.6807 700.071 23.6807L700.085 23.665C703.426 23.665 706.35 23.1498 708.942 22.2832C716.134 19.8596 720.77 14.7203 724.704 10.3623C729.469 5.09086 733.244 0.900572 740.99 0.742188H741.904C743.961 0.784206 745.736 1.11248 747.326 1.66797V1.59668C749.857 2.44198 751.914 3.86176 753.859 5.63965C753.878 5.65694 753.898 5.67405 753.917 5.69141C754.087 5.84799 754.258 6.00701 754.427 6.16895C755.75 7.42951 757.039 8.8492 758.405 10.3623C759.873 11.9922 761.44 13.7308 763.203 15.3965C767.79 19.7172 773.697 23.5484 782.621 23.6777C782.768 23.6797 782.915 23.6816 783.063 23.6816C783.072 23.6816 783.08 23.6807 783.089 23.6807L783.103 23.665C786.443 23.665 789.367 23.1498 791.96 22.2832C799.152 19.8596 803.788 14.7203 807.722 10.3623C812.486 5.09086 816.261 0.900572 824.008 0.742188H824.922C826.979 0.784206 828.754 1.11248 830.344 1.66797V1.59668C832.875 2.44198 834.932 3.86176 836.877 5.63965C836.896 5.65694 836.916 5.67405 836.935 5.69141C837.105 5.84799 837.275 6.00701 837.444 6.16895C838.767 7.42951 840.057 8.8492 841.423 10.3623C842.89 11.9922 844.458 13.7308 846.221 15.3965C850.807 19.7172 856.715 23.5484 865.639 23.6777C865.785 23.6797 865.933 23.6816 866.081 23.6816C866.09 23.6816 866.098 23.6807 866.106 23.6807L866.12 23.665C869.461 23.665 872.385 23.1498 874.978 22.2832C882.169 19.8596 886.805 14.7203 890.739 10.3623C895.504 5.09086 899.279 0.900572 907.025 0.742188H907.939C909.996 0.784206 911.772 1.11248 913.361 1.66797V1.59668C915.892 2.44198 917.949 3.86176 919.895 5.63965C919.914 5.65694 919.933 5.67405 919.952 5.69141C920.123 5.84799 920.293 6.00701 920.462 6.16895C921.785 7.42951 923.074 8.8492 924.44 10.3623C925.908 11.9922 927.475 13.7308 929.238 15.3965C933.825 19.7172 939.732 23.5484 948.656 23.6777C948.803 23.6797 948.95 23.6816 949.099 23.6816C949.107 23.6816 949.116 23.6807 949.124 23.6807L949.138 23.665C952.479 23.665 955.402 23.1498 957.995 22.2832C965.187 19.8596 969.823 14.7203 973.757 10.3623C978.521 5.09086 982.296 0.900572 990.043 0.742188H990.957C993.014 0.784206 994.789 1.11248 996.379 1.66797V1.59668C998.91 2.44198 1000.97 3.86176 1002.91 5.63965C1002.93 5.65694 1002.95 5.67405 1002.97 5.69141C1003.14 5.84799 1003.31 6.00701 1003.48 6.16895C1004.8 7.42951 1006.09 8.8492 1007.46 10.3623C1008.93 11.9922 1010.49 13.7308 1012.26 15.3965C1016.84 19.7172 1022.75 23.5484 1031.67 23.6777C1031.82 23.6797 1031.97 23.6816 1032.12 23.6816C1032.12 23.6816 1032.13 23.6807 1032.14 23.6807L1032.16 23.665C1035.5 23.665 1038.42 23.1498 1041.01 22.2832C1048.2 19.8596 1052.84 14.7203 1056.77 10.3623C1061.54 5.09086 1065.31 0.900572 1073.06 0.742188H1073.97C1076.03 0.784206 1077.81 1.11248 1079.4 1.66797V1.59668C1081.93 2.44198 1083.98 3.86176 1085.93 5.63965C1085.95 5.65694 1085.97 5.67405 1085.99 5.69141C1086.16 5.84799 1086.33 6.00701 1086.5 6.16895C1087.82 7.42951 1089.11 8.8492 1090.48 10.3623C1091.94 11.9922 1093.51 13.7308 1095.27 15.3965C1099.86 19.7172 1105.77 23.5484 1114.69 23.6777C1114.84 23.6797 1114.99 23.6816 1115.13 23.6816C1115.14 23.6816 1115.15 23.6807 1115.16 23.6807L1115.17 23.665C1118.51 23.665 1121.44 23.1498 1124.03 22.2832C1131.22 19.8596 1135.86 14.7203 1139.79 10.3623C1144.56 5.09086 1148.33 0.900572 1156.08 0.742188H1156.99C1159.05 0.784206 1160.82 1.11248 1162.41 1.66797V1.59668C1164.94 2.44198 1167 3.86176 1168.95 5.63965C1168.97 5.65694 1168.99 5.67405 1169 5.69141C1169.18 5.84799 1169.35 6.00701 1169.51 6.16895C1170.84 7.42951 1172.13 8.8492 1173.49 10.3623C1174.96 11.9922 1176.53 13.7308 1178.29 15.3965C1182.88 19.7172 1188.78 23.5484 1197.71 23.6777C1197.86 23.6797 1198 23.6816 1198.15 23.6816C1198.16 23.6816 1198.17 23.6807 1198.18 23.6807L1198.19 23.665C1201.53 23.665 1204.46 23.1498 1207.05 22.2832C1214.24 19.8596 1218.88 14.7203 1222.81 10.3623C1227.57 5.09086 1231.35 0.900572 1239.1 0.742188H1240.01C1242.07 0.784206 1243.84 1.11248 1245.43 1.66797V1.59668C1247.96 2.44198 1250.02 3.86176 1251.96 5.63965C1251.98 5.65694 1252 5.67405 1252.02 5.69141C1252.19 5.84799 1252.36 6.00701 1252.53 6.16895C1253.86 7.42951 1255.14 8.8492 1256.51 10.3623C1257.98 11.9922 1259.55 13.7308 1261.31 15.3965C1265.9 19.7172 1271.8 23.5484 1280.73 23.6777C1280.87 23.6797 1281.02 23.6816 1281.17 23.6816C1281.18 23.6816 1281.19 23.6807 1281.19 23.6807L1281.21 23.665C1284.55 23.665 1287.47 23.1498 1290.07 22.2832C1297.26 19.8596 1301.89 14.7203 1305.83 10.3623C1310.59 5.09086 1314.37 0.900572 1322.11 0.742188H1323.03C1325.08 0.784206 1326.86 1.11248 1328.45 1.66797V1.59668C1330.98 2.44198 1333.04 3.86176 1334.98 5.63965C1335 5.65694 1335.02 5.67405 1335.04 5.69141C1335.21 5.84799 1335.38 6.00701 1335.55 6.16895C1336.87 7.42951 1338.16 8.8492 1339.53 10.3623C1341 11.9922 1342.56 13.7308 1344.33 15.3965C1348.91 19.7172 1354.82 23.5484 1363.74 23.6777C1363.89 23.6797 1364.04 23.6816 1364.19 23.6816C1364.19 23.6816 1364.2 23.6807 1364.21 23.6807L1364.23 23.665C1367.57 23.665 1370.49 23.1498 1373.08 22.2832C1380.27 19.8596 1384.91 14.7203 1388.84 10.3623C1393.61 5.09086 1397.38 0.900572 1405.13 0.742188H1406.04C1408.1 0.784206 1409.88 1.11248 1411.47 1.66797V1.59668C1414 2.44198 1416.05 3.86176 1418 5.63965C1418.02 5.65694 1418.04 5.67405 1418.06 5.69141C1418.23 5.84799 1418.4 6.00701 1418.57 6.16895C1419.89 7.42951 1421.18 8.8492 1422.55 10.3623C1424.01 11.9922 1425.58 13.7308 1427.34 15.3965C1431.93 19.7172 1437.84 23.5484 1446.76 23.6777C1446.91 23.6797 1447.06 23.6816 1447.2 23.6816C1447.21 23.6816 1447.22 23.6807 1447.23 23.6807L1447.24 23.665C1450.58 23.665 1453.51 23.1498 1456.1 22.2832C1463.29 19.8596 1467.93 14.7203 1471.86 10.3623C1476.63 5.09086 1480.4 0.900572 1488.15 0.742188H1489.06C1491.12 0.784206 1492.89 1.11248 1494.48 1.66797V1.59668C1497.02 2.44198 1499.07 3.86176 1501.02 5.63965C1501.04 5.65694 1501.06 5.67405 1501.08 5.69141C1501.25 5.84799 1501.42 6.00701 1501.58 6.16895C1502.91 7.42951 1504.2 8.8492 1505.56 10.3623C1507.03 11.9922 1508.6 13.7308 1510.36 15.3965C1514.95 19.7172 1520.86 23.5484 1529.78 23.6777C1529.93 23.6797 1530.07 23.6816 1530.22 23.6816C1530.23 23.6816 1530.24 23.6807 1530.25 23.6807L1530.26 23.665C1533.6 23.665 1536.53 23.1498 1539.12 22.2832C1546.31 19.8596 1550.95 14.7203 1554.88 10.3623C1559.64 5.09086 1563.42 0.900572 1571.17 0.742188H1572.08C1574.14 0.784206 1575.91 1.11248 1577.5 1.66797V1.59668C1580.03 2.44198 1582.09 3.86176 1584.04 5.63965C1584.05 5.65694 1584.07 5.67405 1584.09 5.69141C1584.26 5.84799 1584.43 6.00701 1584.6 6.16895C1585.93 7.42951 1587.21 8.8492 1588.58 10.3623C1590.05 11.9922 1591.62 13.7308 1593.38 15.3965C1597.97 19.7172 1603.87 23.5484 1612.8 23.6777C1612.94 23.6797 1613.09 23.6816 1613.24 23.6816C1613.25 23.6816 1613.26 23.6807 1613.26 23.6807L1613.28 23.665C1616.62 23.665 1619.54 23.1498 1622.14 22.2832C1629.33 19.8596 1633.96 14.7203 1637.9 10.3623C1642.66 5.09086 1646.44 0.900572 1654.18 0.742188H1655.1C1657.15 0.784206 1658.93 1.11248 1660.52 1.66797V1.59668C1663.05 2.44198 1665.11 3.86176 1667.05 5.63965C1667.07 5.65694 1667.09 5.67405 1667.11 5.69141C1667.28 5.84799 1667.45 6.00701 1667.62 6.16895C1668.94 7.42951 1670.23 8.8492 1671.6 10.3623C1673.07 11.9922 1674.63 13.7308 1676.4 15.3965C1680.98 19.7172 1686.89 23.5484 1695.81 23.6777C1695.96 23.6797 1696.11 23.6816 1696.26 23.6816C1696.27 23.6816 1696.27 23.6807 1696.28 23.6807L1696.3 23.665C1699.64 23.665 1702.56 23.1498 1705.15 22.2832C1712.35 19.8596 1716.98 14.7203 1720.92 10.3623C1725.68 5.09086 1729.45 0.900572 1737.2 0.742188H1738.12C1740.17 0.784206 1741.95 1.11248 1743.54 1.66797V1.59668C1746.07 2.44198 1748.13 3.86176 1750.07 5.63965C1750.09 5.65694 1750.11 5.67405 1750.13 5.69141C1750.3 5.84799 1750.47 6.00701 1750.64 6.16895C1751.96 7.42951 1753.25 8.8492 1754.62 10.3623C1756.08 11.9922 1757.65 13.7308 1759.41 15.3965C1764 19.7172 1769.91 23.5484 1778.83 23.6777C1778.98 23.6797 1779.13 23.6816 1779.27 23.6816C1779.28 23.6816 1779.29 23.6807 1779.3 23.6807L1779.31 23.665C1782.65 23.665 1785.58 23.1498 1788.17 22.2832C1795.36 19.8596 1800 14.7203 1803.93 10.3623C1808.7 5.09086 1812.47 0.900572 1820.22 0.742188H1821.13C1823.19 0.784206 1824.96 1.11248 1826.55 1.66797V1.59668C1829.09 2.44198 1831.14 3.86176 1833.09 5.63965C1833.11 5.65694 1833.13 5.67405 1833.15 5.69141C1833.32 5.84799 1833.49 6.00701 1833.66 6.16895C1834.98 7.42951 1836.27 8.8492 1837.63 10.3623C1839.1 11.9922 1840.67 13.7308 1842.43 15.3965C1847.02 19.7172 1852.93 23.5484 1861.85 23.6777C1862 23.6797 1862.14 23.6816 1862.29 23.6816C1862.3 23.6816 1862.31 23.6807 1862.32 23.6807L1862.33 23.665C1865.67 23.665 1868.6 23.1498 1871.19 22.2832C1878.38 19.8596 1883.02 14.7203 1886.95 10.3623C1891.71 5.09086 1895.49 0.900572 1903.24 0.742188H1904.15C1906.21 0.784206 1907.98 1.11248 1909.57 1.66797V1.59668C1912.1 2.44198 1914.16 3.86176 1916.11 5.63965C1916.12 5.65694 1916.14 5.67405 1916.16 5.69141C1916.33 5.84799 1916.5 6.00701 1916.67 6.16895C1918 7.42951 1919.29 8.8492 1920.65 10.3623C1922.12 11.9922 1923.69 13.7308 1925.45 15.3965C1930.04 19.7172 1935.94 23.5484 1944.87 23.6777C1945.01 23.6797 1945.16 23.6816 1945.31 23.6816C1945.32 23.6816 1945.33 23.6807 1945.33 23.6807L1945.35 23.665C1948.69 23.665 1951.61 23.1498 1954.21 22.2832C1961.4 19.8596 1966.03 14.7203 1969.97 10.3623C1974.73 5.09086 1978.51 0.900572 1986.25 0.742188H1987.17C1989.22 0.784206 1991 1.11248 1992.59 1.66797V1.59668C1995.12 2.44198 1997.18 3.86176 1999.12 5.63965C1999.14 5.65694 1999.16 5.67405 1999.18 5.69141C1999.35 5.84799 1999.52 6.00701 1999.69 6.16895C2001.01 7.42951 2002.3 8.8492 2003.67 10.3623C2005.14 11.9922 2006.7 13.7308 2008.47 15.3965C2013.05 19.7172 2018.96 23.5484 2027.88 23.6777C2028.03 23.6797 2028.18 23.6816 2028.33 23.6816C2028.34 23.6816 2028.34 23.6807 2028.35 23.6807L2028.37 23.665C2031.71 23.665 2034.63 23.1498 2037.22 22.2832C2044.42 19.8596 2049.05 14.7203 2052.99 10.3623C2057.75 5.09086 2061.52 0.900572 2069.27 0.742188H2070.19C2072.24 0.784206 2074.02 1.11248 2075.61 1.66797V1.59668C2078.14 2.44198 2080.2 3.86176 2082.14 5.63965C2082.16 5.65694 2082.18 5.67405 2082.2 5.69141C2082.37 5.84799 2082.54 6.00701 2082.71 6.16895C2084.03 7.42951 2085.32 8.8492 2086.69 10.3623C2088.15 11.9922 2089.72 13.7308 2091.48 15.3965C2096.07 19.7172 2101.98 23.5484 2110.9 23.6777C2111.05 23.6797 2111.2 23.6816 2111.34 23.6816C2111.35 23.6816 2111.36 23.6807 2111.37 23.6807L2111.38 23.665C2114.72 23.665 2117.65 23.1498 2120.24 22.2832C2127.43 19.8596 2132.07 14.7203 2136 10.3623C2140.77 5.09086 2144.54 0.900572 2152.29 0.742188H2153.2C2155.26 0.784206 2157.04 1.11248 2158.62 1.66797V1.59668C2161.16 2.44198 2163.21 3.86176 2165.16 5.63965C2165.18 5.65694 2165.2 5.67405 2165.22 5.69141C2165.39 5.84799 2165.56 6.00701 2165.73 6.16895C2167.05 7.42951 2168.34 8.8492 2169.7 10.3623C2171.17 11.9922 2172.74 13.7308 2174.5 15.3965C2179.09 19.7172 2185 23.5484 2193.92 23.6777C2194.07 23.6797 2194.21 23.6816 2194.36 23.6816C2194.37 23.6816 2194.38 23.6807 2194.39 23.6807L2194.4 23.665C2197.74 23.665 2200.67 23.1498 2203.26 22.2832C2210.45 19.8596 2215.09 14.7203 2219.02 10.3623C2223.78 5.09086 2227.56 0.900572 2235.31 0.742188H2236.22C2238.28 0.784206 2240.05 1.11248 2241.64 1.66797V1.59668C2244.17 2.44198 2246.23 3.86176 2248.18 5.63965C2248.19 5.65694 2248.21 5.67405 2248.23 5.69141C2248.4 5.84799 2248.57 6.00701 2248.74 6.16895C2250.07 7.42951 2251.36 8.8492 2252.72 10.3623C2254.19 11.9922 2255.76 13.7308 2257.52 15.3965C2262.11 19.7172 2268.01 23.5484 2276.94 23.6777C2277.08 23.6797 2277.23 23.6816 2277.38 23.6816C2277.39 23.6816 2277.4 23.6807 2277.41 23.6807L2277.42 23.665C2280.76 23.665 2283.68 23.1498 2286.28 22.2832C2293.47 19.8596 2298.1 14.7203 2302.04 10.3623C2306.8 5.09086 2310.58 0.900572 2318.32 0.742188H2319.24C2321.3 0.784206 2323.07 1.11248 2324.66 1.66797V1.59668C2327.19 2.44198 2329.25 3.86176 2331.19 5.63965C2331.21 5.65694 2331.23 5.67405 2331.25 5.69141C2331.42 5.84799 2331.59 6.00701 2331.76 6.16895C2333.08 7.42951 2334.37 8.8492 2335.74 10.3623C2337.21 11.9922 2338.77 13.7308 2340.54 15.3965C2345.12 19.7172 2351.03 23.5484 2359.96 23.6777C2360.1 23.6797 2360.25 23.6816 2360.4 23.6816C2360.41 23.6816 2360.41 23.6807 2360.42 23.6807L2360.44 23.665C2363.78 23.665 2366.7 23.1498 2369.29 22.2832C2376.49 19.8596 2381.12 14.7203 2385.06 10.3623C2389.82 5.09086 2393.6 0.900572 2401.34 0.742188H2402.26C2404.31 0.784206 2406.09 1.11248 2407.68 1.66797V1.59668C2410.21 2.44198 2412.27 3.86176 2414.21 5.63965C2414.23 5.65694 2414.25 5.67405 2414.27 5.69141C2414.44 5.84799 2414.61 6.00701 2414.78 6.16895C2416.1 7.42951 2417.39 8.8492 2418.76 10.3623C2420.22 11.9922 2421.79 13.7308 2423.55 15.3965C2428.14 19.7172 2434.05 23.5484 2442.97 23.6777C2443.12 23.6797 2443.27 23.6816 2443.42 23.6816C2443.42 23.6816 2443.43 23.6807 2443.44 23.6807L2443.45 23.665C2446.8 23.665 2449.72 23.1498 2452.31 22.2832C2459.5 19.8596 2464.14 14.7203 2468.07 10.3623C2472.84 5.09086 2476.61 0.900572 2484.36 0.742188H2485.27C2487.33 0.784206 2489.11 1.11248 2490.7 1.66797V1.59668C2493.23 2.44198 2495.28 3.86176 2497.23 5.63965C2497.25 5.65694 2497.27 5.67405 2497.29 5.69141C2497.46 5.84799 2497.63 6.00701 2497.8 6.16895C2499.12 7.42951 2500.41 8.8492 2501.77 10.3623C2503.24 11.9922 2504.81 13.7308 2506.57 15.3965C2511.16 19.7172 2517.07 23.5484 2525.99 23.6777C2526.14 23.6797 2526.28 23.6816 2526.43 23.6816C2526.44 23.6816 2526.45 23.6807 2526.46 23.6807L2526.47 23.665C2529.81 23.665 2532.74 23.1498 2535.33 22.2832C2542.52 19.8596 2547.16 14.7203 2551.09 10.3623C2555.86 5.09086 2559.63 0.900572 2567.38 0.742188H2568.29C2570.35 0.784206 2572.12 1.11248 2573.71 1.66797V1.59668C2576.24 2.44198 2578.3 3.86176 2580.25 5.63965C2580.27 5.65694 2580.28 5.67405 2580.3 5.69141C2580.47 5.84799 2580.64 6.00701 2580.81 6.16895C2582.14 7.42951 2583.43 8.8492 2584.79 10.3623C2586.26 11.9922 2587.83 13.7308 2589.59 15.3965C2594.18 19.7172 2600.08 23.5484 2609.01 23.6777C2609.15 23.6797 2609.3 23.6816 2609.45 23.6816C2609.46 23.6816 2609.47 23.6807 2609.48 23.6807L2609.49 23.665C2612.83 23.665 2615.75 23.1498 2618.35 22.2832C2625.54 19.8596 2630.17 14.7203 2634.11 10.3623C2638.87 5.09086 2642.65 0.900572 2650.39 0.742188H2651.31C2653.48 0.78658 2655.34 1.14761 2657 1.76172V73.4326C2655.12 73.0238 2653.08 72.7949 2650.85 72.7949C2648.83 72.7949 2646.97 72.9835 2645.23 73.3242V73.4043C2636.19 75.2342 2630.75 81.1519 2626.26 86.0977C2621.4 91.4886 2617.56 95.7421 2609.49 95.7422C2609.48 95.7422 2609.48 95.7412 2609.47 95.7412C2609.46 95.7412 2609.46 95.7422 2609.45 95.7422C2601.39 95.7422 2597.56 91.4884 2592.71 86.1143C2588.25 81.1521 2582.81 75.2507 2573.76 73.4209V73.3877C2571.94 73.0081 2569.97 72.7949 2567.83 72.7949C2565.81 72.7949 2563.95 72.9835 2562.22 73.3242V73.4043C2553.17 75.2342 2547.73 81.1519 2543.24 86.0977C2538.39 91.4886 2534.54 95.7421 2526.47 95.7422C2526.46 95.7422 2526.46 95.7412 2526.45 95.7412C2526.44 95.7412 2526.44 95.7422 2526.43 95.7422C2518.38 95.7422 2514.55 91.4884 2509.69 86.1143C2505.23 81.1521 2499.79 75.2507 2490.75 73.4209V73.3877C2488.93 73.0081 2486.96 72.7949 2484.82 72.7949C2482.8 72.7949 2480.93 72.9835 2479.2 73.3242V73.4043C2470.15 75.2342 2464.71 81.1519 2460.23 86.0977C2455.37 91.4886 2451.53 95.7421 2443.45 95.7422C2443.45 95.7422 2443.44 95.7412 2443.43 95.7412C2443.43 95.7412 2443.42 95.7422 2443.42 95.7422C2435.36 95.7422 2431.53 91.4884 2426.67 86.1143C2422.21 81.1521 2416.77 75.2507 2407.73 73.4209V73.3877C2405.91 73.0081 2403.94 72.7949 2401.8 72.7949C2399.78 72.7949 2397.91 72.9835 2396.18 73.3242V73.4043C2387.14 75.2342 2381.69 81.1519 2377.21 86.0977C2372.35 91.4886 2368.51 95.7421 2360.44 95.7422C2360.43 95.7422 2360.42 95.7412 2360.42 95.7412C2360.41 95.7412 2360.4 95.7422 2360.4 95.7422C2352.34 95.7422 2348.51 91.4884 2343.65 86.1143C2339.2 81.1521 2333.75 75.2507 2324.71 73.4209V73.3877C2322.89 73.0081 2320.92 72.7949 2318.78 72.7949C2316.76 72.7949 2314.9 72.9835 2313.16 73.3242V73.4043C2304.12 75.2342 2298.68 81.1519 2294.19 86.0977C2289.33 91.4886 2285.49 95.7421 2277.42 95.7422C2277.41 95.7422 2277.41 95.7412 2277.4 95.7412C2277.39 95.7412 2277.39 95.7422 2277.38 95.7422C2269.32 95.7422 2265.49 91.4884 2260.64 86.1143C2256.18 81.1521 2250.74 75.2507 2241.69 73.4209V73.3877C2239.87 73.0081 2237.9 72.7949 2235.76 72.7949C2233.74 72.7949 2231.88 72.9835 2230.15 73.3242V73.4043C2221.1 75.2342 2215.66 81.1519 2211.17 86.0977C2206.32 91.4886 2202.47 95.7421 2194.4 95.7422C2194.39 95.7422 2194.39 95.7412 2194.38 95.7412C2194.37 95.7412 2194.37 95.7422 2194.36 95.7422C2186.3 95.7422 2182.48 91.4884 2177.62 86.1143C2173.16 81.1521 2167.72 75.2507 2158.67 73.4209V73.3877C2156.85 73.0081 2154.89 72.7949 2152.75 72.7949C2150.73 72.7949 2148.86 72.9835 2147.13 73.3242V73.4043C2138.08 75.2342 2132.64 81.1519 2128.16 86.0977C2123.3 91.4886 2119.46 95.7421 2111.38 95.7422C2111.38 95.7422 2111.37 95.7412 2111.36 95.7412C2111.36 95.7412 2111.35 95.7422 2111.34 95.7422C2103.29 95.7422 2099.46 91.4884 2094.6 86.1143C2090.14 81.1521 2084.7 75.2507 2075.66 73.4209V73.3877C2073.84 73.0081 2071.87 72.7949 2069.73 72.7949C2067.71 72.7949 2065.84 72.9835 2064.11 73.3242V73.4043C2055.07 75.2342 2049.62 81.1519 2045.14 86.0977C2040.28 91.4886 2036.44 95.7421 2028.37 95.7422C2028.36 95.7422 2028.35 95.7412 2028.35 95.7412C2028.34 95.7412 2028.33 95.7422 2028.33 95.7422C2020.27 95.7422 2016.44 91.4884 2011.58 86.1143C2007.13 81.1521 2001.68 75.2507 1992.64 73.4209V73.3877C1990.82 73.0081 1988.85 72.7949 1986.71 72.7949C1984.69 72.7949 1982.83 72.9835 1981.09 73.3242V73.4043C1972.05 75.2342 1966.61 81.1519 1962.12 86.0977C1957.26 91.4886 1953.42 95.7421 1945.35 95.7422C1945.34 95.7422 1945.33 95.7412 1945.33 95.7412C1945.32 95.7412 1945.32 95.7422 1945.31 95.7422C1937.25 95.7422 1933.42 91.4884 1928.57 86.1143C1924.11 81.1521 1918.67 75.2507 1909.62 73.4209V73.3877C1907.8 73.0081 1905.83 72.7949 1903.69 72.7949C1901.67 72.7949 1899.81 72.9835 1898.08 73.3242V73.4043C1889.03 75.2342 1883.59 81.1519 1879.1 86.0977C1874.25 91.4886 1870.4 95.7421 1862.33 95.7422C1862.32 95.7422 1862.32 95.7412 1862.31 95.7412C1862.3 95.7412 1862.3 95.7422 1862.29 95.7422C1854.23 95.7422 1850.41 91.4884 1845.55 86.1143C1841.09 81.1521 1835.65 75.2507 1826.6 73.4209V73.3877C1824.78 73.0081 1822.82 72.7949 1820.68 72.7949C1818.66 72.7949 1816.79 72.9835 1815.06 73.3242V73.4043C1806.01 75.2342 1800.57 81.1519 1796.08 86.0977C1791.23 91.4886 1787.38 95.7421 1779.31 95.7422C1779.31 95.7422 1779.3 95.7412 1779.29 95.7412C1779.29 95.7412 1779.28 95.7422 1779.27 95.7422C1771.22 95.7422 1767.39 91.4884 1762.53 86.1143C1758.07 81.1521 1752.63 75.2507 1743.59 73.4209V73.3877C1741.77 73.0081 1739.8 72.7949 1737.66 72.7949C1735.64 72.7949 1733.77 72.9835 1732.04 73.3242V73.4043C1723 75.2342 1717.55 81.1519 1713.07 86.0977C1708.21 91.4886 1704.37 95.7421 1696.3 95.7422C1696.29 95.7422 1696.28 95.7412 1696.28 95.7412C1696.27 95.7412 1696.26 95.7422 1696.26 95.7422C1688.2 95.7422 1684.37 91.4884 1679.51 86.1143C1675.06 81.1521 1669.61 75.2507 1660.57 73.4209V73.3877C1658.75 73.0081 1656.78 72.7949 1654.64 72.7949C1652.62 72.7949 1650.76 72.9835 1649.02 73.3242V73.4043C1639.98 75.2342 1634.54 81.1519 1630.05 86.0977C1625.19 91.4886 1621.35 95.7421 1613.28 95.7422C1613.27 95.7422 1613.26 95.7412 1613.26 95.7412C1613.25 95.7412 1613.25 95.7422 1613.24 95.7422C1605.18 95.7422 1601.35 91.4884 1596.5 86.1143C1592.04 81.1521 1586.59 75.2507 1577.55 73.4209V73.3877C1575.73 73.0081 1573.76 72.7949 1571.62 72.7949C1569.6 72.7949 1567.74 72.9835 1566 73.3242V73.4043C1556.96 75.2342 1551.52 81.1519 1547.03 86.0977C1542.18 91.4886 1538.33 95.7421 1530.26 95.7422C1530.25 95.7422 1530.25 95.7412 1530.24 95.7412C1530.23 95.7412 1530.23 95.7422 1530.22 95.7422C1522.16 95.7422 1518.33 91.4884 1513.48 86.1143C1509.02 81.1521 1503.58 75.2507 1494.53 73.4209V73.3877C1492.71 73.0081 1490.75 72.7949 1488.61 72.7949C1486.59 72.7949 1484.72 72.9835 1482.99 73.3242V73.4043C1473.94 75.2342 1468.5 81.1519 1464.01 86.0977C1459.16 91.4886 1455.31 95.7421 1447.24 95.7422C1447.24 95.7422 1447.23 95.7412 1447.22 95.7412C1447.22 95.7412 1447.21 95.7422 1447.2 95.7422C1439.15 95.7422 1435.32 91.4884 1430.46 86.1143C1426 81.1521 1420.56 75.2507 1411.52 73.4209V73.3877C1409.7 73.0081 1407.73 72.7949 1405.59 72.7949C1403.57 72.7949 1401.7 72.9835 1399.97 73.3242V73.4043C1390.93 75.2342 1385.48 81.1519 1381 86.0977C1376.14 91.4886 1372.3 95.7421 1364.23 95.7422C1364.22 95.7422 1364.21 95.7412 1364.21 95.7412C1364.2 95.7412 1364.19 95.7422 1364.19 95.7422C1356.13 95.7422 1352.3 91.4884 1347.44 86.1143C1342.98 81.1521 1337.54 75.2507 1328.5 73.4209V73.3877C1326.68 73.0081 1324.71 72.7949 1322.57 72.7949C1320.55 72.7949 1318.68 72.9835 1316.95 73.3242V73.4043C1307.91 75.2342 1302.47 81.1519 1297.98 86.0977C1293.12 91.4886 1289.28 95.7421 1281.21 95.7422C1281.2 95.7422 1281.19 95.7412 1281.19 95.7412C1281.18 95.7412 1281.18 95.7422 1281.17 95.7422C1273.11 95.7422 1269.28 91.4884 1264.42 86.1143C1259.97 81.1521 1254.52 75.2507 1245.48 73.4209V73.3877C1243.66 73.0081 1241.69 72.7949 1239.55 72.7949C1237.53 72.7949 1235.67 72.9835 1233.93 73.3242V73.4043C1224.89 75.2342 1219.45 81.1519 1214.96 86.0977C1210.1 91.4886 1206.26 95.7421 1198.19 95.7422C1198.18 95.7422 1198.18 95.7412 1198.17 95.7412C1198.16 95.7412 1198.16 95.7422 1198.15 95.7422C1190.09 95.7422 1186.26 91.4884 1181.41 86.1143C1176.95 81.1521 1171.51 75.2507 1162.46 73.4209V73.3877C1160.64 73.0081 1158.68 72.7949 1156.54 72.7949C1154.52 72.7949 1152.65 72.9835 1150.92 73.3242V73.4043C1141.87 75.2342 1136.43 81.1519 1131.94 86.0977C1127.09 91.4886 1123.24 95.7421 1115.17 95.7422C1115.17 95.7422 1115.16 95.7412 1115.15 95.7412C1115.15 95.7412 1115.14 95.7422 1115.13 95.7422C1107.08 95.7422 1103.25 91.4884 1098.39 86.1143C1093.93 81.1521 1088.49 75.2507 1079.45 73.4209V73.3877C1077.63 73.0081 1075.66 72.7949 1073.52 72.7949C1071.5 72.7949 1069.63 72.9835 1067.9 73.3242V73.4043C1058.86 75.2342 1053.41 81.1519 1048.93 86.0977C1044.07 91.4886 1040.23 95.7421 1032.16 95.7422C1032.15 95.7422 1032.14 95.7412 1032.13 95.7412C1032.13 95.7412 1032.12 95.7422 1032.12 95.7422C1024.06 95.7422 1020.23 91.4884 1015.37 86.1143C1010.91 81.1521 1005.47 75.2507 996.429 73.4209V73.3877C994.609 73.0081 992.64 72.7949 990.5 72.7949C988.481 72.7949 986.615 72.9835 984.882 73.3242V73.4043C975.839 75.2342 970.395 81.1519 965.909 86.0977C961.052 91.4886 957.209 95.7421 949.138 95.7422C949.131 95.7422 949.124 95.7412 949.117 95.7412C949.111 95.7412 949.105 95.7422 949.099 95.7422C941.041 95.7422 937.212 91.4884 932.354 86.1143C927.897 81.1521 922.454 75.2507 913.411 73.4209V73.3877C911.591 73.0081 909.623 72.7949 907.482 72.7949C905.463 72.7949 903.597 72.9835 901.864 73.3242V73.4043C892.821 75.2342 887.378 81.1519 882.892 86.0977C878.034 91.4886 874.192 95.7421 866.12 95.7422C866.113 95.7422 866.106 95.7412 866.1 95.7412C866.093 95.7412 866.087 95.7422 866.081 95.7422C858.024 95.7422 854.194 91.4884 849.337 86.1143C844.879 81.1521 839.437 75.2507 830.394 73.4209V73.3877C828.574 73.0081 826.605 72.7949 824.465 72.7949C822.446 72.7949 820.58 72.9835 818.847 73.3242V73.4043C809.803 75.2342 804.36 81.1519 799.874 86.0977C795.017 91.4886 791.174 95.7421 783.103 95.7422C783.096 95.7422 783.089 95.7412 783.082 95.7412C783.076 95.7412 783.07 95.7422 783.063 95.7422C775.006 95.7422 771.177 91.4884 766.319 86.1143C761.862 81.1521 756.419 75.2507 747.376 73.4209V73.3877C745.556 73.0081 743.588 72.7949 741.447 72.7949C739.428 72.7949 737.562 72.9835 735.829 73.3242V73.4043C726.786 75.2342 721.342 81.1519 716.856 86.0977C711.999 91.4886 708.156 95.7421 700.085 95.7422C700.078 95.7422 700.071 95.7412 700.064 95.7412C700.058 95.7412 700.052 95.7422 700.046 95.7422C691.988 95.7422 688.159 91.4884 683.302 86.1143C678.844 81.1521 673.402 75.2507 664.358 73.4209V73.3877C662.538 73.0081 660.57 72.7949 658.43 72.7949C656.411 72.7949 654.544 72.9835 652.812 73.3242V73.4043C643.768 75.2342 638.325 81.1519 633.839 86.0977C628.982 91.4886 625.139 95.7421 617.067 95.7422C617.061 95.7422 617.054 95.7412 617.047 95.7412C617.041 95.7412 617.035 95.7422 617.028 95.7422C608.971 95.7422 605.141 91.4884 600.284 86.1143C595.827 81.1521 590.384 75.2507 581.341 73.4209V73.3877C579.521 73.0081 577.552 72.7949 575.412 72.7949C573.393 72.7949 571.527 72.9835 569.794 73.3242V73.4043C560.751 75.2342 555.307 81.1519 550.821 86.0977C545.964 91.4886 542.121 95.7421 534.05 95.7422C534.043 95.7422 534.036 95.7412 534.029 95.7412C534.023 95.7412 534.017 95.7422 534.011 95.7422C525.953 95.7422 522.124 91.4884 517.267 86.1143C512.809 81.1521 507.366 75.2507 498.323 73.4209V73.3877C496.503 73.0081 494.535 72.7949 492.395 72.7949C490.375 72.7949 488.509 72.9835 486.776 73.3242V73.4043C477.733 75.2342 472.29 81.1519 467.804 86.0977C462.947 91.4886 459.104 95.7421 451.032 95.7422C451.025 95.7422 451.018 95.7412 451.012 95.7412C451.006 95.7412 450.999 95.7422 450.993 95.7422C442.936 95.7422 439.106 91.4884 434.249 86.1143C429.792 81.1521 424.349 75.2507 415.306 73.4209V73.3877C413.486 73.0081 411.517 72.7949 409.377 72.7949C407.358 72.7949 405.492 72.9835 403.759 73.3242V73.4043C394.715 75.2342 389.272 81.1519 384.786 86.0977C379.929 91.4886 376.086 95.7421 368.015 95.7422C368.008 95.7422 368.001 95.7412 367.994 95.7412C367.988 95.7412 367.982 95.7422 367.976 95.7422C359.918 95.7422 356.089 91.4884 351.231 86.1143C346.774 81.1521 341.331 75.2507 332.288 73.4209V73.3877C330.468 73.0081 328.5 72.7949 326.359 72.7949C324.34 72.7949 322.474 72.9835 320.741 73.3242V73.4043C311.698 75.2342 306.255 81.1519 301.769 86.0977C296.911 91.4886 293.069 95.7421 284.997 95.7422C284.99 95.7422 284.983 95.7412 284.977 95.7412C284.97 95.7412 284.964 95.7422 284.958 95.7422C276.901 95.7422 273.071 91.4884 268.214 86.1143C263.756 81.1521 258.314 75.2507 249.271 73.4209V73.3877C247.451 73.0081 245.482 72.7949 243.342 72.7949C241.323 72.7949 239.456 72.9835 237.724 73.3242V73.4043C228.68 75.2342 223.237 81.1519 218.751 86.0977C213.894 91.4886 210.051 95.7421 201.979 95.7422C201.973 95.7422 201.966 95.7412 201.959 95.7412C201.953 95.7412 201.947 95.7422 201.94 95.7422C193.883 95.7422 190.054 91.4884 185.196 86.1143C180.739 81.1521 175.296 75.2507 166.253 73.4209V73.3877C164.433 73.0081 162.465 72.7949 160.324 72.7949C158.305 72.7949 156.439 72.9835 154.706 73.3242V73.4043C145.663 75.2342 140.219 81.1519 135.733 86.0977C130.876 91.4886 127.033 95.7421 118.962 95.7422C118.955 95.7422 118.948 95.7412 118.941 95.7412C118.935 95.7412 118.929 95.7422 118.923 95.7422C110.865 95.7422 107.036 91.4884 102.179 86.1143C97.7213 81.1521 92.2785 75.2507 83.2354 73.4209V73.3457C83.2188 73.3424 83.2022 73.3391 83.1855 73.3359V73.3125C81.4696 72.9798 79.623 72.7949 77.627 72.7949C75.6079 72.7949 73.7416 72.9835 72.0088 73.3242V73.4043C62.9655 75.2342 57.5222 81.1519 53.0361 86.0977C48.179 91.4886 44.3361 95.7421 36.2646 95.7422C36.2579 95.7422 36.2509 95.7412 36.2441 95.7412C36.238 95.7412 36.2318 95.7422 36.2256 95.7422C28.1682 95.7422 24.3387 91.4884 19.4814 86.1143C15.024 81.1521 9.58121 75.2507 0.538086 73.4209V73.3457C0.521508 73.3424 0.504901 73.3391 0.488281 73.3359V1.59668C3.01913 2.44198 5.07631 3.86176 7.02148 5.63965C7.04051 5.65694 7.06009 5.67405 7.0791 5.69141C7.24956 5.84799 7.41985 6.00701 7.58887 6.16895C8.91188 7.42951 10.201 8.8492 11.5674 10.3623C13.0349 11.9922 14.6024 13.7308 16.3652 15.3965C20.9519 19.7172 26.8592 23.5484 35.7832 23.6777C35.9298 23.6797 36.0774 23.6816 36.2256 23.6816C36.2341 23.6816 36.2425 23.6807 36.251 23.6807L36.2646 23.665C39.6056 23.665 42.5293 23.1498 45.1221 22.2832C52.3139 19.8596 56.9498 14.7203 60.8838 10.3623C65.6482 5.09086 69.4232 0.900572 77.1699 0.742188H78.084Z" fill="url(#paint0_linear_1306_61565)"/>
<path d="M78.084 50.4219C80.2571 50.4663 82.1168 50.8273 83.7744 51.4414V51.4873C86.0394 52.3482 87.9267 53.6814 89.7188 55.3193C89.7378 55.3366 89.7574 55.3537 89.7764 55.3711C89.9468 55.5277 90.1171 55.6867 90.2861 55.8486C91.6091 57.1092 92.8983 58.5289 94.2646 60.042C95.7322 61.6719 97.2996 63.4104 99.0625 65.0762C103.649 69.3969 109.556 73.2281 118.48 73.3574C118.627 73.3594 118.775 73.3613 118.923 73.3613C118.931 73.3613 118.94 73.3604 118.948 73.3604L118.962 73.3447C122.303 73.3447 125.227 72.8295 127.819 71.9629C135.011 69.5393 139.647 64.4 143.581 60.042C148.345 54.7705 152.12 50.5803 159.867 50.4219H160.781C162.838 50.4639 164.613 50.7922 166.203 51.3477V51.2764C168.734 52.1217 170.791 53.5414 172.736 55.3193C172.755 55.3366 172.775 55.3537 172.794 55.3711C172.964 55.5277 173.135 55.6867 173.304 55.8486C174.627 57.1092 175.916 58.5289 177.282 60.042C178.75 61.6719 180.317 63.4104 182.08 65.0762C186.667 69.3969 192.574 73.2281 201.498 73.3574C201.645 73.3594 201.792 73.3613 201.94 73.3613C201.949 73.3613 201.957 73.3604 201.966 73.3604L201.979 73.3447C205.32 73.3447 208.244 72.8295 210.837 71.9629C218.029 69.5393 222.665 64.4 226.599 60.042C231.363 54.7705 235.138 50.5803 242.885 50.4219H243.799C245.856 50.4639 247.631 50.7922 249.221 51.3477V51.2764C251.752 52.1217 253.809 53.5414 255.754 55.3193C255.773 55.3366 255.793 55.3537 255.812 55.3711C255.982 55.5277 256.152 55.6867 256.321 55.8486C257.644 57.1092 258.933 58.5289 260.3 60.042C261.767 61.6719 263.335 63.4104 265.098 65.0762C269.684 69.3969 275.592 73.2281 284.516 73.3574C284.662 73.3594 284.81 73.3613 284.958 73.3613C284.966 73.3613 284.975 73.3604 284.983 73.3604L284.997 73.3447C288.338 73.3447 291.262 72.8295 293.854 71.9629C301.046 69.5393 305.682 64.4 309.616 60.042C314.381 54.7705 318.156 50.5803 325.902 50.4219H326.816C328.873 50.4639 330.649 50.7922 332.238 51.3477V51.2764C334.769 52.1217 336.826 53.5414 338.771 55.3193C338.791 55.3366 338.81 55.3537 338.829 55.3711C339 55.5277 339.17 55.6867 339.339 55.8486C340.662 57.1092 341.951 58.5289 343.317 60.042C344.785 61.6719 346.352 63.4104 348.115 65.0762C352.702 69.3969 358.609 73.2281 367.533 73.3574C367.68 73.3594 367.827 73.3613 367.976 73.3613C367.984 73.3613 367.993 73.3604 368.001 73.3604L368.015 73.3447C371.356 73.3447 374.279 72.8295 376.872 71.9629C384.064 69.5393 388.7 64.4 392.634 60.042C397.398 54.7705 401.173 50.5803 408.92 50.4219H409.834C411.891 50.4639 413.666 50.7922 415.256 51.3477V51.2764C417.787 52.1217 419.844 53.5414 421.789 55.3193C421.808 55.3366 421.828 55.3537 421.847 55.3711C422.017 55.5277 422.187 55.6867 422.356 55.8486C423.679 57.1092 424.969 58.5289 426.335 60.042C427.802 61.6719 429.37 63.4104 431.133 65.0762C435.72 69.3969 441.627 73.2281 450.551 73.3574C450.697 73.3594 450.845 73.3613 450.993 73.3613C451.002 73.3613 451.01 73.3604 451.019 73.3604L451.032 73.3447C454.373 73.3447 457.297 72.8295 459.89 71.9629C467.081 69.5393 471.717 64.4 475.651 60.042C480.416 54.7705 484.191 50.5803 491.938 50.4219H492.852C494.908 50.4639 496.684 50.7922 498.273 51.3477V51.2764C500.804 52.1217 502.861 53.5414 504.807 55.3193C504.826 55.3366 504.845 55.3537 504.864 55.3711C505.035 55.5277 505.205 55.6867 505.374 55.8486C506.697 57.1092 507.986 58.5289 509.353 60.042C510.82 61.6719 512.388 63.4104 514.15 65.0762C518.737 69.3969 524.644 73.2281 533.568 73.3574C533.715 73.3594 533.863 73.3613 534.011 73.3613C534.019 73.3613 534.028 73.3604 534.036 73.3604L534.05 73.3447C537.391 73.3447 540.314 72.8295 542.907 71.9629C550.099 69.5393 554.735 64.4 558.669 60.042C563.433 54.7705 567.208 50.5803 574.955 50.4219H575.869C577.926 50.4639 579.701 50.7922 581.291 51.3477V51.2764C583.822 52.1217 585.879 53.5414 587.824 55.3193C587.843 55.3366 587.863 55.3537 587.882 55.3711C588.052 55.5277 588.223 55.6867 588.392 55.8486C589.715 57.1092 591.004 58.5289 592.37 60.042C593.838 61.6719 595.405 63.4104 597.168 65.0762C601.755 69.3969 607.662 73.2281 616.586 73.3574C616.733 73.3594 616.88 73.3613 617.028 73.3613C617.037 73.3613 617.045 73.3604 617.054 73.3604L617.067 73.3447C620.408 73.3447 623.332 72.8295 625.925 71.9629C633.117 69.5393 637.753 64.4 641.687 60.042C646.451 54.7705 650.226 50.5803 657.973 50.4219H658.887C660.944 50.4639 662.719 50.7922 664.309 51.3477V51.2764C666.839 52.1217 668.897 53.5414 670.842 55.3193C670.861 55.3366 670.88 55.3537 670.899 55.3711C671.07 55.5277 671.24 55.6867 671.409 55.8486C672.732 57.1092 674.021 58.5289 675.388 60.042C676.855 61.6719 678.423 63.4104 680.186 65.0762C684.772 69.3969 690.68 73.2281 699.604 73.3574C699.75 73.3594 699.898 73.3613 700.046 73.3613C700.054 73.3613 700.063 73.3604 700.071 73.3604L700.085 73.3447C703.426 73.3447 706.35 72.8295 708.942 71.9629C716.134 69.5393 720.77 64.4 724.704 60.042C729.469 54.7705 733.244 50.5803 740.99 50.4219H741.904C743.961 50.4639 745.736 50.7922 747.326 51.3477V51.2764C749.857 52.1217 751.914 53.5414 753.859 55.3193C753.878 55.3366 753.898 55.3537 753.917 55.3711C754.087 55.5277 754.258 55.6867 754.427 55.8486C755.75 57.1092 757.039 58.5289 758.405 60.042C759.873 61.6719 761.44 63.4104 763.203 65.0762C767.79 69.3969 773.697 73.2281 782.621 73.3574C782.768 73.3594 782.915 73.3613 783.063 73.3613C783.072 73.3613 783.08 73.3604 783.089 73.3604L783.103 73.3447C786.443 73.3447 789.367 72.8295 791.96 71.9629C799.152 69.5393 803.788 64.4 807.722 60.042C812.486 54.7705 816.261 50.5803 824.008 50.4219H824.922C826.979 50.4639 828.754 50.7922 830.344 51.3477V51.2764C832.875 52.1217 834.932 53.5414 836.877 55.3193C836.896 55.3366 836.916 55.3537 836.935 55.3711C837.105 55.5277 837.275 55.6867 837.444 55.8486C838.767 57.1092 840.057 58.5289 841.423 60.042C842.89 61.6719 844.458 63.4104 846.221 65.0762C850.807 69.3969 856.715 73.2281 865.639 73.3574C865.785 73.3594 865.933 73.3613 866.081 73.3613C866.09 73.3613 866.098 73.3604 866.106 73.3604L866.12 73.3447C869.461 73.3447 872.385 72.8295 874.978 71.9629C882.169 69.5393 886.805 64.4 890.739 60.042C895.504 54.7705 899.279 50.5803 907.025 50.4219H907.939C909.996 50.4639 911.772 50.7922 913.361 51.3477V51.2764C915.892 52.1217 917.949 53.5414 919.895 55.3193C919.914 55.3366 919.933 55.3537 919.952 55.3711C920.123 55.5277 920.293 55.6867 920.462 55.8486C921.785 57.1092 923.074 58.5289 924.44 60.042C925.908 61.6719 927.475 63.4104 929.238 65.0762C933.825 69.3969 939.732 73.2281 948.656 73.3574C948.803 73.3594 948.95 73.3613 949.099 73.3613C949.107 73.3613 949.116 73.3604 949.124 73.3604L949.138 73.3447C952.479 73.3447 955.402 72.8295 957.995 71.9629C965.187 69.5393 969.823 64.4 973.757 60.042C978.521 54.7705 982.296 50.5803 990.043 50.4219H990.957C993.014 50.4639 994.789 50.7922 996.379 51.3477V51.2764C998.91 52.1217 1000.97 53.5414 1002.91 55.3193C1002.93 55.3366 1002.95 55.3537 1002.97 55.3711C1003.14 55.5277 1003.31 55.6867 1003.48 55.8486C1004.8 57.1092 1006.09 58.5289 1007.46 60.042C1008.93 61.6719 1010.49 63.4104 1012.26 65.0762C1016.84 69.3969 1022.75 73.2281 1031.67 73.3574C1031.82 73.3594 1031.97 73.3613 1032.12 73.3613C1032.12 73.3613 1032.13 73.3604 1032.14 73.3604L1032.16 73.3447C1035.5 73.3447 1038.42 72.8295 1041.01 71.9629C1048.2 69.5393 1052.84 64.4 1056.77 60.042C1061.54 54.7705 1065.31 50.5803 1073.06 50.4219H1073.97C1076.03 50.4639 1077.81 50.7922 1079.4 51.3477V51.2764C1081.93 52.1217 1083.98 53.5414 1085.93 55.3193C1085.95 55.3366 1085.97 55.3537 1085.99 55.3711C1086.16 55.5277 1086.33 55.6867 1086.5 55.8486C1087.82 57.1092 1089.11 58.5289 1090.48 60.042C1091.94 61.6719 1093.51 63.4104 1095.27 65.0762C1099.86 69.3969 1105.77 73.2281 1114.69 73.3574C1114.84 73.3594 1114.99 73.3613 1115.13 73.3613C1115.14 73.3613 1115.15 73.3604 1115.16 73.3604L1115.17 73.3447C1118.51 73.3447 1121.44 72.8295 1124.03 71.9629C1131.22 69.5393 1135.86 64.4 1139.79 60.042C1144.56 54.7705 1148.33 50.5803 1156.08 50.4219H1156.99C1159.05 50.4639 1160.82 50.7922 1162.41 51.3477V51.2764C1164.94 52.1217 1167 53.5414 1168.95 55.3193C1168.97 55.3366 1168.99 55.3537 1169 55.3711C1169.18 55.5277 1169.35 55.6867 1169.51 55.8486C1170.84 57.1092 1172.13 58.5289 1173.49 60.042C1174.96 61.6719 1176.53 63.4104 1178.29 65.0762C1182.88 69.3969 1188.78 73.2281 1197.71 73.3574C1197.86 73.3594 1198 73.3613 1198.15 73.3613C1198.16 73.3613 1198.17 73.3604 1198.18 73.3604L1198.19 73.3447C1201.53 73.3447 1204.46 72.8295 1207.05 71.9629C1214.24 69.5393 1218.88 64.4 1222.81 60.042C1227.57 54.7705 1231.35 50.5803 1239.1 50.4219H1240.01C1242.07 50.4639 1243.84 50.7922 1245.43 51.3477V51.2764C1247.96 52.1217 1250.02 53.5414 1251.96 55.3193C1251.98 55.3366 1252 55.3537 1252.02 55.3711C1252.19 55.5277 1252.36 55.6867 1252.53 55.8486C1253.86 57.1092 1255.14 58.5289 1256.51 60.042C1257.98 61.6719 1259.55 63.4104 1261.31 65.0762C1265.9 69.3969 1271.8 73.2281 1280.73 73.3574C1280.87 73.3594 1281.02 73.3613 1281.17 73.3613C1281.18 73.3613 1281.19 73.3604 1281.19 73.3604L1281.21 73.3447C1284.55 73.3447 1287.47 72.8295 1290.07 71.9629C1297.26 69.5393 1301.89 64.4 1305.83 60.042C1310.59 54.7705 1314.37 50.5803 1322.11 50.4219H1323.03C1325.08 50.4639 1326.86 50.7922 1328.45 51.3477V51.2764C1330.98 52.1217 1333.04 53.5414 1334.98 55.3193C1335 55.3366 1335.02 55.3537 1335.04 55.3711C1335.21 55.5277 1335.38 55.6867 1335.55 55.8486C1336.87 57.1092 1338.16 58.5289 1339.53 60.042C1341 61.6719 1342.56 63.4104 1344.33 65.0762C1348.91 69.3969 1354.82 73.2281 1363.74 73.3574C1363.89 73.3594 1364.04 73.3613 1364.19 73.3613C1364.19 73.3613 1364.2 73.3604 1364.21 73.3604L1364.23 73.3447C1367.57 73.3447 1370.49 72.8295 1373.08 71.9629C1380.27 69.5393 1384.91 64.4 1388.84 60.042C1393.61 54.7705 1397.38 50.5803 1405.13 50.4219H1406.04C1408.1 50.4639 1409.88 50.7922 1411.47 51.3477V51.2764C1414 52.1217 1416.05 53.5414 1418 55.3193C1418.02 55.3366 1418.04 55.3537 1418.06 55.3711C1418.23 55.5277 1418.4 55.6867 1418.57 55.8486C1419.89 57.1092 1421.18 58.5289 1422.55 60.042C1424.01 61.6719 1425.58 63.4104 1427.34 65.0762C1431.93 69.3969 1437.84 73.2281 1446.76 73.3574C1446.91 73.3594 1447.06 73.3613 1447.2 73.3613C1447.21 73.3613 1447.22 73.3604 1447.23 73.3604L1447.24 73.3447C1450.58 73.3447 1453.51 72.8295 1456.1 71.9629C1463.29 69.5393 1467.93 64.4 1471.86 60.042C1476.63 54.7705 1480.4 50.5803 1488.15 50.4219H1489.06C1491.12 50.4639 1492.89 50.7922 1494.48 51.3477V51.2764C1497.02 52.1217 1499.07 53.5414 1501.02 55.3193C1501.04 55.3366 1501.06 55.3537 1501.08 55.3711C1501.25 55.5277 1501.42 55.6867 1501.58 55.8486C1502.91 57.1092 1504.2 58.5289 1505.56 60.042C1507.03 61.6719 1508.6 63.4104 1510.36 65.0762C1514.95 69.3969 1520.86 73.2281 1529.78 73.3574C1529.93 73.3594 1530.07 73.3613 1530.22 73.3613C1530.23 73.3613 1530.24 73.3604 1530.25 73.3604L1530.26 73.3447C1533.6 73.3447 1536.53 72.8295 1539.12 71.9629C1546.31 69.5393 1550.95 64.4 1554.88 60.042C1559.64 54.7705 1563.42 50.5803 1571.17 50.4219H1572.08C1574.14 50.4639 1575.91 50.7922 1577.5 51.3477V51.2764C1580.03 52.1217 1582.09 53.5414 1584.04 55.3193C1584.05 55.3366 1584.07 55.3537 1584.09 55.3711C1584.26 55.5277 1584.43 55.6867 1584.6 55.8486C1585.93 57.1092 1587.21 58.5289 1588.58 60.042C1590.05 61.6719 1591.62 63.4104 1593.38 65.0762C1597.97 69.3969 1603.87 73.2281 1612.8 73.3574C1612.94 73.3594 1613.09 73.3613 1613.24 73.3613C1613.25 73.3613 1613.26 73.3604 1613.26 73.3604L1613.28 73.3447C1616.62 73.3447 1619.54 72.8295 1622.14 71.9629C1629.33 69.5393 1633.96 64.4 1637.9 60.042C1642.66 54.7705 1646.44 50.5803 1654.18 50.4219H1655.1C1657.15 50.4639 1658.93 50.7922 1660.52 51.3477V51.2764C1663.05 52.1217 1665.11 53.5414 1667.05 55.3193C1667.07 55.3366 1667.09 55.3537 1667.11 55.3711C1667.28 55.5277 1667.45 55.6867 1667.62 55.8486C1668.94 57.1092 1670.23 58.5289 1671.6 60.042C1673.07 61.6719 1674.63 63.4104 1676.4 65.0762C1680.98 69.3969 1686.89 73.2281 1695.81 73.3574C1695.96 73.3594 1696.11 73.3613 1696.26 73.3613C1696.27 73.3613 1696.27 73.3604 1696.28 73.3604L1696.3 73.3447C1699.64 73.3447 1702.56 72.8295 1705.15 71.9629C1712.35 69.5393 1716.98 64.4 1720.92 60.042C1725.68 54.7705 1729.45 50.5803 1737.2 50.4219H1738.12C1740.17 50.4639 1741.95 50.7922 1743.54 51.3477V51.2764C1746.07 52.1217 1748.13 53.5414 1750.07 55.3193C1750.09 55.3366 1750.11 55.3537 1750.13 55.3711C1750.3 55.5277 1750.47 55.6867 1750.64 55.8486C1751.96 57.1092 1753.25 58.5289 1754.62 60.042C1756.08 61.6719 1757.65 63.4104 1759.41 65.0762C1764 69.3969 1769.91 73.2281 1778.83 73.3574C1778.98 73.3594 1779.13 73.3613 1779.27 73.3613C1779.28 73.3613 1779.29 73.3604 1779.3 73.3604L1779.31 73.3447C1782.65 73.3447 1785.58 72.8295 1788.17 71.9629C1795.36 69.5393 1800 64.4 1803.93 60.042C1808.7 54.7705 1812.47 50.5803 1820.22 50.4219H1821.13C1823.19 50.4639 1824.96 50.7922 1826.55 51.3477V51.2764C1829.09 52.1217 1831.14 53.5414 1833.09 55.3193C1833.11 55.3366 1833.13 55.3537 1833.15 55.3711C1833.32 55.5277 1833.49 55.6867 1833.66 55.8486C1834.98 57.1092 1836.27 58.5289 1837.63 60.042C1839.1 61.6719 1840.67 63.4104 1842.43 65.0762C1847.02 69.3969 1852.93 73.2281 1861.85 73.3574C1862 73.3594 1862.14 73.3613 1862.29 73.3613C1862.3 73.3613 1862.31 73.3604 1862.32 73.3604L1862.33 73.3447C1865.67 73.3447 1868.6 72.8295 1871.19 71.9629C1878.38 69.5393 1883.02 64.4 1886.95 60.042C1891.71 54.7705 1895.49 50.5803 1903.24 50.4219H1904.15C1906.21 50.4639 1907.98 50.7922 1909.57 51.3477V51.2764C1912.1 52.1217 1914.16 53.5414 1916.11 55.3193C1916.12 55.3366 1916.14 55.3537 1916.16 55.3711C1916.33 55.5277 1916.5 55.6867 1916.67 55.8486C1918 57.1092 1919.29 58.5289 1920.65 60.042C1922.12 61.6719 1923.69 63.4104 1925.45 65.0762C1930.04 69.3969 1935.94 73.2281 1944.87 73.3574C1945.01 73.3594 1945.16 73.3613 1945.31 73.3613C1945.32 73.3613 1945.33 73.3604 1945.33 73.3604L1945.35 73.3447C1948.69 73.3447 1951.61 72.8295 1954.21 71.9629C1961.4 69.5393 1966.03 64.4 1969.97 60.042C1974.73 54.7705 1978.51 50.5803 1986.25 50.4219H1987.17C1989.22 50.4639 1991 50.7922 1992.59 51.3477V51.2764C1995.12 52.1217 1997.18 53.5414 1999.12 55.3193C1999.14 55.3366 1999.16 55.3537 1999.18 55.3711C1999.35 55.5277 1999.52 55.6867 1999.69 55.8486C2001.01 57.1092 2002.3 58.5289 2003.67 60.042C2005.14 61.6719 2006.7 63.4104 2008.47 65.0762C2013.05 69.3969 2018.96 73.2281 2027.88 73.3574C2028.03 73.3594 2028.18 73.3613 2028.33 73.3613C2028.34 73.3613 2028.34 73.3604 2028.35 73.3604L2028.37 73.3447C2031.71 73.3447 2034.63 72.8295 2037.22 71.9629C2044.42 69.5393 2049.05 64.4 2052.99 60.042C2057.75 54.7705 2061.52 50.5803 2069.27 50.4219H2070.19C2072.24 50.4639 2074.02 50.7922 2075.61 51.3477V51.2764C2078.14 52.1217 2080.2 53.5414 2082.14 55.3193C2082.16 55.3366 2082.18 55.3537 2082.2 55.3711C2082.37 55.5277 2082.54 55.6867 2082.71 55.8486C2084.03 57.1092 2085.32 58.5289 2086.69 60.042C2088.15 61.6719 2089.72 63.4104 2091.48 65.0762C2096.07 69.3969 2101.98 73.2281 2110.9 73.3574C2111.05 73.3594 2111.2 73.3613 2111.34 73.3613C2111.35 73.3613 2111.36 73.3604 2111.37 73.3604L2111.38 73.3447C2114.72 73.3447 2117.65 72.8295 2120.24 71.9629C2127.43 69.5393 2132.07 64.4 2136 60.042C2140.77 54.7705 2144.54 50.5803 2152.29 50.4219H2153.2C2155.26 50.4639 2157.04 50.7922 2158.62 51.3477V51.2764C2161.16 52.1217 2163.21 53.5414 2165.16 55.3193C2165.18 55.3366 2165.2 55.3537 2165.22 55.3711C2165.39 55.5277 2165.56 55.6867 2165.73 55.8486C2167.05 57.1092 2168.34 58.5289 2169.7 60.042C2171.17 61.6719 2172.74 63.4104 2174.5 65.0762C2179.09 69.3969 2185 73.2281 2193.92 73.3574C2194.07 73.3594 2194.21 73.3613 2194.36 73.3613C2194.37 73.3613 2194.38 73.3604 2194.39 73.3604L2194.4 73.3447C2197.74 73.3447 2200.67 72.8295 2203.26 71.9629C2210.45 69.5393 2215.09 64.4 2219.02 60.042C2223.78 54.7705 2227.56 50.5803 2235.31 50.4219H2236.22C2238.28 50.4639 2240.05 50.7922 2241.64 51.3477V51.2764C2244.17 52.1217 2246.23 53.5414 2248.18 55.3193C2248.19 55.3366 2248.21 55.3537 2248.23 55.3711C2248.4 55.5277 2248.57 55.6867 2248.74 55.8486C2250.07 57.1092 2251.36 58.5289 2252.72 60.042C2254.19 61.6719 2255.76 63.4104 2257.52 65.0762C2262.11 69.3969 2268.01 73.2281 2276.94 73.3574C2277.08 73.3594 2277.23 73.3613 2277.38 73.3613C2277.39 73.3613 2277.4 73.3604 2277.41 73.3604L2277.42 73.3447C2280.76 73.3447 2283.68 72.8295 2286.28 71.9629C2293.47 69.5393 2298.1 64.4 2302.04 60.042C2306.8 54.7705 2310.58 50.5803 2318.32 50.4219H2319.24C2321.3 50.4639 2323.07 50.7922 2324.66 51.3477V51.2764C2327.19 52.1217 2329.25 53.5414 2331.19 55.3193C2331.21 55.3366 2331.23 55.3537 2331.25 55.3711C2331.42 55.5277 2331.59 55.6867 2331.76 55.8486C2333.08 57.1092 2334.37 58.5289 2335.74 60.042C2337.21 61.6719 2338.77 63.4104 2340.54 65.0762C2345.12 69.3969 2351.03 73.2281 2359.96 73.3574C2360.1 73.3594 2360.25 73.3613 2360.4 73.3613C2360.41 73.3613 2360.41 73.3604 2360.42 73.3604L2360.44 73.3447C2363.78 73.3447 2366.7 72.8295 2369.29 71.9629C2376.49 69.5393 2381.12 64.4 2385.06 60.042C2389.82 54.7705 2393.6 50.5803 2401.34 50.4219H2402.26C2404.31 50.4639 2406.09 50.7922 2407.68 51.3477V51.2764C2410.21 52.1217 2412.27 53.5414 2414.21 55.3193C2414.23 55.3366 2414.25 55.3537 2414.27 55.3711C2414.44 55.5277 2414.61 55.6867 2414.78 55.8486C2416.1 57.1092 2417.39 58.5289 2418.76 60.042C2420.22 61.6719 2421.79 63.4104 2423.55 65.0762C2428.14 69.3969 2434.05 73.2281 2442.97 73.3574C2443.12 73.3594 2443.27 73.3613 2443.42 73.3613C2443.42 73.3613 2443.43 73.3604 2443.44 73.3604L2443.45 73.3447C2446.8 73.3447 2449.72 72.8295 2452.31 71.9629C2459.5 69.5393 2464.14 64.4 2468.07 60.042C2472.84 54.7705 2476.61 50.5803 2484.36 50.4219H2485.27C2487.33 50.4639 2489.11 50.7922 2490.7 51.3477V51.2764C2493.23 52.1217 2495.28 53.5414 2497.23 55.3193C2497.25 55.3366 2497.27 55.3537 2497.29 55.3711C2497.46 55.5277 2497.63 55.6867 2497.8 55.8486C2499.12 57.1092 2500.41 58.5289 2501.77 60.042C2503.24 61.6719 2504.81 63.4104 2506.57 65.0762C2511.16 69.3969 2517.07 73.2281 2525.99 73.3574C2526.14 73.3594 2526.28 73.3613 2526.43 73.3613C2526.44 73.3613 2526.45 73.3604 2526.46 73.3604L2526.47 73.3447C2529.81 73.3447 2532.74 72.8295 2535.33 71.9629C2542.52 69.5393 2547.16 64.4 2551.09 60.042C2555.86 54.7705 2559.63 50.5803 2567.38 50.4219H2568.29C2570.35 50.4639 2572.12 50.7922 2573.71 51.3477V51.2764C2576.24 52.1217 2578.3 53.5414 2580.25 55.3193C2580.27 55.3366 2580.28 55.3537 2580.3 55.3711C2580.47 55.5277 2580.64 55.6867 2580.81 55.8486C2582.14 57.1092 2583.43 58.5289 2584.79 60.042C2586.26 61.6719 2587.83 63.4104 2589.59 65.0762C2594.18 69.3969 2600.08 73.2281 2609.01 73.3574C2609.15 73.3594 2609.3 73.3613 2609.45 73.3613C2609.46 73.3613 2609.47 73.3604 2609.48 73.3604L2609.49 73.3447C2612.83 73.3447 2615.75 72.8295 2618.35 71.9629C2625.54 69.5393 2630.17 64.4 2634.11 60.042C2638.87 54.7705 2642.65 50.5803 2650.39 50.4219H2651.31C2653.48 50.4663 2655.34 50.8273 2657 51.4414V123.112C2655.12 122.703 2653.08 122.475 2650.85 122.475C2648.83 122.475 2646.97 122.663 2645.23 123.004V123.084C2636.19 124.914 2630.75 130.832 2626.26 135.777C2621.4 141.168 2617.56 145.422 2609.49 145.422C2609.48 145.422 2609.48 145.421 2609.47 145.421C2609.46 145.421 2609.46 145.422 2609.45 145.422C2601.39 145.422 2597.56 141.168 2592.71 135.794C2588.25 130.832 2582.81 124.93 2573.76 123.101V123.067C2571.94 122.688 2569.97 122.475 2567.83 122.475C2565.81 122.475 2563.95 122.663 2562.22 123.004V123.084C2553.17 124.914 2547.73 130.832 2543.24 135.777C2538.39 141.168 2534.54 145.422 2526.47 145.422C2526.46 145.422 2526.46 145.421 2526.45 145.421C2526.44 145.421 2526.44 145.422 2526.43 145.422C2518.38 145.422 2514.55 141.168 2509.69 135.794C2505.23 130.832 2499.79 124.93 2490.75 123.101V123.067C2488.93 122.688 2486.96 122.475 2484.82 122.475C2482.8 122.475 2480.93 122.663 2479.2 123.004V123.084C2470.15 124.914 2464.71 130.832 2460.23 135.777C2455.37 141.168 2451.53 145.422 2443.45 145.422C2443.45 145.422 2443.44 145.421 2443.43 145.421C2443.43 145.421 2443.42 145.422 2443.42 145.422C2435.36 145.422 2431.53 141.168 2426.67 135.794C2422.21 130.832 2416.77 124.93 2407.73 123.101V123.067C2405.91 122.688 2403.94 122.475 2401.8 122.475C2399.78 122.475 2397.91 122.663 2396.18 123.004V123.084C2387.14 124.914 2381.69 130.832 2377.21 135.777C2372.35 141.168 2368.51 145.422 2360.44 145.422C2360.43 145.422 2360.42 145.421 2360.42 145.421C2360.41 145.421 2360.4 145.422 2360.4 145.422C2352.34 145.422 2348.51 141.168 2343.65 135.794C2339.2 130.832 2333.75 124.93 2324.71 123.101V123.067C2322.89 122.688 2320.92 122.475 2318.78 122.475C2316.76 122.475 2314.9 122.663 2313.16 123.004V123.084C2304.12 124.914 2298.68 130.832 2294.19 135.777C2289.33 141.168 2285.49 145.422 2277.42 145.422C2277.41 145.422 2277.41 145.421 2277.4 145.421C2277.39 145.421 2277.39 145.422 2277.38 145.422C2269.32 145.422 2265.49 141.168 2260.64 135.794C2256.18 130.832 2250.74 124.93 2241.69 123.101V123.067C2239.87 122.688 2237.9 122.475 2235.76 122.475C2233.74 122.475 2231.88 122.663 2230.15 123.004V123.084C2221.1 124.914 2215.66 130.832 2211.17 135.777C2206.32 141.168 2202.47 145.422 2194.4 145.422C2194.39 145.422 2194.39 145.421 2194.38 145.421C2194.37 145.421 2194.37 145.422 2194.36 145.422C2186.3 145.422 2182.48 141.168 2177.62 135.794C2173.16 130.832 2167.72 124.93 2158.67 123.101V123.067C2156.85 122.688 2154.89 122.475 2152.75 122.475C2150.73 122.475 2148.86 122.663 2147.13 123.004V123.084C2138.08 124.914 2132.64 130.832 2128.16 135.777C2123.3 141.168 2119.46 145.422 2111.38 145.422C2111.38 145.422 2111.37 145.421 2111.36 145.421C2111.36 145.421 2111.35 145.422 2111.34 145.422C2103.29 145.422 2099.46 141.168 2094.6 135.794C2090.14 130.832 2084.7 124.93 2075.66 123.101V123.067C2073.84 122.688 2071.87 122.475 2069.73 122.475C2067.71 122.475 2065.84 122.663 2064.11 123.004V123.084C2055.07 124.914 2049.62 130.832 2045.14 135.777C2040.28 141.168 2036.44 145.422 2028.37 145.422C2028.36 145.422 2028.35 145.421 2028.35 145.421C2028.34 145.421 2028.33 145.422 2028.33 145.422C2020.27 145.422 2016.44 141.168 2011.58 135.794C2007.13 130.832 2001.68 124.93 1992.64 123.101V123.067C1990.82 122.688 1988.85 122.475 1986.71 122.475C1984.69 122.475 1982.83 122.663 1981.09 123.004V123.084C1972.05 124.914 1966.61 130.832 1962.12 135.777C1957.26 141.168 1953.42 145.422 1945.35 145.422C1945.34 145.422 1945.33 145.421 1945.33 145.421C1945.32 145.421 1945.32 145.422 1945.31 145.422C1937.25 145.422 1933.42 141.168 1928.57 135.794C1924.11 130.832 1918.67 124.93 1909.62 123.101V123.067C1907.8 122.688 1905.83 122.475 1903.69 122.475C1901.67 122.475 1899.81 122.663 1898.08 123.004V123.084C1889.03 124.914 1883.59 130.832 1879.1 135.777C1874.25 141.168 1870.4 145.422 1862.33 145.422C1862.32 145.422 1862.32 145.421 1862.31 145.421C1862.3 145.421 1862.3 145.422 1862.29 145.422C1854.23 145.422 1850.41 141.168 1845.55 135.794C1841.09 130.832 1835.65 124.93 1826.6 123.101V123.067C1824.78 122.688 1822.82 122.475 1820.68 122.475C1818.66 122.475 1816.79 122.663 1815.06 123.004V123.084C1806.01 124.914 1800.57 130.832 1796.08 135.777C1791.23 141.168 1787.38 145.422 1779.31 145.422C1779.31 145.422 1779.3 145.421 1779.29 145.421C1779.29 145.421 1779.28 145.422 1779.27 145.422C1771.22 145.422 1767.39 141.168 1762.53 135.794C1758.07 130.832 1752.63 124.93 1743.59 123.101V123.067C1741.77 122.688 1739.8 122.475 1737.66 122.475C1735.64 122.475 1733.77 122.663 1732.04 123.004V123.084C1723 124.914 1717.55 130.832 1713.07 135.777C1708.21 141.168 1704.37 145.422 1696.3 145.422C1696.29 145.422 1696.28 145.421 1696.28 145.421C1696.27 145.421 1696.26 145.422 1696.26 145.422C1688.2 145.422 1684.37 141.168 1679.51 135.794C1675.06 130.832 1669.61 124.93 1660.57 123.101V123.067C1658.75 122.688 1656.78 122.475 1654.64 122.475C1652.62 122.475 1650.76 122.663 1649.02 123.004V123.084C1639.98 124.914 1634.54 130.832 1630.05 135.777C1625.19 141.168 1621.35 145.422 1613.28 145.422C1613.27 145.422 1613.26 145.421 1613.26 145.421C1613.25 145.421 1613.25 145.422 1613.24 145.422C1605.18 145.422 1601.35 141.168 1596.5 135.794C1592.04 130.832 1586.59 124.93 1577.55 123.101V123.067C1575.73 122.688 1573.76 122.475 1571.62 122.475C1569.6 122.475 1567.74 122.663 1566 123.004V123.084C1556.96 124.914 1551.52 130.832 1547.03 135.777C1542.18 141.168 1538.33 145.422 1530.26 145.422C1530.25 145.422 1530.25 145.421 1530.24 145.421C1530.23 145.421 1530.23 145.422 1530.22 145.422C1522.16 145.422 1518.33 141.168 1513.48 135.794C1509.02 130.832 1503.58 124.93 1494.53 123.101V123.067C1492.71 122.688 1490.75 122.475 1488.61 122.475C1486.59 122.475 1484.72 122.663 1482.99 123.004V123.084C1473.94 124.914 1468.5 130.832 1464.01 135.777C1459.16 141.168 1455.31 145.422 1447.24 145.422C1447.24 145.422 1447.23 145.421 1447.22 145.421C1447.22 145.421 1447.21 145.422 1447.2 145.422C1439.15 145.422 1435.32 141.168 1430.46 135.794C1426 130.832 1420.56 124.93 1411.52 123.101V123.067C1409.7 122.688 1407.73 122.475 1405.59 122.475C1403.57 122.475 1401.7 122.663 1399.97 123.004V123.084C1390.93 124.914 1385.48 130.832 1381 135.777C1376.14 141.168 1372.3 145.422 1364.23 145.422C1364.22 145.422 1364.21 145.421 1364.21 145.421C1364.2 145.421 1364.19 145.422 1364.19 145.422C1356.13 145.422 1352.3 141.168 1347.44 135.794C1342.98 130.832 1337.54 124.93 1328.5 123.101V123.067C1326.68 122.688 1324.71 122.475 1322.57 122.475C1320.55 122.475 1318.68 122.663 1316.95 123.004V123.084C1307.91 124.914 1302.47 130.832 1297.98 135.777C1293.12 141.168 1289.28 145.422 1281.21 145.422C1281.2 145.422 1281.19 145.421 1281.19 145.421C1281.18 145.421 1281.18 145.422 1281.17 145.422C1273.11 145.422 1269.28 141.168 1264.42 135.794C1259.97 130.832 1254.52 124.93 1245.48 123.101V123.067C1243.66 122.688 1241.69 122.475 1239.55 122.475C1237.53 122.475 1235.67 122.663 1233.93 123.004V123.084C1224.89 124.914 1219.45 130.832 1214.96 135.777C1210.1 141.168 1206.26 145.422 1198.19 145.422C1198.18 145.422 1198.18 145.421 1198.17 145.421C1198.16 145.421 1198.16 145.422 1198.15 145.422C1190.09 145.422 1186.26 141.168 1181.41 135.794C1176.95 130.832 1171.51 124.93 1162.46 123.101V123.067C1160.64 122.688 1158.68 122.475 1156.54 122.475C1154.52 122.475 1152.65 122.663 1150.92 123.004V123.084C1141.87 124.914 1136.43 130.832 1131.94 135.777C1127.09 141.168 1123.24 145.422 1115.17 145.422C1115.17 145.422 1115.16 145.421 1115.15 145.421C1115.15 145.421 1115.14 145.422 1115.13 145.422C1107.08 145.422 1103.25 141.168 1098.39 135.794C1093.93 130.832 1088.49 124.93 1079.45 123.101V123.067C1077.63 122.688 1075.66 122.475 1073.52 122.475C1071.5 122.475 1069.63 122.663 1067.9 123.004V123.084C1058.86 124.914 1053.41 130.832 1048.93 135.777C1044.07 141.168 1040.23 145.422 1032.16 145.422C1032.15 145.422 1032.14 145.421 1032.13 145.421C1032.13 145.421 1032.12 145.422 1032.12 145.422C1024.06 145.422 1020.23 141.168 1015.37 135.794C1010.91 130.832 1005.47 124.93 996.429 123.101V123.067C994.609 122.688 992.64 122.475 990.5 122.475C988.481 122.475 986.615 122.663 984.882 123.004V123.084C975.839 124.914 970.395 130.832 965.909 135.777C961.052 141.168 957.209 145.422 949.138 145.422C949.131 145.422 949.124 145.421 949.117 145.421C949.111 145.421 949.105 145.422 949.099 145.422C941.041 145.422 937.212 141.168 932.354 135.794C927.897 130.832 922.454 124.93 913.411 123.101V123.067C911.591 122.688 909.623 122.475 907.482 122.475C905.463 122.475 903.597 122.663 901.864 123.004V123.084C892.821 124.914 887.378 130.832 882.892 135.777C878.034 141.168 874.192 145.422 866.12 145.422C866.113 145.422 866.106 145.421 866.1 145.421C866.093 145.421 866.087 145.422 866.081 145.422C858.024 145.422 854.194 141.168 849.337 135.794C844.879 130.832 839.437 124.93 830.394 123.101V123.067C828.574 122.688 826.605 122.475 824.465 122.475C822.446 122.475 820.58 122.663 818.847 123.004V123.084C809.803 124.914 804.36 130.832 799.874 135.777C795.017 141.168 791.174 145.422 783.103 145.422C783.096 145.422 783.089 145.421 783.082 145.421C783.076 145.421 783.07 145.422 783.063 145.422C775.006 145.422 771.177 141.168 766.319 135.794C761.862 130.832 756.419 124.93 747.376 123.101V123.067C745.556 122.688 743.588 122.475 741.447 122.475C739.428 122.475 737.562 122.663 735.829 123.004V123.084C726.786 124.914 721.342 130.832 716.856 135.777C711.999 141.168 708.156 145.422 700.085 145.422C700.078 145.422 700.071 145.421 700.064 145.421C700.058 145.421 700.052 145.422 700.046 145.422C691.988 145.422 688.159 141.168 683.302 135.794C678.844 130.832 673.402 124.93 664.358 123.101V123.067C662.538 122.688 660.57 122.475 658.43 122.475C656.411 122.475 654.544 122.663 652.812 123.004V123.084C643.768 124.914 638.325 130.832 633.839 135.777C628.982 141.168 625.139 145.422 617.067 145.422C617.061 145.422 617.054 145.421 617.047 145.421C617.041 145.421 617.035 145.422 617.028 145.422C608.971 145.422 605.141 141.168 600.284 135.794C595.827 130.832 590.384 124.93 581.341 123.101V123.067C579.521 122.688 577.552 122.475 575.412 122.475C573.393 122.475 571.527 122.663 569.794 123.004V123.084C560.751 124.914 555.307 130.832 550.821 135.777C545.964 141.168 542.121 145.422 534.05 145.422C534.043 145.422 534.036 145.421 534.029 145.421C534.023 145.421 534.017 145.422 534.011 145.422C525.953 145.422 522.124 141.168 517.267 135.794C512.809 130.832 507.366 124.93 498.323 123.101V123.067C496.503 122.688 494.535 122.475 492.395 122.475C490.375 122.475 488.509 122.663 486.776 123.004V123.084C477.733 124.914 472.29 130.832 467.804 135.777C462.947 141.168 459.104 145.422 451.032 145.422C451.025 145.422 451.018 145.421 451.012 145.421C451.006 145.421 450.999 145.422 450.993 145.422C442.936 145.422 439.106 141.168 434.249 135.794C429.792 130.832 424.349 124.93 415.306 123.101V123.067C413.486 122.688 411.517 122.475 409.377 122.475C407.358 122.475 405.492 122.663 403.759 123.004V123.084C394.715 124.914 389.272 130.832 384.786 135.777C379.929 141.168 376.086 145.422 368.015 145.422C368.008 145.422 368.001 145.421 367.994 145.421C367.988 145.421 367.982 145.422 367.976 145.422C359.918 145.422 356.089 141.168 351.231 135.794C346.774 130.832 341.331 124.93 332.288 123.101V123.067C330.468 122.688 328.5 122.475 326.359 122.475C324.34 122.475 322.474 122.663 320.741 123.004V123.084C311.698 124.914 306.255 130.832 301.769 135.777C296.911 141.168 293.069 145.422 284.997 145.422C284.99 145.422 284.983 145.421 284.977 145.421C284.97 145.421 284.964 145.422 284.958 145.422C276.901 145.422 273.071 141.168 268.214 135.794C263.756 130.832 258.314 124.93 249.271 123.101V123.067C247.451 122.688 245.482 122.475 243.342 122.475C241.323 122.475 239.456 122.663 237.724 123.004V123.084C228.68 124.914 223.237 130.832 218.751 135.777C213.894 141.168 210.051 145.422 201.979 145.422C201.973 145.422 201.966 145.421 201.959 145.421C201.953 145.421 201.947 145.422 201.94 145.422C193.883 145.422 190.054 141.168 185.196 135.794C180.739 130.832 175.296 124.93 166.253 123.101V123.067C164.433 122.688 162.465 122.475 160.324 122.475C158.305 122.475 156.439 122.663 154.706 123.004V123.084C145.663 124.914 140.219 130.832 135.733 135.777C130.876 141.168 127.033 145.422 118.962 145.422C118.955 145.422 118.948 145.421 118.941 145.421C118.935 145.421 118.929 145.422 118.923 145.422C110.865 145.422 107.036 141.168 102.179 135.794C97.7213 130.832 92.2785 124.93 83.2354 123.101V123.025C83.2188 123.022 83.2022 123.019 83.1855 123.016V122.992C81.4696 122.659 79.623 122.475 77.627 122.475C75.6079 122.475 73.7416 122.663 72.0088 123.004V123.084C62.9655 124.914 57.5222 130.832 53.0361 135.777C48.179 141.168 44.3361 145.422 36.2646 145.422C36.2579 145.422 36.2509 145.421 36.2441 145.421C36.238 145.421 36.2318 145.422 36.2256 145.422C28.1682 145.422 24.3387 141.168 19.4814 135.794C15.024 130.832 9.58121 124.93 0.538086 123.101V123.025C0.521508 123.022 0.504901 123.019 0.488281 123.016V51.2764C3.01913 52.1217 5.07631 53.5414 7.02148 55.3193C7.04051 55.3366 7.06009 55.3537 7.0791 55.3711C7.24956 55.5277 7.41985 55.6867 7.58887 55.8486C8.91188 57.1092 10.201 58.5289 11.5674 60.042C13.0349 61.6719 14.6024 63.4104 16.3652 65.0762C20.9519 69.3969 26.8592 73.2281 35.7832 73.3574C35.9298 73.3594 36.0774 73.3613 36.2256 73.3613C36.2341 73.3613 36.2425 73.3604 36.251 73.3604L36.2646 73.3447C39.6056 73.3447 42.5293 72.8295 45.1221 71.9629C52.3139 69.5393 56.9498 64.4 60.8838 60.042C65.6482 54.7705 69.4232 50.5803 77.1699 50.4219H78.084Z" fill="#0A3F6A"/>
<defs>
<linearGradient id="paint0_linear_1306_61565" x1="0.488281" y1="48.2422" x2="2041.83" y2="48.2422" gradientUnits="userSpaceOnUse">
<stop offset="0.110577" stop-color="#0A3F6A"/>
<stop offset="0.620192" stop-color="#0066B0"/>
</linearGradient>
</defs>
</svg>
