<svg width="1026" height="505" viewBox="0 0 1026 505" fill="none" xmlns="http://www.w3.org/2000/svg">
<path d="M785.27 276.211C784.168 270.704 784.169 264.096 783.067 258.59C783.067 257.488 781.966 256.387 780.865 255.285C779.763 256.387 778.662 256.387 777.56 257.488C776.459 259.691 775.358 261.894 774.256 264.096C773.155 264.096 773.155 264.096 772.054 264.096C772.054 260.792 772.054 257.488 772.054 254.184C773.155 246.475 766.547 242.069 764.344 235.461H763.243C758.838 236.563 752.23 237.664 748.926 240.968C743.419 245.373 739.013 250.88 733.507 256.387C732.405 257.488 731.304 260.792 731.304 262.995C732.405 271.806 728 278.414 723.595 286.123C723.595 287.224 722.493 287.224 721.392 287.224C720.291 287.224 720.291 286.123 719.189 285.022C716.987 278.414 713.683 271.806 711.48 265.198C709.277 258.589 708.176 250.88 705.973 244.272C705.973 242.069 705.973 239.867 701.568 240.968C698.264 242.069 697.162 239.867 697.162 237.664C697.162 231.056 689.453 229.955 687.25 225.549C687.25 225.549 685.048 225.549 683.946 226.651C677.338 229.955 671.832 228.853 665.223 226.651C664.122 226.651 663.021 225.549 661.919 224.448C659.717 221.144 657.514 220.043 654.21 222.245C650.906 223.347 643.197 217.84 640.994 213.434C639.893 212.333 638.791 211.232 637.69 210.13C637.69 212.333 636.589 214.536 637.69 215.637C639.893 221.144 643.197 225.549 646.501 229.955C647.602 231.056 649.805 231.056 650.906 229.955C653.109 228.853 655.311 226.651 657.514 225.549C660.818 227.752 664.122 229.955 666.325 232.157C669.629 234.36 669.629 236.563 668.528 239.867C663.021 251.981 654.21 259.691 642.095 262.995C639.893 264.096 637.69 265.198 635.487 266.299C631.082 268.502 626.677 269.603 620.068 271.806C620.068 272.907 620.068 277.312 621.17 278.414C623.372 279.515 626.677 278.414 628.879 277.312C632.183 276.211 635.487 275.11 638.791 274.008C642.095 272.907 644.298 274.008 643.197 277.312C642.095 281.718 640.994 285.022 639.893 289.427C637.69 293.832 635.487 298.238 633.285 302.643C632.183 304.846 631.082 307.049 628.879 307.049C618.967 312.555 614.562 322.467 609.055 330.177C605.751 335.684 607.954 342.292 611.258 347.798C614.562 354.406 614.562 368.724 606.852 373.129C604.65 375.332 602.447 377.535 600.244 379.737C596.94 383.041 595.839 387.447 598.042 391.852C600.244 396.257 599.143 399.561 593.636 400.663C590.332 401.764 589.231 403.967 590.332 407.271C591.434 408.372 590.332 410.575 589.231 412.777C585.927 418.284 581.521 422.69 577.116 427.095C574.913 429.298 570.508 430.399 567.204 431.5C563.9 432.602 559.495 432.602 556.191 434.804C551.785 437.007 548.481 435.906 547.38 431.5C546.278 423.791 544.076 417.183 539.67 410.575C538.569 409.473 538.569 406.169 539.67 403.967C541.873 399.561 539.67 396.257 537.468 391.852C531.961 384.143 527.556 376.433 528.657 367.622C528.657 364.318 530.86 361.014 531.961 357.71C533.062 355.508 533.062 352.204 533.062 350.001C531.961 344.494 530.86 338.988 529.758 333.481C528.657 327.974 527.556 323.569 522.049 320.265C520.948 320.265 520.948 316.961 520.948 315.859C520.948 312.555 523.15 308.15 523.15 304.846C523.15 302.643 523.15 300.441 522.049 299.339C520.948 298.238 518.745 298.238 516.542 299.339C513.238 301.542 509.934 300.441 508.833 296.035C505.529 288.326 500.022 288.326 493.414 293.832C491.211 296.035 486.806 297.137 483.502 297.137C479.097 298.238 474.691 294.934 471.387 300.441C471.387 300.441 466.982 300.441 466.982 299.339C463.678 296.035 461.475 291.63 459.272 287.224C457.07 282.819 454.867 279.515 450.462 277.312C444.955 275.11 441.651 266.299 444.955 260.792C448.259 254.184 449.36 248.677 447.158 242.069C446.056 239.867 447.158 237.664 448.259 235.461C449.36 232.157 450.462 229.955 451.563 227.752C452.664 222.245 455.968 217.84 461.475 215.637C464.779 214.536 465.88 212.333 466.982 209.029C466.982 200.218 473.59 196.914 479.097 192.509H480.198C486.806 194.712 491.211 190.306 496.718 188.104C501.123 185.901 506.63 185.901 511.036 184.8C514.34 183.698 517.644 183.698 522.049 183.698C526.454 182.597 528.657 184.8 530.86 188.104C533.062 191.408 530.86 193.61 526.454 195.813C530.86 198.016 533.062 200.218 536.366 202.421C540.772 204.624 545.177 206.826 550.684 209.029C553.988 211.232 557.292 210.13 558.393 206.826C560.596 202.421 562.799 202.421 567.204 203.522C569.407 204.624 572.711 204.624 574.913 204.624C580.42 205.725 585.927 205.725 591.434 206.826C594.738 207.928 596.94 206.826 599.143 204.624C600.244 202.421 601.346 201.32 601.346 199.117C603.548 191.408 602.447 190.306 594.738 191.408C590.332 191.408 585.927 191.408 582.623 190.306C578.217 189.205 573.812 185.901 574.913 180.394C574.913 179.293 573.812 177.09 572.711 175.989C569.407 178.191 566.103 179.293 568.305 182.597C570.508 185.901 567.204 188.104 565.001 189.205C563.9 190.306 561.697 191.408 560.596 192.509C557.292 185.901 556.191 178.192 551.785 172.685C547.38 167.178 541.873 162.773 536.366 159.469C538.569 167.178 546.279 170.482 550.684 174.887C549.583 178.191 548.481 181.496 547.38 184.8C546.278 183.698 545.177 181.496 544.076 181.496C541.873 179.293 539.67 177.09 536.366 174.887C533.062 172.685 529.758 169.381 526.454 167.178C524.252 164.975 523.15 163.874 519.846 166.077C517.644 167.178 514.34 167.178 511.036 168.279C509.934 168.279 507.732 169.381 506.63 170.482C504.427 171.583 503.326 173.786 501.123 175.989C498.921 178.191 496.718 179.293 496.718 181.496C495.617 187.002 492.313 189.205 486.806 190.306C484.603 191.408 481.299 191.408 480.198 192.509C477.995 191.408 474.691 190.306 472.489 189.205C469.184 188.104 466.982 183.698 468.083 180.394C469.185 177.09 469.185 174.887 469.185 171.583C469.185 166.077 471.387 164.975 476.894 164.975C480.198 164.975 483.502 166.077 485.705 166.077C489.009 166.077 492.313 166.077 492.313 161.671C493.414 157.266 492.313 153.962 487.907 152.861C486.806 151.759 484.603 151.759 483.502 150.658V149.557C487.907 148.455 493.414 146.253 497.819 145.151V144.05C492.313 142.949 485.705 141.847 477.995 140.746C481.299 137.442 483.502 134.138 485.705 130.834C483.502 129.732 482.401 128.631 480.198 127.53C480.198 134.138 476.894 137.442 471.387 139.645C468.083 140.746 466.982 139.644 465.88 136.34C464.779 128.631 470.286 126.428 474.691 125.327C475.793 122.023 475.793 118.719 476.894 117.618C481.299 114.314 487.907 113.212 493.414 116.516C494.515 116.516 494.515 118.719 493.414 119.82C490.11 124.226 492.313 126.428 495.617 129.732C497.819 131.935 498.921 135.239 502.225 136.34C503.326 137.442 506.63 138.543 507.731 137.442C512.137 135.239 515.441 133.036 519.846 130.834C520.948 129.732 520.948 127.53 520.948 126.428C522.049 124.226 523.15 122.023 524.252 120.922C526.454 119.82 528.657 120.922 528.657 124.226C528.657 128.631 530.86 129.732 534.164 129.732C540.772 129.732 547.38 129.732 553.988 128.631C555.089 128.631 556.191 127.53 557.292 126.428C558.393 120.922 560.596 117.618 568.305 118.719C567.204 116.516 567.204 115.415 566.103 114.314C570.508 114.314 573.812 114.314 578.217 113.212C579.319 113.212 580.42 112.111 582.623 111.01C581.521 109.908 580.42 108.807 578.217 108.807C574.913 108.807 571.609 108.807 568.305 109.908C565.001 111.01 562.799 109.908 561.697 106.604C560.596 103.3 558.393 99.9961 562.799 97.7935C566.103 95.5908 568.305 93.3881 571.609 91.1854C566.103 87.8814 563.9 88.9827 561.697 93.3881C560.596 97.7935 557.292 98.8948 553.988 99.9962C548.481 102.199 548.481 102.199 551.785 106.604C551.785 107.706 552.887 107.706 552.887 108.807C552.887 115.415 540.772 126.428 534.164 124.226C533.062 124.226 531.961 123.124 531.961 122.023C530.86 119.82 530.86 117.618 529.758 114.314C528.657 115.415 526.454 115.415 526.454 116.516C522.049 119.82 516.542 117.618 515.441 113.212C512.137 104.402 514.34 98.8948 522.049 93.3881C523.15 92.2868 525.353 92.2868 527.556 91.1854C531.961 88.9827 536.366 85.6787 539.67 83.476C544.076 80.172 548.481 76.868 552.887 73.564C565.001 65.8546 576.015 66.9559 588.13 72.4626C595.839 75.7666 603.548 79.0706 612.359 77.9693C617.866 76.868 621.17 81.2733 621.17 86.78C623.372 86.78 624.474 86.78 626.676 86.78C628.879 84.5773 625.575 77.9693 631.082 77.9693C633.285 77.9693 634.386 80.172 635.487 81.2733C646.501 80.172 658.615 80.172 670.73 79.0707C671.832 79.0707 674.034 77.9693 675.136 77.9693C678.44 74.6653 682.845 74.6653 686.149 75.7666C690.554 76.868 693.858 77.9693 699.365 79.0707C698.264 76.868 698.264 75.7666 698.264 75.7666C693.858 72.4626 693.858 70.2599 698.264 66.9559C699.365 65.8545 700.466 64.7532 701.568 63.6519C703.77 62.5505 705.973 61.4492 708.176 61.4492C710.379 62.5505 713.683 64.7532 712.581 68.0572C712.581 71.3612 713.683 73.5639 712.581 76.868C711.48 80.172 710.379 83.476 709.277 86.78C715.885 85.6787 718.088 80.172 716.987 71.3613C716.987 69.1586 716.987 66.9559 718.088 63.6519C719.189 63.6519 719.189 63.6519 720.291 63.6519C721.392 65.8545 722.493 66.9559 724.696 70.2599C725.797 68.0572 725.797 66.9559 726.899 65.8545C729.101 62.5505 731.304 61.4492 734.608 64.7532C737.912 68.0572 742.317 70.2599 746.723 72.4626C745.621 71.3612 744.52 69.1586 743.419 68.0572C742.318 66.9559 740.115 65.8545 739.013 64.7532C733.507 59.2465 733.507 58.1451 733.507 57.0438C733.507 57.0438 734.608 55.9424 735.709 55.9424C744.52 57.0438 750.027 52.6384 757.736 49.3344C759.939 48.2331 762.142 48.2331 764.344 48.2331C769.851 49.3344 772.054 44.929 776.459 43.8277C779.763 42.7264 784.169 46.0304 788.574 46.0304C790.777 46.0304 791.878 44.929 794.081 43.8277C797.385 42.7264 800.689 41.625 802.891 41.625C810.601 44.929 817.209 42.7264 824.918 43.8277H826.02C833.729 44.929 833.729 44.929 830.425 51.5371C830.425 51.5371 830.425 52.6384 830.425 53.7398C833.729 53.7398 838.134 53.7398 841.438 54.8411C843.641 54.8411 845.844 55.9424 848.046 55.9424C851.35 55.9424 854.654 55.9424 857.958 55.9424C862.364 55.9424 867.871 54.8411 872.276 54.8411C875.58 54.8411 876.681 57.0438 876.681 60.3478C876.681 65.8545 878.884 66.9559 883.289 64.7532C884.391 63.6519 886.593 63.6519 888.796 63.6519C893.201 63.6519 897.607 63.6518 902.012 62.5505C904.215 61.4492 906.418 59.2465 907.519 57.0438C908.62 53.7398 905.316 53.7398 903.114 53.7398C902.012 53.7398 900.911 52.6384 898.708 51.5371C899.809 50.4357 899.809 48.2331 900.911 48.2331C906.418 48.2331 911.924 49.3344 918.532 49.3344C919.634 49.3344 920.735 50.4357 922.938 51.5371C921.836 52.6384 920.735 53.7398 919.634 53.7398C919.634 53.7398 918.532 53.7398 917.431 54.8411C919.634 59.2465 922.938 59.2465 927.343 59.2465C930.647 59.2465 935.052 60.3478 937.255 61.4492C942.762 64.7532 948.269 64.7532 953.775 64.7532C959.282 64.7532 963.687 64.7532 969.194 68.0572C970.295 69.1586 972.498 69.1586 974.701 69.1586C982.41 69.1586 989.018 65.8545 995.626 71.3613C995.626 71.3613 997.829 70.2599 998.93 69.1586C1000.03 65.8545 1002.23 65.8545 1005.54 66.9559C1009.94 68.0572 1013.25 68.0572 1017.65 69.1586C1024.26 69.1586 1026.46 71.3613 1025.36 76.868C1025.36 80.172 1026.46 84.5774 1023.16 87.8814C1022.06 88.9827 1024.26 91.1854 1024.26 94.4894C1020.96 95.5908 1016.55 94.4894 1012.15 96.6921C1003.34 101.098 993.424 103.3 983.511 102.199C979.106 102.199 975.802 105.503 975.802 108.807C975.802 115.415 973.599 119.82 968.093 124.226C963.687 127.53 960.383 131.935 955.978 136.34C954.877 137.442 953.775 137.442 954.877 137.442C953.775 131.935 953.775 127.53 952.674 122.023C951.573 117.618 954.877 112.111 959.282 108.807C962.586 106.604 965.89 105.503 968.093 103.3C968.093 102.199 968.093 102.199 968.093 102.199C963.687 95.5908 963.687 95.5908 957.079 99.9962C954.877 101.097 952.674 103.3 950.471 104.402C947.167 107.706 943.863 107.706 940.559 105.503C938.357 104.402 935.052 104.402 932.85 104.402C928.444 104.402 924.039 104.402 919.634 104.402C916.33 104.402 914.127 105.503 911.924 107.706C907.519 111.01 903.114 114.314 898.708 117.618C899.809 120.922 902.012 122.023 906.418 120.922C909.722 120.922 914.127 122.023 917.431 123.124C917.431 123.124 918.532 123.124 918.532 124.226C919.634 128.631 920.735 134.138 920.735 138.543C920.735 140.746 919.634 144.05 918.532 146.253C918.532 147.354 917.431 148.455 917.431 149.557C916.33 148.455 915.228 148.455 915.228 147.354C914.127 144.05 914.127 139.645 914.127 135.239C913.026 136.34 911.924 137.442 911.924 137.442C910.823 145.151 905.316 148.455 900.911 152.861C898.708 155.063 897.607 157.266 895.404 158.367C894.303 159.469 892.1 160.57 889.897 160.57C885.492 159.469 882.188 161.671 879.985 164.975C876.681 169.381 872.276 172.685 877.783 179.293C878.884 181.496 876.681 185.901 875.58 189.205C875.58 190.306 872.276 190.306 870.073 190.306C870.073 188.104 868.972 187.002 868.972 184.8C870.073 180.394 870.073 178.192 864.567 178.192C864.567 174.887 864.567 172.685 863.465 169.381C860.161 170.482 857.958 171.583 855.756 172.685C854.654 170.482 854.654 169.381 853.553 168.279H852.452C851.35 169.381 850.249 170.482 849.148 171.583C848.046 172.685 846.945 173.786 845.844 174.887C848.046 175.989 849.148 178.191 851.35 179.293C853.553 180.394 855.756 180.394 857.958 181.496C856.857 183.698 854.654 184.8 853.553 187.002L852.452 188.104C853.553 190.306 854.654 193.61 855.756 195.813C860.161 205.725 859.06 211.232 851.35 218.941C849.148 221.144 846.945 223.347 845.844 225.549C842.54 231.056 837.033 233.259 830.425 234.36C823.817 235.461 823.817 235.461 824.918 242.069C824.918 244.272 823.817 246.475 822.715 248.677H820.513C819.411 246.475 819.411 245.373 819.411 243.171C819.411 240.968 819.411 238.765 819.411 235.461C817.209 236.563 815.006 237.664 813.905 239.867C812.803 242.069 812.803 245.373 813.905 247.576C816.107 250.88 818.31 254.184 820.513 257.488C824.918 264.096 823.817 270.704 817.209 275.11C815.006 276.211 813.905 278.414 812.803 280.616C811.702 282.819 810.601 285.022 809.499 287.224C805.094 279.515 805.094 270.704 797.385 266.299C796.283 268.502 796.283 270.704 795.182 271.806C788.574 274.008 787.473 275.11 785.27 276.211ZM655.311 155.063C650.906 146.253 649.805 146.253 643.197 149.557C642.095 150.658 639.893 150.658 637.69 150.658C633.285 150.658 629.981 155.063 632.183 158.367C634.386 161.671 636.589 163.874 638.791 166.077C644.298 170.482 645.399 170.482 638.791 174.887C636.589 177.09 635.487 179.293 637.69 180.394C642.095 182.597 646.501 183.698 650.906 184.8C650.906 184.8 653.109 183.698 653.109 182.597C652.007 177.09 652.007 171.583 649.805 166.077C648.703 163.874 646.501 161.671 644.298 159.469C643.197 158.367 642.095 156.165 643.197 155.063C644.298 153.962 645.399 152.861 647.602 152.861C649.805 153.962 652.007 153.962 655.311 155.063ZM602.447 150.658C601.346 151.759 600.244 153.962 598.042 155.063C595.839 157.266 593.636 157.266 591.434 155.063C585.927 148.455 585.927 148.455 581.521 156.165C581.521 157.266 580.42 157.266 580.42 158.367C576.015 161.671 577.116 166.077 578.217 170.482C582.623 169.381 585.927 169.381 589.231 168.279C593.636 166.077 598.042 166.077 602.447 168.279C605.751 169.381 610.156 170.482 613.46 169.381C617.866 169.381 617.866 166.077 614.562 163.874C611.258 161.671 607.954 159.469 605.751 157.266C604.65 155.063 603.548 152.861 602.447 150.658ZM618.967 262.995C621.17 255.285 618.967 248.677 613.46 243.171C611.258 240.968 610.156 238.765 607.954 235.461C604.65 229.955 602.447 223.347 600.244 217.84C599.143 216.738 598.042 216.738 595.839 215.637C595.839 216.738 595.839 218.941 595.839 220.043C598.042 226.651 599.143 232.157 601.346 238.765C602.447 242.069 602.447 245.373 603.548 247.576C606.852 251.981 610.156 255.285 613.46 259.691C615.663 260.792 617.866 261.894 618.967 262.995ZM613.46 82.3747C609.055 82.3747 604.65 83.476 599.143 83.476C599.143 86.78 599.143 88.9827 603.548 86.78C604.65 86.78 605.751 85.6787 606.852 86.78C612.359 90.0841 612.359 86.7801 613.46 82.3747ZM595.839 313.657C594.738 312.555 592.535 311.454 592.535 311.454C591.434 312.555 590.332 314.758 589.231 315.859C589.231 316.961 590.332 318.062 591.434 319.163C592.535 316.961 593.636 315.859 595.839 313.657ZM718.088 73.564C720.291 73.564 722.493 74.6653 725.797 74.6653C725.797 73.5639 725.797 71.3612 724.696 70.2599C721.392 69.1586 719.189 70.2599 718.088 73.564Z" fill="url(#paint0_linear_798_37634)"/>
<path d="M386.571 327.969C384.369 326.868 382.166 325.767 381.065 324.665C378.862 321.361 375.558 321.361 372.254 321.361C371.152 321.361 370.051 321.361 368.95 320.26C362.342 316.956 354.632 313.652 348.024 310.348C348.024 308.145 348.024 305.942 348.024 304.841C344.72 300.436 341.416 296.03 338.112 291.625C335.91 289.422 333.707 287.22 329.301 289.422C328.2 289.422 325.997 289.422 324.896 288.321C323.795 287.22 322.693 285.017 320.491 283.916C316.085 282.814 313.883 279.51 314.984 276.206C312.781 276.206 311.68 275.105 309.477 275.105C308.376 275.105 306.173 275.105 305.072 275.105C300.667 275.105 296.261 276.206 294.059 275.105C288.552 270.699 287.45 274.004 284.146 278.409C284.146 275.105 285.248 272.902 285.248 270.699C279.741 271.801 275.336 274.004 272.032 278.409C269.829 281.713 268.728 283.916 264.322 280.612C263.221 279.51 259.917 279.51 258.816 280.612C253.309 282.814 250.005 281.713 248.903 275.105C248.903 271.801 248.903 269.598 250.005 266.294C251.106 260.787 247.802 257.483 241.194 258.585C238.991 258.585 237.89 258.585 234.586 258.585C235.687 254.179 236.789 249.774 236.789 246.47C236.789 244.267 237.89 240.963 236.789 239.862C235.687 238.761 232.383 238.761 230.181 238.761C227.978 238.761 225.775 240.963 225.775 243.166C225.775 248.673 220.269 246.47 218.066 248.673C216.965 248.673 214.762 247.571 213.66 246.47C208.154 242.065 207.052 235.457 207.052 227.747C207.052 224.443 207.052 220.038 208.154 217.835C210.356 213.43 219.167 210.126 224.674 211.227C226.877 211.227 229.079 211.227 231.282 210.126C236.789 206.822 248.903 209.024 250.005 216.734C250.005 218.936 252.207 221.139 253.309 223.342C254.41 224.443 255.512 224.443 256.613 225.544C257.714 224.443 258.816 223.342 258.816 222.24C258.816 218.936 257.714 214.531 256.613 212.328C254.41 209.024 255.511 206.822 257.714 204.619C262.12 200.214 266.525 196.91 269.829 192.504C270.93 191.403 272.032 190.301 270.93 189.2C268.728 183.693 273.133 181.491 275.336 178.187C276.437 174.883 279.741 171.579 285.248 172.68C287.45 172.68 289.653 172.68 288.552 169.376C287.45 166.072 286.349 163.869 289.653 162.768C292.957 161.667 296.261 158.362 299.565 163.869C299.565 164.971 301.768 164.971 302.869 164.971C307.275 163.869 312.781 161.667 317.187 160.565C318.288 160.565 319.389 158.363 318.288 157.261C318.288 156.16 316.085 155.058 316.085 155.058C311.68 158.363 309.477 152.856 306.173 152.856C305.072 146.248 302.869 145.146 297.363 147.349C295.16 148.45 292.957 148.45 290.754 149.552C291.856 144.045 291.856 144.045 299.565 142.944C302.869 141.842 305.072 141.842 307.275 145.146C307.275 146.248 311.68 146.248 311.68 146.248C314.984 139.64 320.491 140.741 325.997 138.538C323.795 142.944 322.693 146.248 320.491 151.754C327.099 151.754 332.605 151.754 339.214 151.754L340.315 150.653C338.112 148.45 337.011 145.146 334.808 145.146C328.2 144.045 329.301 140.741 331.504 136.336C332.605 135.234 332.605 134.133 332.605 131.93C327.099 128.626 321.592 126.424 316.085 123.12C314.984 123.12 314.984 120.917 313.883 119.816C311.68 116.511 309.477 113.207 307.275 109.903C305.072 106.599 302.869 106.599 300.667 109.903C298.464 113.207 295.16 114.309 291.856 112.106C290.754 111.005 289.653 107.701 289.653 106.599L290.754 105.498C284.146 104.397 277.538 102.194 270.93 101.093C269.829 101.093 266.525 102.194 266.525 103.295C265.424 107.701 262.12 112.106 267.626 116.511C268.728 117.613 268.728 119.816 268.728 120.917C267.626 122.018 265.424 122.018 264.322 123.12C263.221 123.12 263.221 123.12 261.018 123.12C262.12 126.424 263.221 129.728 263.221 133.032C263.221 134.133 262.12 135.234 261.018 136.336C259.917 135.234 258.816 134.133 258.816 133.032C257.714 131.93 258.816 129.728 257.714 129.728C253.309 125.322 250.005 119.816 242.295 122.018C240.093 123.12 236.789 120.917 233.485 119.816C231.282 114.309 229.079 113.207 226.877 113.207C222.471 113.207 221.37 111.005 220.269 107.701C218.066 102.194 225.775 92.282 232.383 91.1806C234.586 91.1806 237.89 90.0793 241.194 90.0793C241.194 91.1806 242.295 92.2819 242.295 92.2819C246.701 92.2819 250.005 92.282 253.309 93.3833C254.41 93.3833 256.613 93.3833 257.714 93.3833C256.613 92.282 256.613 90.0793 255.512 88.9779C253.309 86.7752 251.106 85.6739 248.903 84.5726C257.714 80.1672 257.714 80.1672 254.41 73.5591C257.714 73.5591 261.018 72.4578 264.322 72.4578C270.93 72.4578 270.93 74.6605 268.728 81.2685C272.032 80.1672 275.336 79.0658 278.64 77.9645C275.336 81.2685 273.133 86.7752 267.626 85.6739C266.525 85.6739 265.424 87.8766 264.322 90.0793C265.424 91.1806 267.626 92.2819 268.728 92.2819C273.133 93.3833 277.538 92.2819 281.944 94.4846C289.653 97.7887 297.363 101.093 307.275 96.6873C305.072 93.3833 301.768 90.0793 299.565 86.7752C301.768 86.7752 303.971 88.9779 306.173 88.9779C308.376 88.9779 312.781 87.8766 313.883 85.6739C316.085 82.3699 312.781 82.3699 310.579 81.2685C307.275 80.1672 302.869 77.9645 299.565 76.8632C298.464 76.8632 297.363 74.6605 297.363 74.6605C296.261 70.2551 292.957 69.1538 289.653 68.0524C284.146 66.9511 279.741 65.8497 275.336 62.5457C269.829 59.2417 264.322 57.039 258.816 58.1403C253.309 59.2417 246.701 57.039 243.397 64.7484C242.295 62.5457 243.397 61.4444 242.295 60.343C242.295 59.2417 241.194 58.1403 240.093 57.039C236.789 55.9376 230.181 60.343 230.181 63.647C230.181 68.0524 233.485 71.3565 237.89 71.3565C240.093 71.3565 242.295 71.3564 244.498 72.4578C244.498 73.5591 244.498 73.5591 244.498 74.6605C242.295 75.7618 240.093 77.9645 238.991 79.0659V77.9645C236.789 76.8632 234.586 76.8631 232.383 75.7618C231.282 75.7618 230.181 74.6605 229.079 73.5591C226.877 72.4578 225.775 70.2551 223.573 68.0524C222.471 66.9511 220.269 66.9511 218.066 65.8497C218.066 68.0524 218.066 70.2551 218.066 71.3565C219.167 75.7618 219.167 77.9645 214.762 80.1672C208.154 72.4578 208.154 72.4578 205.951 73.5591C205.951 75.7618 204.85 80.1672 204.85 80.1672C198.242 80.1672 192.735 80.1672 186.127 80.1672C186.127 79.0658 186.127 79.0658 186.127 77.9645C188.33 76.8632 190.532 76.8631 192.735 75.7618C194.938 74.6605 196.039 73.5591 198.242 72.4578C197.14 71.3564 194.938 70.2551 193.836 69.1538C187.228 66.9511 187.228 65.8497 189.431 59.2417C187.228 59.2417 186.127 59.2417 183.924 58.1403C185.026 54.8363 185.026 52.6336 186.127 49.3296C180.62 50.4309 175.113 46.0256 170.708 50.4309H169.607C165.201 48.2282 159.695 47.1269 155.289 44.9242C149.783 41.6202 139.871 44.9242 137.668 52.6336C142.073 51.5323 145.377 51.5323 148.681 51.5323C149.783 51.5323 150.884 52.6336 151.985 52.6336C150.884 53.735 150.884 54.8363 149.783 55.9376C147.58 57.039 144.276 57.039 142.073 57.039C135.465 55.9376 131.06 58.1403 128.857 65.8497C131.06 66.9511 132.161 68.0524 135.465 70.2551C127.756 68.0524 124.452 69.1538 122.249 69.1538C116.742 68.0524 112.337 68.0524 106.83 69.1538C102.425 70.2551 95.8168 68.0524 91.4114 72.4578H90.3101C85.9047 71.3564 81.4994 69.1538 77.094 68.0524C73.79 66.9511 71.5873 66.9511 68.2832 66.9511C64.9792 66.9511 62.7765 68.0524 59.4725 66.9511C56.1685 66.9511 51.7631 65.8497 48.4591 64.7484C42.9524 63.6471 38.547 63.647 33.0403 63.647C31.9389 63.647 30.8376 63.647 29.7362 63.647C23.1282 65.8497 16.5201 68.0524 9.91209 70.2551C7.7094 71.3564 6.60806 72.4578 5.50671 73.5591C6.60806 74.6605 7.7094 75.7618 9.91209 76.8632C13.2161 79.0659 16.5201 80.1672 18.7228 81.2685C18.7228 82.3699 18.7228 82.3699 17.6215 83.4712C16.5201 83.4712 14.3175 82.3699 13.2161 82.3699C9.91208 82.3699 6.60805 81.2685 4.40537 81.2685C3.30403 81.2685 1.10134 83.4712 0 84.5726C1.10134 85.6739 2.20268 87.8766 3.30403 87.8766C6.60806 90.0793 8.81074 91.1806 12.1148 92.2819C8.81074 94.4846 3.30403 96.6873 6.60806 102.194C8.81074 106.599 12.1148 107.701 16.5201 104.397C17.6215 106.599 17.6215 107.701 17.6215 107.701C22.0269 108.802 25.3309 109.903 29.7362 109.903C23.1282 115.41 15.4188 116.512 11.0134 123.12C13.2161 123.12 14.3175 123.12 16.5201 123.12C18.7228 123.12 22.0269 122.018 24.2295 120.917C27.5336 119.816 29.7363 119.816 31.9389 117.613C34.1416 116.512 35.243 114.309 38.547 116.511C41.851 117.613 46.2564 114.309 45.155 111.005C45.155 108.802 45.155 105.498 45.155 103.295C50.6618 108.802 57.2698 107.701 61.6752 101.093C68.2832 102.194 74.8913 104.397 81.4994 106.599C87.0061 107.701 92.5128 108.802 93.6141 115.41L94.7155 116.511C100.222 117.613 101.324 120.917 101.324 125.322C101.324 127.525 104.628 129.728 105.729 130.829C106.83 130.829 109.033 129.728 111.236 128.626C112.337 130.829 113.438 134.133 114.54 136.336C115.641 138.538 116.742 140.741 117.844 141.842C124.452 144.045 125.553 149.552 126.654 155.058C126.654 157.261 126.654 160.565 126.654 162.768C124.452 173.781 132.161 181.491 134.364 191.403C134.364 192.504 136.566 193.605 137.668 193.605C145.377 194.707 148.681 201.315 149.783 207.923C150.884 212.328 156.391 214.531 154.188 220.038L155.289 221.139C157.492 223.342 159.695 225.544 161.897 226.646C164.1 228.848 165.201 231.051 167.404 232.152C168.505 233.254 169.607 233.254 170.708 233.254C170.708 232.152 170.708 231.051 169.607 228.848C167.404 224.443 164.1 220.038 161.897 215.632L162.999 214.531C169.607 221.139 176.215 228.848 180.62 237.659C182.823 242.065 182.823 247.571 189.431 247.571C190.532 247.571 191.634 248.673 191.634 248.673C193.836 256.382 199.343 258.585 205.951 258.585C207.052 258.585 209.255 258.585 210.356 258.585C213.66 256.382 215.863 257.483 216.965 259.686C220.269 264.091 224.674 266.294 230.181 267.395C232.383 267.395 234.586 269.598 234.586 270.699C234.586 277.308 240.093 278.409 243.397 281.713C250.005 287.22 250.005 287.22 257.714 283.916C264.322 291.625 265.424 300.436 258.816 305.942C248.903 312.551 254.41 323.564 252.207 331.273C252.207 331.273 252.207 332.375 253.309 333.476C258.816 337.881 259.917 344.489 262.12 349.996C265.424 357.706 266.525 366.516 276.437 369.82C284.146 372.023 286.349 378.631 285.248 387.442C284.146 394.05 284.146 401.759 284.146 408.367C284.146 409.469 283.045 410.57 283.045 411.671C281.944 414.975 280.842 417.178 279.741 420.482C281.944 423.786 281.944 428.191 280.842 432.597C280.842 434.8 278.64 437.002 278.64 439.205C278.64 442.509 278.64 446.914 277.538 450.218C276.437 456.826 278.64 465.637 272.032 471.144V472.245C272.032 476.651 272.032 482.157 273.133 486.563C273.133 488.765 275.336 490.968 275.336 493.171C277.538 503.083 292.957 509.691 301.768 500.88C300.667 500.88 300.667 500.88 299.565 499.779C294.059 498.677 291.856 495.373 290.754 490.968C290.754 488.765 292.957 485.461 295.16 483.259C297.363 479.955 299.565 477.752 301.768 475.549C299.565 474.448 297.363 473.346 296.261 472.245C297.363 470.042 298.464 468.941 299.565 467.84C301.768 463.434 309.477 461.232 302.869 454.624C306.173 454.624 307.275 454.624 309.477 454.624C308.376 449.117 310.579 448.016 314.984 448.016C319.389 448.016 322.693 446.914 324.896 442.509C325.997 440.306 327.099 438.104 327.099 434.799C333.707 434.799 338.112 430.394 339.214 425.989C341.416 419.381 345.822 416.077 349.126 410.57C350.227 409.469 351.328 407.266 350.227 406.165C348.024 401.759 350.227 399.557 353.531 397.354C357.936 395.151 362.342 394.05 366.747 391.847C367.848 390.746 370.051 390.746 371.152 389.644C375.558 381.935 378.862 374.226 378.862 365.415C378.862 362.111 379.963 358.807 382.166 356.604C384.369 351.097 388.774 346.692 390.977 342.287C395.382 335.679 392.078 330.172 386.571 327.969ZM272.032 157.261C267.626 159.464 264.322 161.667 259.917 163.869C262.12 158.362 264.322 156.16 272.032 157.261ZM258.816 150.653L257.714 151.754C256.613 155.058 255.512 157.261 254.41 161.667C253.309 159.464 252.207 158.363 252.207 157.261C252.207 153.957 252.207 150.653 247.802 151.754C243.397 151.754 242.295 155.058 241.194 158.362C241.194 160.565 241.194 162.768 240.093 166.072C237.89 162.768 236.789 153.957 238.991 150.653C241.194 147.349 244.498 148.45 247.802 148.45C252.207 150.653 255.512 150.653 258.816 150.653ZM246.701 145.146C241.194 145.146 235.687 145.146 229.079 145.146C237.89 136.336 240.093 136.336 246.701 145.146ZM149.783 72.4578C145.377 70.2551 142.073 69.1538 136.566 66.9511C139.871 64.7484 142.073 63.647 144.276 62.5457C146.479 64.7484 148.681 68.0524 150.884 70.2551C149.783 71.3564 149.783 72.4578 149.783 72.4578ZM154.188 54.8363V53.735C155.289 53.735 158.593 52.6336 158.593 53.735C160.796 57.039 164.1 55.9376 167.404 55.9376C170.708 55.9376 172.911 55.9376 176.215 55.9376C170.708 59.2417 161.897 59.2417 154.188 54.8363Z" fill="url(#paint1_linear_798_37634)"/>
<path d="M280.836 41.6162C283.039 41.6162 284.14 40.5148 286.343 40.5148C288.545 39.4135 290.748 37.2108 292.951 36.1095C294.052 35.0081 295.153 35.0081 296.255 33.9068C297.356 32.8054 298.457 31.7041 299.559 30.6028C300.66 29.5014 300.66 27.2987 301.761 27.2987C311.674 22.8934 319.383 12.9813 332.599 19.5893C335.903 21.792 339.207 19.5893 340.308 15.184C341.41 9.67726 341.41 9.67725 345.815 11.8799C350.221 9.67725 353.525 5.27189 357.93 4.17054C371.146 -0.234826 384.362 -2.43751 397.578 4.17054C400.882 5.27189 405.288 5.27189 408.592 4.17054C412.997 4.17054 414.098 5.27188 415.2 8.57591C416.301 12.9813 418.504 17.3867 420.706 20.6907C424.01 25.0961 427.315 21.792 429.517 19.5893C431.72 17.3867 435.024 15.184 438.328 16.2853C439.429 16.2853 441.632 17.3866 442.733 18.488C441.632 19.5893 441.632 21.792 440.531 22.8934C436.125 26.1974 431.72 30.6028 428.416 33.9068C426.213 36.1095 425.112 39.4135 428.416 41.6162C428.416 41.6162 429.517 43.8189 428.416 43.8189C427.315 47.1229 426.213 50.4269 425.112 53.731C424.01 53.731 422.909 53.731 421.808 53.731C416.301 52.6296 415.2 53.731 416.301 58.1363C418.504 65.8457 418.504 66.9471 409.693 70.2511C404.186 72.4538 398.68 72.4538 392.072 74.6565C389.869 75.7578 387.666 76.8592 386.565 77.9605C384.362 81.2645 382.159 81.2645 378.855 81.2645C373.349 81.2645 368.943 82.3659 367.842 88.9739C366.741 93.3793 363.437 96.6833 361.234 99.9873C360.133 102.19 357.93 102.19 355.727 101.089C352.423 98.886 346.917 97.7847 344.714 94.4806C340.308 90.0753 334.802 84.5686 334.802 79.0619C333.7 70.2511 327.092 63.6431 328.194 54.8323C328.194 53.731 325.991 51.5283 323.788 50.4269C314.978 46.0216 306.167 44.9202 296.255 47.1229C295.153 47.1229 294.052 47.1229 292.951 46.0216C287.444 47.1229 285.241 44.9202 280.836 41.6162Z" fill="url(#paint2_linear_798_37634)"/>
<path d="M899.813 428.195C897.61 430.398 895.408 432.6 893.205 434.803C892.104 433.702 892.104 432.6 892.104 431.499C892.104 428.195 889.901 427.094 887.698 424.891C879.989 418.283 873.381 425.992 865.672 424.891C864.57 424.891 863.469 428.195 862.368 429.296C860.165 432.6 859.064 434.803 854.658 432.6C852.455 431.499 850.253 432.6 846.949 433.702C843.645 434.803 841.442 435.905 839.239 435.905C837.037 435.905 834.834 433.702 833.733 432.6C832.631 431.499 833.733 428.195 834.834 428.195C837.037 424.891 837.037 422.688 834.834 420.486C832.631 414.979 831.53 409.472 829.327 403.966C829.327 402.864 828.226 401.763 828.226 400.662C824.922 397.357 826.023 394.053 828.226 391.851C832.631 387.445 835.935 383.04 842.543 383.04C844.746 383.04 848.05 381.939 850.253 379.736C851.354 378.635 852.455 376.432 851.354 374.229C851.354 367.621 851.354 367.621 857.962 367.621C859.064 367.621 861.266 366.52 862.368 364.317C864.57 361.013 866.773 356.608 871.178 362.115C871.178 362.115 874.482 362.115 875.584 361.013C876.685 358.811 877.786 356.608 878.888 354.405C881.09 354.405 882.192 353.304 884.394 353.304C888.8 353.304 892.104 354.405 896.509 355.506C897.611 355.506 897.611 358.811 896.509 359.912C895.408 363.216 896.509 365.419 899.813 366.52C903.117 367.621 905.32 369.824 908.624 372.027C911.928 368.723 913.029 364.317 911.928 359.912C910.827 356.608 910.827 352.202 914.131 348.898C917.435 354.405 920.739 359.912 924.043 365.419C924.043 366.52 925.144 367.621 925.144 368.723C925.144 375.331 928.448 379.736 935.056 380.837C938.36 381.939 939.461 384.141 939.461 387.445C940.563 392.952 942.766 397.358 944.968 401.763C946.07 406.168 949.374 409.472 949.374 413.878C949.374 417.182 948.272 420.486 947.171 422.688C942.766 428.195 938.36 432.6 936.158 439.209C935.056 442.513 925.144 446.918 921.84 445.817C920.739 445.817 920.739 444.715 919.637 445.817C915.232 449.121 911.928 444.715 908.624 443.614C907.523 443.614 907.523 442.513 906.421 442.513C905.32 438.107 902.016 433.702 899.813 428.195Z" fill="url(#paint3_linear_798_37634)"/>
<path d="M903.105 338.981C904.206 334.576 902.004 331.272 896.497 329.069C893.193 327.968 888.787 326.866 884.382 325.765C886.585 321.36 885.483 318.056 881.078 316.954C883.281 312.549 883.281 312.549 886.585 314.752C889.889 315.853 893.193 318.056 897.598 318.056C911.916 318.056 921.828 324.664 929.537 336.778C931.74 340.082 935.044 343.386 937.247 346.69C938.348 347.792 937.247 348.893 937.247 349.995C936.145 349.995 933.943 349.995 933.943 349.995C931.74 347.792 928.436 345.589 927.334 343.386C925.132 340.082 921.828 338.981 919.625 342.285C918.524 343.386 918.524 344.488 917.422 345.589C915.22 348.893 914.118 348.893 911.916 345.589C907.51 342.285 905.308 341.184 903.105 338.981Z" fill="url(#paint4_linear_798_37634)"/>
<path d="M843.645 293.827C843.645 298.233 843.645 301.537 843.645 304.841C843.645 308.145 842.543 310.348 841.442 313.652C840.341 315.854 840.341 319.158 839.239 321.361C838.138 322.462 838.138 324.665 837.037 325.766C828.226 329.07 815.01 318.057 817.213 308.145C817.213 307.044 818.314 305.942 818.314 305.942C823.821 305.942 827.125 301.537 830.429 298.233C832.631 296.03 838.138 294.929 838.138 290.523C839.239 290.523 841.442 290.523 841.442 290.523C842.543 291.625 842.543 292.726 843.645 293.827Z" fill="url(#paint5_linear_798_37634)"/>
<path d="M644.286 364.318C642.084 372.028 639.881 380.838 637.678 388.548C636.577 391.852 635.476 394.055 634.374 397.359C633.273 400.663 629.969 401.764 627.766 400.663C626.665 399.561 625.563 397.359 624.462 395.156C623.361 389.649 624.462 384.142 624.462 379.737C623.361 372.028 625.563 367.622 632.172 364.318C634.374 363.217 635.476 361.014 636.577 358.812C637.678 357.71 639.881 356.609 640.982 354.406C642.084 356.609 643.185 357.71 644.286 359.913C644.286 362.116 643.185 363.217 644.286 364.318Z" fill="url(#paint6_linear_798_37634)"/>
<path d="M776.476 293.836C777.577 293.836 779.78 293.836 780.881 294.937C783.084 297.14 786.388 298.241 788.591 300.444C795.199 305.951 801.807 312.559 807.313 319.167C808.415 320.268 808.415 322.471 807.313 324.674C805.111 331.282 808.415 335.687 815.023 336.788C818.327 336.788 822.732 336.788 826.036 337.89C828.239 337.89 830.442 340.092 831.543 341.194C831.543 342.295 831.543 342.295 830.442 343.396C827.138 343.396 822.732 342.295 819.428 342.295C818.327 342.295 817.226 341.194 816.124 341.194C809.516 342.295 805.111 338.991 800.705 333.484C799.604 332.383 797.401 330.18 795.199 330.18C789.692 329.079 787.489 324.674 787.489 320.268C787.489 312.559 783.084 307.052 777.577 301.545C775.375 300.444 774.273 298.241 773.172 296.039C775.375 293.836 775.375 293.836 776.476 293.836Z" fill="url(#paint7_linear_798_37634)"/>
<path d="M906.412 167.178C905.31 161.671 909.716 158.367 913.02 157.266C916.324 156.164 920.729 159.468 925.134 161.671C924.033 162.772 924.033 163.874 922.932 164.975C920.729 166.076 917.425 166.076 915.222 167.178C910.817 167.178 910.817 169.38 911.918 172.684C914.121 178.191 910.817 188.103 905.31 191.407C898.702 194.711 893.196 199.117 885.486 200.218C884.385 200.218 884.385 201.319 883.283 201.319C882.182 203.522 879.979 205.725 877.777 202.421C875.574 200.218 874.473 196.914 877.777 194.711C882.182 191.407 884.385 188.103 890.993 189.205C897.601 190.306 905.31 181.495 906.412 173.786C906.412 170.482 906.412 168.279 906.412 167.178Z" fill="url(#paint8_linear_798_37634)"/>
<path d="M689.48 52.6469C680.669 51.5456 672.96 51.5456 665.25 55.9509C661.946 58.1536 659.743 59.255 661.946 63.6603C664.149 66.9644 660.845 68.0657 658.642 68.0657C654.237 66.9644 650.933 65.863 646.527 63.6603C646.527 63.6603 646.527 59.255 647.629 59.255C658.642 52.6469 668.554 43.8362 682.872 46.0388C685.074 46.0388 688.378 44.9375 691.682 44.9375C692.784 44.9375 694.986 44.9375 696.088 44.9375C694.986 46.0388 694.986 48.2415 693.885 49.3429C692.784 51.5456 690.581 51.5456 689.48 52.6469Z" fill="url(#paint9_linear_798_37634)"/>
<path d="M450.476 83.4685C447.172 91.1779 436.159 94.4819 430.652 92.2793C429.551 91.1779 427.348 91.1779 426.247 91.1779C422.942 90.0766 420.74 87.8739 421.841 84.5699C422.943 81.2659 426.247 82.3672 428.449 83.4685C431.753 83.4685 435.057 84.5699 438.361 84.5699C442.767 83.4685 446.071 83.4685 450.476 83.4685Z" fill="url(#paint10_linear_798_37634)"/>
<path d="M991.23 474.464C989.027 473.363 986.824 472.262 986.824 471.16C986.824 470.059 986.824 466.755 987.926 465.654C992.331 461.248 996.736 456.843 1002.24 453.539C1003.34 452.437 1005.55 452.438 1006.65 452.438C1007.75 452.438 1008.85 454.64 1007.75 455.741C1006.65 457.944 1005.55 460.147 1004.45 462.35C1002.24 465.654 998.939 467.856 995.635 471.16C995.635 473.363 993.432 474.464 991.23 474.464Z" fill="url(#paint11_linear_798_37634)"/>
<path d="M785.279 276.215C788.583 280.62 791.887 285.026 795.191 289.431C799.596 294.938 800.697 302.647 802.9 309.255C797.393 308.154 794.089 304.85 792.988 300.444C790.785 294.938 787.481 289.431 785.279 282.823C784.177 280.62 785.279 278.418 785.279 276.215Z" fill="url(#paint12_linear_798_37634)"/>
<path d="M853.571 247.566C856.875 249.769 856.875 249.769 853.571 259.681C855.774 260.783 859.078 261.884 861.281 262.985C856.875 266.289 852.47 269.593 849.166 272.897C849.166 272.897 848.065 271.796 849.166 271.796C852.47 268.492 852.47 264.087 849.166 260.783C848.065 259.681 848.065 256.377 849.166 255.276C849.166 251.972 851.369 249.769 853.571 247.566Z" fill="url(#paint13_linear_798_37634)"/>
<path d="M1012.13 454.621C1009.93 452.418 1008.83 450.215 1007.73 448.013C1007.73 443.607 1007.73 439.202 1007.73 433.695C1008.83 434.797 1009.93 434.797 1011.03 436.999C1012.13 440.303 1014.33 443.607 1018.74 443.607C1018.74 443.607 1019.84 444.709 1019.84 445.81C1019.84 446.911 1013.23 454.621 1012.13 454.621Z" fill="url(#paint14_linear_798_37634)"/>
<path d="M845.837 325.775C843.634 316.964 845.837 314.762 853.546 314.762C854.648 314.762 856.85 315.863 857.952 315.863C856.85 316.964 856.85 318.066 855.749 320.268C856.85 321.37 857.952 323.572 857.952 325.775C857.952 326.876 857.952 327.978 857.952 330.181C856.85 330.181 854.648 329.079 853.546 327.978C852.445 326.876 852.445 325.775 851.344 323.572C850.242 324.674 848.04 324.674 845.837 325.775Z" fill="url(#paint15_linear_798_37634)"/>
<path d="M247.801 235.47C250.003 231.064 257.713 231.064 261.017 233.267C264.321 235.47 267.625 237.673 270.929 238.774C272.03 238.774 272.03 240.977 273.132 240.977C272.03 240.977 270.929 242.078 269.828 242.078C263.22 237.673 256.612 234.368 247.801 235.47Z" fill="url(#paint16_linear_798_37634)"/>
<path d="M277.566 248.686C280.87 244.28 284.174 242.078 288.58 243.179C291.884 244.28 294.087 246.483 292.985 251.99C287.478 249.787 283.073 249.787 277.566 248.686Z" fill="url(#paint17_linear_798_37634)"/>
<path d="M732.401 279.512C733.502 280.613 734.604 282.816 734.604 283.917C734.604 288.322 736.806 292.728 731.3 296.032C727.996 290.525 730.198 285.018 731.3 280.613C731.3 279.512 731.3 279.512 732.401 279.512Z" fill="url(#paint18_linear_798_37634)"/>
<path d="M931.771 453.531C932.873 457.937 930.67 462.342 927.366 462.342C922.961 462.342 922.961 457.937 921.859 455.734C925.163 455.734 928.467 454.633 931.771 453.531Z" fill="url(#paint19_linear_798_37634)"/>
<path d="M533.051 178.195C535.253 179.297 537.456 179.297 538.557 180.398C539.659 181.499 539.659 182.601 539.659 183.702C538.557 183.702 536.355 184.803 536.355 184.803C534.152 183.702 533.051 181.499 531.949 180.398C533.051 179.297 533.051 179.297 533.051 178.195Z" fill="url(#paint20_linear_798_37634)"/>
<path d="M853.538 224.438C853.538 226.64 853.538 228.843 853.538 229.944C852.437 231.046 851.335 233.248 850.234 234.35C850.234 234.35 848.031 234.35 848.031 233.248C848.031 231.046 848.031 228.843 849.133 227.742C850.234 226.64 851.335 226.64 853.538 224.438Z" fill="url(#paint21_linear_798_37634)"/>
<path d="M860.143 279.51C857.941 278.409 855.738 277.308 853.535 276.206C854.636 275.105 855.738 274.004 856.839 272.902C857.94 274.004 860.143 276.206 861.245 277.308C861.245 278.409 860.143 278.409 860.143 279.51Z" fill="url(#paint22_linear_798_37634)"/>
<path d="M524.253 172.679C523.151 173.78 522.05 174.882 520.949 174.882C519.847 174.882 518.746 173.78 518.746 172.679C518.746 171.578 519.847 170.476 520.949 169.375C522.05 170.476 523.151 171.578 524.253 172.679Z" fill="url(#paint23_linear_798_37634)"/>
<defs>
<linearGradient id="paint0_linear_798_37634" x1="734.635" y1="41.625" x2="734.635" y2="435.906" gradientUnits="userSpaceOnUse">
<stop stop-color="#0A3F6A"/>
<stop offset="1" stop-color="#0083D5"/>
</linearGradient>
<linearGradient id="paint1_linear_798_37634" x1="196.509" y1="43.6484" x2="196.509" y2="505.001" gradientUnits="userSpaceOnUse">
<stop stop-color="#0A3F6A"/>
<stop offset="1" stop-color="#0083D5"/>
</linearGradient>
<linearGradient id="paint2_linear_798_37634" x1="361.785" y1="0" x2="361.785" y2="101.812" gradientUnits="userSpaceOnUse">
<stop stop-color="#0A3F6A"/>
<stop offset="1" stop-color="#0083D5"/>
</linearGradient>
<linearGradient id="paint3_linear_798_37634" x1="887.757" y1="348.898" x2="887.757" y2="447.024" gradientUnits="userSpaceOnUse">
<stop stop-color="#0A3F6A"/>
<stop offset="1" stop-color="#0083D5"/>
</linearGradient>
<linearGradient id="paint4_linear_798_37634" x1="909.407" y1="313.305" x2="909.407" y2="349.995" gradientUnits="userSpaceOnUse">
<stop stop-color="#0A3F6A"/>
<stop offset="1" stop-color="#0083D5"/>
</linearGradient>
<linearGradient id="paint5_linear_798_37634" x1="830.307" y1="290.523" x2="830.307" y2="326.364" gradientUnits="userSpaceOnUse">
<stop stop-color="#0A3F6A"/>
<stop offset="1" stop-color="#0083D5"/>
</linearGradient>
<linearGradient id="paint6_linear_798_37634" x1="634.13" y1="354.406" x2="634.13" y2="401.076" gradientUnits="userSpaceOnUse">
<stop stop-color="#0A3F6A"/>
<stop offset="1" stop-color="#0083D5"/>
</linearGradient>
<linearGradient id="paint7_linear_798_37634" x1="802.357" y1="293.836" x2="802.357" y2="343.396" gradientUnits="userSpaceOnUse">
<stop stop-color="#0A3F6A"/>
<stop offset="1" stop-color="#0083D5"/>
</linearGradient>
<linearGradient id="paint8_linear_798_37634" x1="900.413" y1="157.047" x2="900.413" y2="204.106" gradientUnits="userSpaceOnUse">
<stop stop-color="#0A3F6A"/>
<stop offset="1" stop-color="#0083D5"/>
</linearGradient>
<linearGradient id="paint9_linear_798_37634" x1="671.308" y1="44.9375" x2="671.308" y2="68.0657" gradientUnits="userSpaceOnUse">
<stop stop-color="#0A3F6A"/>
<stop offset="1" stop-color="#0083D5"/>
</linearGradient>
<linearGradient id="paint10_linear_798_37634" x1="436.015" y1="82.3672" x2="436.015" y2="92.9491" gradientUnits="userSpaceOnUse">
<stop stop-color="#0A3F6A"/>
<stop offset="1" stop-color="#0083D5"/>
</linearGradient>
<linearGradient id="paint11_linear_798_37634" x1="997.515" y1="452.438" x2="997.515" y2="474.464" gradientUnits="userSpaceOnUse">
<stop stop-color="#0A3F6A"/>
<stop offset="1" stop-color="#0083D5"/>
</linearGradient>
<linearGradient id="paint12_linear_798_37634" x1="793.845" y1="276.215" x2="793.845" y2="309.255" gradientUnits="userSpaceOnUse">
<stop stop-color="#0A3F6A"/>
<stop offset="1" stop-color="#0083D5"/>
</linearGradient>
<linearGradient id="paint13_linear_798_37634" x1="854.81" y1="247.566" x2="854.81" y2="272.897" gradientUnits="userSpaceOnUse">
<stop stop-color="#0A3F6A"/>
<stop offset="1" stop-color="#0083D5"/>
</linearGradient>
<linearGradient id="paint14_linear_798_37634" x1="1013.78" y1="433.695" x2="1013.78" y2="454.621" gradientUnits="userSpaceOnUse">
<stop stop-color="#0A3F6A"/>
<stop offset="1" stop-color="#0083D5"/>
</linearGradient>
<linearGradient id="paint15_linear_798_37634" x1="851.49" y1="314.762" x2="851.49" y2="330.181" gradientUnits="userSpaceOnUse">
<stop stop-color="#0A3F6A"/>
<stop offset="1" stop-color="#0083D5"/>
</linearGradient>
<linearGradient id="paint16_linear_798_37634" x1="260.466" y1="231.82" x2="260.466" y2="242.078" gradientUnits="userSpaceOnUse">
<stop stop-color="#0A3F6A"/>
<stop offset="1" stop-color="#0083D5"/>
</linearGradient>
<linearGradient id="paint17_linear_798_37634" x1="285.419" y1="242.898" x2="285.419" y2="251.99" gradientUnits="userSpaceOnUse">
<stop stop-color="#0A3F6A"/>
<stop offset="1" stop-color="#0083D5"/>
</linearGradient>
<linearGradient id="paint18_linear_798_37634" x1="732.297" y1="279.512" x2="732.297" y2="296.032" gradientUnits="userSpaceOnUse">
<stop stop-color="#0A3F6A"/>
<stop offset="1" stop-color="#0083D5"/>
</linearGradient>
<linearGradient id="paint19_linear_798_37634" x1="926.959" y1="453.531" x2="926.959" y2="462.342" gradientUnits="userSpaceOnUse">
<stop stop-color="#0A3F6A"/>
<stop offset="1" stop-color="#0083D5"/>
</linearGradient>
<linearGradient id="paint20_linear_798_37634" x1="535.804" y1="178.195" x2="535.804" y2="184.803" gradientUnits="userSpaceOnUse">
<stop stop-color="#0A3F6A"/>
<stop offset="1" stop-color="#0083D5"/>
</linearGradient>
<linearGradient id="paint21_linear_798_37634" x1="850.785" y1="224.438" x2="850.785" y2="234.35" gradientUnits="userSpaceOnUse">
<stop stop-color="#0A3F6A"/>
<stop offset="1" stop-color="#0083D5"/>
</linearGradient>
<linearGradient id="paint22_linear_798_37634" x1="857.39" y1="272.902" x2="857.39" y2="279.51" gradientUnits="userSpaceOnUse">
<stop stop-color="#0A3F6A"/>
<stop offset="1" stop-color="#0083D5"/>
</linearGradient>
<linearGradient id="paint23_linear_798_37634" x1="521.499" y1="169.375" x2="521.499" y2="174.882" gradientUnits="userSpaceOnUse">
<stop stop-color="#0A3F6A"/>
<stop offset="1" stop-color="#0083D5"/>
</linearGradient>
</defs>
</svg>
