<svg width="206" height="186" viewBox="0 0 206 186" fill="none" xmlns="http://www.w3.org/2000/svg">
<mask id="mask0_1131_46040" style="mask-type:alpha" maskUnits="userSpaceOnUse" x="0" y="45" width="113" height="141">
<path d="M46.1344 51.5727C49.0302 43.0819 61.0069 42.9925 64.029 51.4392L112.012 185.547H0.441406L46.1344 51.5727Z" fill="#009BA3"/>
</mask>
<g mask="url(#mask0_1131_46040)">
<rect x="8.64062" y="28.7031" width="115.347" height="171.16" fill="#008E99"/>
<path d="M0.441406 39.8594H55.5139V185.547H0.441406V39.8594Z" fill="url(#paint0_linear_1131_46040)"/>
</g>
<mask id="mask1_1131_46040" style="mask-type:alpha" maskUnits="userSpaceOnUse" x="94" y="45" width="112" height="141">
<path d="M140.08 51.5727C142.976 43.0819 154.952 42.9925 157.974 51.4392L205.957 185.547H94.3867L140.08 51.5727Z" fill="#009BA3"/>
</mask>
<g mask="url(#mask1_1131_46040)">
<rect x="102.574" y="28.7031" width="115.347" height="171.16" fill="#008E99"/>
<path d="M94.3867 39.8594H149.459V185.547H94.3867V39.8594Z" fill="url(#paint1_linear_1131_46040)"/>
</g>
<mask id="mask2_1131_46040" style="mask-type:alpha" maskUnits="userSpaceOnUse" x="37" y="22" width="131" height="164">
<path d="M90.9842 29.8391C94.3499 19.9709 108.269 19.8671 111.782 29.684L167.548 185.547H37.8789L90.9842 29.8391Z" fill="#009BA3"/>
</mask>
<g mask="url(#mask2_1131_46040)">
<rect x="47.3984" y="3.25781" width="134.059" height="198.926" fill="#008E99"/>
<path d="M37.8789 16.2266H101.885V185.548H37.8789V16.2266Z" fill="url(#paint2_linear_1131_46040)"/>
</g>
<defs>
<linearGradient id="paint0_linear_1131_46040" x1="0.441406" y1="112.703" x2="55.5139" y2="112.703" gradientUnits="userSpaceOnUse">
<stop stop-color="#00444A"/>
<stop offset="1" stop-color="#00444A" stop-opacity="0"/>
</linearGradient>
<linearGradient id="paint1_linear_1131_46040" x1="94.3867" y1="112.703" x2="149.459" y2="112.703" gradientUnits="userSpaceOnUse">
<stop stop-color="#00444A"/>
<stop offset="1" stop-color="#00444A" stop-opacity="0"/>
</linearGradient>
<linearGradient id="paint2_linear_1131_46040" x1="37.8789" y1="100.887" x2="101.885" y2="100.887" gradientUnits="userSpaceOnUse">
<stop stop-color="#00444A"/>
<stop offset="1" stop-color="#00444A" stop-opacity="0"/>
</linearGradient>
</defs>
</svg>
