<svg width="2657" height="96" viewBox="0 0 2657 96" fill="none" xmlns="http://www.w3.org/2000/svg">
<path d="M77.6504 0.851562C79.8235 0.895955 81.6832 1.25698 83.3408 1.87109V1.91699C85.6058 2.77784 87.4931 4.11111 89.2852 5.74902C89.3042 5.76632 89.3238 5.78342 89.3428 5.80078C89.5132 5.95737 89.6835 6.11638 89.8525 6.27832C91.1756 7.53888 92.4647 8.95857 93.8311 10.4717C95.2986 12.1016 96.866 13.8401 98.6289 15.5059C103.216 19.8266 109.123 23.6578 118.047 23.7871C118.193 23.7891 118.341 23.791 118.489 23.791C118.498 23.791 118.506 23.79 118.515 23.79L118.528 23.7744C121.869 23.7744 124.793 23.2592 127.386 22.3926C134.578 19.969 139.213 14.8297 143.147 10.4717C147.912 5.20023 151.687 1.00995 159.434 0.851562H160.348C162.405 0.893581 164.18 1.22186 165.77 1.77734V1.70605C168.3 2.55136 170.358 3.97114 172.303 5.74902C172.322 5.76632 172.341 5.78342 172.36 5.80078C172.531 5.95737 172.701 6.11638 172.87 6.27832C174.193 7.53888 175.482 8.95857 176.849 10.4717C178.316 12.1016 179.884 13.8401 181.646 15.5059C186.233 19.8266 192.14 23.6578 201.064 23.7871C201.211 23.7891 201.359 23.791 201.507 23.791C201.515 23.791 201.524 23.79 201.532 23.79L201.546 23.7744C204.887 23.7744 207.811 23.2592 210.403 22.3926C217.595 19.969 222.231 14.8297 226.165 10.4717C230.929 5.20023 234.704 1.00995 242.451 0.851562H243.365C245.422 0.893581 247.197 1.22186 248.787 1.77734V1.70605C251.318 2.55136 253.375 3.97114 255.32 5.74902C255.339 5.76632 255.359 5.78342 255.378 5.80078C255.548 5.95737 255.719 6.11638 255.888 6.27832C257.211 7.53888 258.5 8.95857 259.866 10.4717C261.334 12.1016 262.901 13.8401 264.664 15.5059C269.251 19.8266 275.158 23.6578 284.082 23.7871C284.229 23.7891 284.376 23.791 284.524 23.791C284.533 23.791 284.541 23.79 284.55 23.79L284.563 23.7744C287.904 23.7744 290.828 23.2592 293.421 22.3926C300.613 19.969 305.249 14.8297 309.183 10.4717C313.947 5.20023 317.722 1.00995 325.469 0.851562H326.383C328.44 0.893581 330.215 1.22186 331.805 1.77734V1.70605C334.336 2.55136 336.393 3.97114 338.338 5.74902C338.357 5.76632 338.377 5.78342 338.396 5.80078C338.566 5.95737 338.736 6.11638 338.905 6.27832C340.228 7.53888 341.517 8.95857 342.884 10.4717C344.351 12.1016 345.919 13.8401 347.682 15.5059C352.268 19.8266 358.176 23.6578 367.1 23.7871C367.246 23.7891 367.394 23.791 367.542 23.791C367.55 23.791 367.559 23.79 367.567 23.79L367.581 23.7744C370.922 23.7744 373.846 23.2592 376.438 22.3926C383.63 19.969 388.266 14.8297 392.2 10.4717C396.965 5.20023 400.74 1.00995 408.486 0.851562H409.4C411.457 0.893581 413.233 1.22186 414.822 1.77734V1.70605C417.353 2.55136 419.41 3.97114 421.355 5.74902C421.374 5.76632 421.394 5.78342 421.413 5.80078C421.584 5.95737 421.754 6.11638 421.923 6.27832C423.246 7.53888 424.535 8.95857 425.901 10.4717C427.369 12.1016 428.936 13.8401 430.699 15.5059C435.286 19.8266 441.193 23.6578 450.117 23.7871C450.264 23.7891 450.411 23.791 450.56 23.791C450.568 23.791 450.576 23.79 450.585 23.79L450.599 23.7744C453.94 23.7744 456.863 23.2592 459.456 22.3926C466.648 19.969 471.284 14.8297 475.218 10.4717C479.982 5.20023 483.757 1.00995 491.504 0.851562H492.418C494.475 0.893581 496.25 1.22186 497.84 1.77734V1.70605C500.371 2.55136 502.428 3.97114 504.373 5.74902C504.392 5.76632 504.412 5.78342 504.431 5.80078C504.601 5.95737 504.771 6.11638 504.94 6.27832C506.263 7.53888 507.553 8.95857 508.919 10.4717C510.386 12.1016 511.954 13.8401 513.717 15.5059C518.304 19.8266 524.211 23.6578 533.135 23.7871C533.281 23.7891 533.429 23.791 533.577 23.791C533.586 23.791 533.594 23.79 533.603 23.79L533.616 23.7744C536.957 23.7744 539.881 23.2592 542.474 22.3926C549.665 19.969 554.301 14.8297 558.235 10.4717C563 5.20023 566.775 1.00995 574.521 0.851562H575.436C577.492 0.893581 579.268 1.22186 580.857 1.77734V1.70605C583.388 2.55136 585.445 3.97114 587.391 5.74902C587.41 5.76632 587.429 5.78342 587.448 5.80078C587.619 5.95737 587.789 6.11638 587.958 6.27832C589.281 7.53888 590.57 8.95857 591.937 10.4717C593.404 12.1016 594.972 13.8401 596.734 15.5059C601.321 19.8266 607.228 23.6578 616.152 23.7871C616.299 23.7891 616.446 23.791 616.595 23.791C616.603 23.791 616.612 23.79 616.62 23.79L616.634 23.7744C619.975 23.7744 622.898 23.2592 625.491 22.3926C632.683 19.969 637.319 14.8297 641.253 10.4717C646.017 5.20023 649.792 1.00995 657.539 0.851562H658.453C660.51 0.893581 662.285 1.22186 663.875 1.77734V1.70605C666.406 2.55136 668.463 3.97114 670.408 5.74902C670.427 5.76632 670.447 5.78342 670.466 5.80078C670.636 5.95737 670.807 6.11638 670.976 6.27832C672.299 7.53888 673.588 8.95857 674.954 10.4717C676.422 12.1016 677.989 13.8401 679.752 15.5059C684.339 19.8266 690.246 23.6578 699.17 23.7871C699.317 23.7891 699.464 23.791 699.612 23.791C699.621 23.791 699.629 23.79 699.638 23.79L699.651 23.7744C702.992 23.7744 705.916 23.2592 708.509 22.3926C715.701 19.969 720.337 14.8297 724.271 10.4717C729.035 5.20023 732.81 1.00995 740.557 0.851562H741.471C743.528 0.893581 745.303 1.22186 746.893 1.77734V1.70605C749.423 2.55136 751.481 3.97114 753.426 5.74902C753.445 5.76632 753.464 5.78342 753.483 5.80078C753.654 5.95737 753.824 6.11638 753.993 6.27832C755.316 7.53888 756.605 8.95857 757.972 10.4717C759.439 12.1016 761.007 13.8401 762.77 15.5059C767.356 19.8266 773.263 23.6578 782.188 23.7871C782.334 23.7891 782.482 23.791 782.63 23.791C782.638 23.791 782.647 23.79 782.655 23.79L782.669 23.7744C786.01 23.7744 788.934 23.2592 791.526 22.3926C798.718 19.969 803.354 14.8297 807.288 10.4717C812.053 5.20023 815.827 1.00995 823.574 0.851562H824.488C826.545 0.893581 828.32 1.22186 829.91 1.77734V1.70605C832.441 2.55136 834.498 3.97114 836.443 5.74902C836.462 5.76632 836.482 5.78342 836.501 5.80078C836.671 5.95737 836.842 6.11638 837.011 6.27832C838.334 7.53888 839.623 8.95857 840.989 10.4717C842.457 12.1016 844.024 13.8401 845.787 15.5059C850.374 19.8266 856.281 23.6578 865.205 23.7871C865.352 23.7891 865.499 23.791 865.647 23.791C865.656 23.791 865.664 23.79 865.673 23.79L865.687 23.7744C869.027 23.7744 871.951 23.2592 874.544 22.3926C881.736 19.969 886.372 14.8297 890.306 10.4717C895.07 5.20023 898.845 1.00995 906.592 0.851562H907.506C909.563 0.893581 911.338 1.22186 912.928 1.77734V1.70605C915.459 2.55136 917.516 3.97114 919.461 5.74902C919.48 5.76632 919.5 5.78342 919.519 5.80078C919.689 5.95737 919.859 6.11638 920.028 6.27832C921.351 7.53888 922.64 8.95857 924.007 10.4717C925.474 12.1016 927.042 13.8401 928.805 15.5059C933.391 19.8266 939.299 23.6578 948.223 23.7871C948.369 23.7891 948.517 23.791 948.665 23.791C948.674 23.791 948.682 23.79 948.69 23.79L948.704 23.7744C952.045 23.7744 954.969 23.2592 957.562 22.3926C964.753 19.969 969.389 14.8297 973.323 10.4717C978.088 5.20023 981.863 1.00995 989.609 0.851562H990.523C992.58 0.893581 994.356 1.22186 995.945 1.77734V1.70605C998.476 2.55136 1000.53 3.97114 1002.48 5.74902C1002.5 5.76632 1002.52 5.78342 1002.54 5.80078C1002.71 5.95737 1002.88 6.11638 1003.05 6.27832C1004.37 7.53888 1005.66 8.95857 1007.02 10.4717C1008.49 12.1016 1010.06 13.8401 1011.82 15.5059C1016.41 19.8266 1022.32 23.6578 1031.24 23.7871C1031.39 23.7891 1031.53 23.791 1031.68 23.791C1031.69 23.791 1031.7 23.79 1031.71 23.79L1031.72 23.7744C1035.06 23.7744 1037.99 23.2592 1040.58 22.3926C1047.77 19.969 1052.41 14.8297 1056.34 10.4717C1061.11 5.20023 1064.88 1.00995 1072.63 0.851562H1073.54C1075.6 0.893581 1077.37 1.22186 1078.96 1.77734V1.70605C1081.49 2.55136 1083.55 3.97114 1085.5 5.74902C1085.52 5.76632 1085.53 5.78342 1085.55 5.80078C1085.72 5.95737 1085.89 6.11638 1086.06 6.27832C1087.39 7.53888 1088.68 8.95857 1090.04 10.4717C1091.51 12.1016 1093.08 13.8401 1094.84 15.5059C1099.43 19.8266 1105.33 23.6578 1114.26 23.7871C1114.4 23.7891 1114.55 23.791 1114.7 23.791C1114.71 23.791 1114.72 23.79 1114.73 23.79L1114.74 23.7744C1118.08 23.7744 1121 23.2592 1123.6 22.3926C1130.79 19.969 1135.42 14.8297 1139.36 10.4717C1144.12 5.20023 1147.9 1.00995 1155.64 0.851562H1156.56C1158.62 0.893581 1160.39 1.22186 1161.98 1.77734V1.70605C1164.51 2.55136 1166.57 3.97114 1168.51 5.74902C1168.53 5.76632 1168.55 5.78342 1168.57 5.80078C1168.74 5.95737 1168.91 6.11638 1169.08 6.27832C1170.4 7.53888 1171.69 8.95857 1173.06 10.4717C1174.53 12.1016 1176.09 13.8401 1177.86 15.5059C1182.44 19.8266 1188.35 23.6578 1197.28 23.7871C1197.42 23.7891 1197.57 23.791 1197.72 23.791C1197.73 23.791 1197.73 23.79 1197.74 23.79L1197.76 23.7744C1201.1 23.7744 1204.02 23.2592 1206.61 22.3926C1213.81 19.969 1218.44 14.8297 1222.38 10.4717C1227.14 5.20023 1230.92 1.00995 1238.66 0.851562H1239.58C1241.63 0.893581 1243.41 1.22186 1245 1.77734V1.70605C1247.53 2.55136 1249.59 3.97114 1251.53 5.74902C1251.55 5.76632 1251.57 5.78342 1251.59 5.80078C1251.76 5.95737 1251.93 6.11638 1252.1 6.27832C1253.42 7.53888 1254.71 8.95857 1256.08 10.4717C1257.54 12.1016 1259.11 13.8401 1260.88 15.5059C1265.46 19.8266 1271.37 23.6578 1280.29 23.7871C1280.44 23.7891 1280.59 23.791 1280.74 23.791C1280.74 23.791 1280.75 23.79 1280.76 23.79L1280.77 23.7744C1284.12 23.7744 1287.04 23.2592 1289.63 22.3926C1296.82 19.969 1301.46 14.8297 1305.39 10.4717C1310.16 5.20023 1313.93 1.00995 1321.68 0.851562H1322.59C1324.65 0.893581 1326.43 1.22186 1328.02 1.77734V1.70605C1330.55 2.55136 1332.6 3.97114 1334.55 5.74902C1334.57 5.76632 1334.59 5.78342 1334.61 5.80078C1334.78 5.95737 1334.95 6.11638 1335.12 6.27832C1336.44 7.53888 1337.73 8.95857 1339.09 10.4717C1340.56 12.1016 1342.13 13.8401 1343.89 15.5059C1348.48 19.8266 1354.39 23.6578 1363.31 23.7871C1363.46 23.7891 1363.6 23.791 1363.75 23.791C1363.76 23.791 1363.77 23.79 1363.78 23.79L1363.79 23.7744C1367.13 23.7744 1370.06 23.2592 1372.65 22.3926C1379.84 19.969 1384.48 14.8297 1388.41 10.4717C1393.18 5.20023 1396.95 1.00995 1404.7 0.851562H1405.61C1407.67 0.893581 1409.44 1.22186 1411.03 1.77734V1.70605C1413.56 2.55136 1415.62 3.97114 1417.57 5.74902C1417.59 5.76632 1417.61 5.78342 1417.62 5.80078C1417.79 5.95737 1417.96 6.11638 1418.13 6.27832C1419.46 7.53888 1420.75 8.95857 1422.11 10.4717C1423.58 12.1016 1425.15 13.8401 1426.91 15.5059C1431.5 19.8266 1437.4 23.6578 1446.33 23.7871C1446.47 23.7891 1446.62 23.791 1446.77 23.791C1446.78 23.791 1446.79 23.79 1446.8 23.79L1446.81 23.7744C1450.15 23.7744 1453.07 23.2592 1455.67 22.3926C1462.86 19.969 1467.49 14.8297 1471.43 10.4717C1476.19 5.20023 1479.97 1.00995 1487.71 0.851562H1488.63C1490.69 0.893581 1492.46 1.22186 1494.05 1.77734V1.70605C1496.58 2.55136 1498.64 3.97114 1500.58 5.74902C1500.6 5.76632 1500.62 5.78342 1500.64 5.80078C1500.81 5.95737 1500.98 6.11638 1501.15 6.27832C1502.47 7.53888 1503.76 8.95857 1505.13 10.4717C1506.6 12.1016 1508.16 13.8401 1509.93 15.5059C1514.51 19.8266 1520.42 23.6578 1529.35 23.7871C1529.49 23.7891 1529.64 23.791 1529.79 23.791C1529.8 23.791 1529.81 23.79 1529.81 23.79L1529.83 23.7744C1533.17 23.7744 1536.09 23.2592 1538.68 22.3926C1545.88 19.969 1550.51 14.8297 1554.45 10.4717C1559.21 5.20023 1562.99 1.00995 1570.73 0.851562H1571.65C1573.7 0.893581 1575.48 1.22186 1577.07 1.77734V1.70605C1579.6 2.55136 1581.66 3.97114 1583.6 5.74902C1583.62 5.76632 1583.64 5.78342 1583.66 5.80078C1583.83 5.95737 1584 6.11638 1584.17 6.27832C1585.49 7.53888 1586.78 8.95857 1588.15 10.4717C1589.61 12.1016 1591.18 13.8401 1592.95 15.5059C1597.53 19.8266 1603.44 23.6578 1612.36 23.7871C1612.51 23.7891 1612.66 23.791 1612.81 23.791C1612.81 23.791 1612.82 23.79 1612.83 23.79L1612.84 23.7744C1616.19 23.7744 1619.11 23.2592 1621.7 22.3926C1628.89 19.969 1633.53 14.8297 1637.46 10.4717C1642.23 5.20023 1646 1.00995 1653.75 0.851562H1654.66C1656.72 0.893581 1658.5 1.22186 1660.09 1.77734V1.70605C1662.62 2.55136 1664.67 3.97114 1666.62 5.74902C1666.64 5.76632 1666.66 5.78342 1666.68 5.80078C1666.85 5.95737 1667.02 6.11638 1667.19 6.27832C1668.51 7.53888 1669.8 8.95857 1671.17 10.4717C1672.63 12.1016 1674.2 13.8401 1675.96 15.5059C1680.55 19.8266 1686.46 23.6578 1695.38 23.7871C1695.53 23.7891 1695.68 23.791 1695.82 23.791C1695.83 23.791 1695.84 23.79 1695.85 23.79L1695.86 23.7744C1699.2 23.7744 1702.13 23.2592 1704.72 22.3926C1711.91 19.969 1716.55 14.8297 1720.48 10.4717C1725.25 5.20023 1729.02 1.00995 1736.77 0.851562H1737.68C1739.74 0.893581 1741.51 1.22186 1743.1 1.77734V1.70605C1745.63 2.55136 1747.69 3.97114 1749.64 5.74902C1749.66 5.76632 1749.68 5.78342 1749.69 5.80078C1749.86 5.95737 1750.04 6.11638 1750.2 6.27832C1751.53 7.53888 1752.82 8.95857 1754.18 10.4717C1755.65 12.1016 1757.22 13.8401 1758.98 15.5059C1763.57 19.8266 1769.47 23.6578 1778.4 23.7871C1778.55 23.7891 1778.69 23.791 1778.84 23.791C1778.85 23.791 1778.86 23.79 1778.87 23.79L1778.88 23.7744C1782.22 23.7744 1785.14 23.2592 1787.74 22.3926C1794.93 19.969 1799.57 14.8297 1803.5 10.4717C1808.26 5.20023 1812.04 1.00995 1819.79 0.851562H1820.7C1822.76 0.893581 1824.53 1.22186 1826.12 1.77734V1.70605C1828.65 2.55136 1830.71 3.97114 1832.65 5.74902C1832.67 5.76632 1832.69 5.78342 1832.71 5.80078C1832.88 5.95737 1833.05 6.11638 1833.22 6.27832C1834.54 7.53888 1835.83 8.95857 1837.2 10.4717C1838.67 12.1016 1840.24 13.8401 1842 15.5059C1846.58 19.8266 1852.49 23.6578 1861.42 23.7871C1861.56 23.7891 1861.71 23.791 1861.86 23.791C1861.87 23.791 1861.88 23.79 1861.88 23.79L1861.9 23.7744C1865.24 23.7744 1868.16 23.2592 1870.75 22.3926C1877.95 19.969 1882.58 14.8297 1886.52 10.4717C1891.28 5.20023 1895.06 1.00995 1902.8 0.851562H1903.72C1905.77 0.893581 1907.55 1.22186 1909.14 1.77734V1.70605C1911.67 2.55136 1913.73 3.97114 1915.67 5.74902C1915.69 5.76632 1915.71 5.78342 1915.73 5.80078C1915.9 5.95737 1916.07 6.11638 1916.24 6.27832C1917.56 7.53888 1918.85 8.95857 1920.22 10.4717C1921.69 12.1016 1923.25 13.8401 1925.02 15.5059C1929.6 19.8266 1935.51 23.6578 1944.43 23.7871C1944.58 23.7891 1944.73 23.791 1944.88 23.791C1944.88 23.791 1944.89 23.79 1944.9 23.79L1944.92 23.7744C1948.26 23.7744 1951.18 23.2592 1953.77 22.3926C1960.96 19.969 1965.6 14.8297 1969.53 10.4717C1974.3 5.20023 1978.07 1.00995 1985.82 0.851562H1986.73C1988.79 0.893581 1990.57 1.22186 1992.16 1.77734V1.70605C1994.69 2.55136 1996.74 3.97114 1998.69 5.74902C1998.71 5.76632 1998.73 5.78342 1998.75 5.80078C1998.92 5.95737 1999.09 6.11638 1999.26 6.27832C2000.58 7.53888 2001.87 8.95857 2003.24 10.4717C2004.7 12.1016 2006.27 13.8401 2008.03 15.5059C2012.62 19.8266 2018.53 23.6578 2027.45 23.7871C2027.6 23.7891 2027.75 23.791 2027.89 23.791C2027.9 23.791 2027.91 23.79 2027.92 23.79L2027.93 23.7744C2031.27 23.7744 2034.2 23.2592 2036.79 22.3926C2043.98 19.969 2048.62 14.8297 2052.55 10.4717C2057.32 5.20023 2061.09 1.00995 2068.84 0.851562H2069.75C2071.81 0.893581 2073.58 1.22186 2075.17 1.77734V1.70605C2077.7 2.55136 2079.76 3.97114 2081.71 5.74902C2081.73 5.76632 2081.75 5.78342 2081.76 5.80078C2081.94 5.95737 2082.11 6.11638 2082.27 6.27832C2083.6 7.53888 2084.89 8.95857 2086.25 10.4717C2087.72 12.1016 2089.29 13.8401 2091.05 15.5059C2095.64 19.8266 2101.54 23.6578 2110.47 23.7871C2110.62 23.7891 2110.76 23.791 2110.91 23.791C2110.92 23.791 2110.93 23.79 2110.94 23.79L2110.95 23.7744C2114.29 23.7744 2117.21 23.2592 2119.81 22.3926C2127 19.969 2131.64 14.8297 2135.57 10.4717C2140.33 5.20023 2144.11 1.00995 2151.86 0.851562H2152.77C2154.83 0.893581 2156.6 1.22186 2158.19 1.77734V1.70605C2160.72 2.55136 2162.78 3.97114 2164.72 5.74902C2164.74 5.76632 2164.76 5.78342 2164.78 5.80078C2164.95 5.95737 2165.12 6.11638 2165.29 6.27832C2166.62 7.53888 2167.9 8.95857 2169.27 10.4717C2170.74 12.1016 2172.31 13.8401 2174.07 15.5059C2178.66 19.8266 2184.56 23.6578 2193.49 23.7871C2193.63 23.7891 2193.78 23.791 2193.93 23.791C2193.94 23.791 2193.95 23.79 2193.95 23.79L2193.97 23.7744C2197.31 23.7744 2200.23 23.2592 2202.83 22.3926C2210.02 19.969 2214.65 14.8297 2218.59 10.4717C2223.35 5.20023 2227.13 1.00995 2234.87 0.851562H2235.79C2237.84 0.893581 2239.62 1.22186 2241.21 1.77734V1.70605C2243.74 2.55136 2245.8 3.97114 2247.74 5.74902C2247.76 5.76632 2247.78 5.78342 2247.8 5.80078C2247.97 5.95737 2248.14 6.11638 2248.31 6.27832C2249.63 7.53888 2250.92 8.95857 2252.29 10.4717C2253.76 12.1016 2255.32 13.8401 2257.09 15.5059C2261.67 19.8266 2267.58 23.6578 2276.5 23.7871C2276.65 23.7891 2276.8 23.791 2276.95 23.791C2276.95 23.791 2276.96 23.79 2276.97 23.79L2276.99 23.7744C2280.33 23.7744 2283.25 23.2592 2285.84 22.3926C2293.03 19.969 2297.67 14.8297 2301.6 10.4717C2306.37 5.20023 2310.14 1.00995 2317.89 0.851562H2318.8C2320.86 0.893581 2322.64 1.22186 2324.23 1.77734V1.70605C2326.76 2.55136 2328.81 3.97114 2330.76 5.74902C2330.78 5.76632 2330.8 5.78342 2330.82 5.80078C2330.99 5.95737 2331.16 6.11638 2331.33 6.27832C2332.65 7.53888 2333.94 8.95857 2335.31 10.4717C2336.77 12.1016 2338.34 13.8401 2340.1 15.5059C2344.69 19.8266 2350.6 23.6578 2359.52 23.7871C2359.67 23.7891 2359.82 23.791 2359.96 23.791C2359.97 23.791 2359.98 23.79 2359.99 23.79L2360 23.7744C2363.34 23.7744 2366.27 23.2592 2368.86 22.3926C2376.05 19.969 2380.69 14.8297 2384.62 10.4717C2389.39 5.20023 2393.16 1.00995 2400.91 0.851562H2401.82C2403.88 0.893581 2405.65 1.22186 2407.24 1.77734V1.70605C2409.77 2.55136 2411.83 3.97114 2413.78 5.74902C2413.8 5.76632 2413.82 5.78342 2413.83 5.80078C2414.01 5.95737 2414.18 6.11638 2414.34 6.27832C2415.67 7.53888 2416.96 8.95857 2418.32 10.4717C2419.79 12.1016 2421.36 13.8401 2423.12 15.5059C2427.71 19.8266 2433.62 23.6578 2442.54 23.7871C2442.69 23.7891 2442.83 23.791 2442.98 23.791C2442.99 23.791 2443 23.79 2443.01 23.79L2443.02 23.7744C2446.36 23.7744 2449.29 23.2592 2451.88 22.3926C2459.07 19.969 2463.71 14.8297 2467.64 10.4717C2472.4 5.20023 2476.18 1.00995 2483.93 0.851562H2484.84C2486.9 0.893581 2488.67 1.22186 2490.26 1.77734V1.70605C2492.79 2.55136 2494.85 3.97114 2496.79 5.74902C2496.81 5.76632 2496.83 5.78342 2496.85 5.80078C2497.02 5.95737 2497.19 6.11638 2497.36 6.27832C2498.69 7.53888 2499.97 8.95857 2501.34 10.4717C2502.81 12.1016 2504.38 13.8401 2506.14 15.5059C2510.73 19.8266 2516.63 23.6578 2525.56 23.7871C2525.7 23.7891 2525.85 23.791 2526 23.791C2526.01 23.791 2526.02 23.79 2526.02 23.79L2526.04 23.7744C2529.38 23.7744 2532.3 23.2592 2534.9 22.3926C2542.09 19.969 2546.72 14.8297 2550.66 10.4717C2555.42 5.20023 2559.2 1.00995 2566.94 0.851562H2567.86C2569.91 0.893581 2571.69 1.22186 2573.28 1.77734V1.70605C2575.81 2.55136 2577.87 3.97114 2579.81 5.74902C2579.83 5.76632 2579.85 5.78342 2579.87 5.80078C2580.04 5.95737 2580.21 6.11638 2580.38 6.27832C2581.7 7.53888 2582.99 8.95857 2584.36 10.4717C2585.83 12.1016 2587.39 13.8401 2589.16 15.5059C2593.74 19.8266 2599.65 23.6578 2608.57 23.7871C2608.72 23.7891 2608.87 23.791 2609.02 23.791C2609.03 23.791 2609.03 23.79 2609.04 23.79L2609.06 23.7744C2612.4 23.7744 2615.32 23.2592 2617.91 22.3926C2625.1 19.969 2629.74 14.8297 2633.67 10.4717C2638.44 5.20023 2642.21 1.00995 2649.96 0.851562H2650.88C2653.05 0.895955 2654.91 1.25698 2656.57 1.87109V73.542C2654.68 73.1332 2652.64 72.9043 2650.42 72.9043C2648.4 72.9043 2646.53 73.0929 2644.8 73.4336V73.5137C2635.76 75.3436 2630.31 81.2613 2625.83 86.207C2620.97 91.598 2617.13 95.8515 2609.06 95.8516C2609.05 95.8516 2609.04 95.8506 2609.04 95.8506C2609.03 95.8506 2609.02 95.8516 2609.02 95.8516C2600.96 95.8516 2597.13 91.5978 2592.27 86.2236C2587.82 81.2615 2582.37 75.3601 2573.33 73.5303V73.4971C2571.51 73.1174 2569.54 72.9043 2567.4 72.9043C2565.38 72.9043 2563.52 73.0929 2561.78 73.4336V73.5137C2552.74 75.3436 2547.3 81.2613 2542.81 86.207C2537.95 91.598 2534.11 95.8515 2526.04 95.8516C2526.03 95.8516 2526.02 95.8506 2526.02 95.8506C2526.01 95.8506 2526.01 95.8516 2526 95.8516C2517.94 95.8516 2514.11 91.5978 2509.25 86.2236C2504.8 81.2615 2499.35 75.3601 2490.31 73.5303V73.4971C2488.49 73.1174 2486.52 72.9043 2484.38 72.9043C2482.36 72.9043 2480.5 73.0929 2478.76 73.4336V73.5137C2469.72 75.3436 2464.28 81.2613 2459.79 86.207C2454.93 91.598 2451.09 95.8515 2443.02 95.8516C2443.01 95.8516 2443.01 95.8506 2443 95.8506C2442.99 95.8506 2442.99 95.8516 2442.98 95.8516C2434.92 95.8516 2431.09 91.5978 2426.24 86.2236C2421.78 81.2615 2416.34 75.3601 2407.29 73.5303V73.4971C2405.47 73.1174 2403.51 72.9043 2401.37 72.9043C2399.35 72.9043 2397.48 73.0929 2395.75 73.4336V73.5137C2386.7 75.3436 2381.26 81.2613 2376.77 86.207C2371.92 91.598 2368.07 95.8515 2360 95.8516C2360 95.8516 2359.99 95.8506 2359.98 95.8506C2359.98 95.8506 2359.97 95.8516 2359.96 95.8516C2351.91 95.8516 2348.08 91.5978 2343.22 86.2236C2338.76 81.2615 2333.32 75.3601 2324.28 73.5303V73.4971C2322.46 73.1174 2320.49 72.9043 2318.35 72.9043C2316.33 72.9043 2314.46 73.0929 2312.73 73.4336V73.5137C2303.69 75.3436 2298.24 81.2613 2293.76 86.207C2288.9 91.598 2285.06 95.8515 2276.99 95.8516C2276.98 95.8516 2276.97 95.8506 2276.96 95.8506C2276.96 95.8506 2276.95 95.8516 2276.95 95.8516C2268.89 95.8516 2265.06 91.5978 2260.2 86.2236C2255.74 81.2615 2250.3 75.3601 2241.26 73.5303V73.4971C2239.44 73.1174 2237.47 72.9043 2235.33 72.9043C2233.31 72.9043 2231.44 73.0929 2229.71 73.4336V73.5137C2220.67 75.3436 2215.23 81.2613 2210.74 86.207C2205.88 91.598 2202.04 95.8515 2193.97 95.8516C2193.96 95.8516 2193.95 95.8506 2193.95 95.8506C2193.94 95.8506 2193.93 95.8516 2193.93 95.8516C2185.87 95.8516 2182.04 91.5978 2177.18 86.2236C2172.73 81.2615 2167.28 75.3601 2158.24 73.5303V73.4971C2156.42 73.1174 2154.45 72.9043 2152.31 72.9043C2150.29 72.9043 2148.43 73.0929 2146.69 73.4336V73.5137C2137.65 75.3436 2132.21 81.2613 2127.72 86.207C2122.86 91.598 2119.02 95.8515 2110.95 95.8516C2110.94 95.8516 2110.94 95.8506 2110.93 95.8506C2110.92 95.8506 2110.92 95.8516 2110.91 95.8516C2102.85 95.8516 2099.02 91.5978 2094.17 86.2236C2089.71 81.2615 2084.27 75.3601 2075.22 73.5303V73.4971C2073.4 73.1174 2071.44 72.9043 2069.29 72.9043C2067.28 72.9043 2065.41 73.0929 2063.68 73.4336V73.5137C2054.63 75.3436 2049.19 81.2613 2044.7 86.207C2039.85 91.598 2036 95.8515 2027.93 95.8516C2027.93 95.8516 2027.92 95.8506 2027.91 95.8506C2027.91 95.8506 2027.9 95.8516 2027.89 95.8516C2019.84 95.8516 2016.01 91.5978 2011.15 86.2236C2006.69 81.2615 2001.25 75.3601 1992.21 73.5303V73.4971C1990.39 73.1174 1988.42 72.9043 1986.28 72.9043C1984.26 72.9043 1982.39 73.0929 1980.66 73.4336V73.5137C1971.62 75.3436 1966.17 81.2613 1961.69 86.207C1956.83 91.598 1952.99 95.8515 1944.92 95.8516C1944.91 95.8516 1944.9 95.8506 1944.89 95.8506C1944.89 95.8506 1944.88 95.8516 1944.88 95.8516C1936.82 95.8516 1932.99 91.5978 1928.13 86.2236C1923.67 81.2615 1918.23 75.3601 1909.19 73.5303V73.4971C1907.37 73.1174 1905.4 72.9043 1903.26 72.9043C1901.24 72.9043 1899.37 73.0929 1897.64 73.4336V73.5137C1888.6 75.3436 1883.15 81.2613 1878.67 86.207C1873.81 91.598 1869.97 95.8515 1861.9 95.8516C1861.89 95.8516 1861.88 95.8506 1861.88 95.8506C1861.87 95.8506 1861.86 95.8516 1861.86 95.8516C1853.8 95.8516 1849.97 91.5978 1845.11 86.2236C1840.66 81.2615 1835.21 75.3601 1826.17 73.5303V73.4971C1824.35 73.1174 1822.38 72.9043 1820.24 72.9043C1818.22 72.9043 1816.36 73.0929 1814.62 73.4336V73.5137C1805.58 75.3436 1800.14 81.2613 1795.65 86.207C1790.79 91.598 1786.95 95.8515 1778.88 95.8516C1778.87 95.8516 1778.87 95.8506 1778.86 95.8506C1778.85 95.8506 1778.85 95.8516 1778.84 95.8516C1770.78 95.8516 1766.95 91.5978 1762.1 86.2236C1757.64 81.2615 1752.2 75.3601 1743.15 73.5303V73.4971C1741.33 73.1174 1739.36 72.9043 1737.22 72.9043C1735.21 72.9043 1733.34 73.0929 1731.61 73.4336V73.5137C1722.56 75.3436 1717.12 81.2613 1712.63 86.207C1707.78 91.598 1703.93 95.8515 1695.86 95.8516C1695.86 95.8516 1695.85 95.8506 1695.84 95.8506C1695.84 95.8506 1695.83 95.8516 1695.82 95.8516C1687.77 95.8516 1683.94 91.5978 1679.08 86.2236C1674.62 81.2615 1669.18 75.3601 1660.14 73.5303V73.4971C1658.32 73.1174 1656.35 72.9043 1654.21 72.9043C1652.19 72.9043 1650.32 73.0929 1648.59 73.4336V73.5137C1639.55 75.3436 1634.1 81.2613 1629.62 86.207C1624.76 91.598 1620.92 95.8515 1612.84 95.8516C1612.84 95.8516 1612.83 95.8506 1612.82 95.8506C1612.82 95.8506 1612.81 95.8516 1612.81 95.8516C1604.75 95.8516 1600.92 91.5978 1596.06 86.2236C1591.6 81.2615 1586.16 75.3601 1577.12 73.5303V73.4971C1575.3 73.1174 1573.33 72.9043 1571.19 72.9043C1569.17 72.9043 1567.3 73.0929 1565.57 73.4336V73.5137C1556.53 75.3436 1551.08 81.2613 1546.6 86.207C1541.74 91.598 1537.9 95.8515 1529.83 95.8516C1529.82 95.8516 1529.81 95.8506 1529.81 95.8506C1529.8 95.8506 1529.79 95.8516 1529.79 95.8516C1521.73 95.8516 1517.9 91.5978 1513.04 86.2236C1508.59 81.2615 1503.14 75.3601 1494.1 73.5303V73.4971C1492.28 73.1174 1490.31 72.9043 1488.17 72.9043C1486.15 72.9043 1484.29 73.0929 1482.55 73.4336V73.5137C1473.51 75.3436 1468.07 81.2613 1463.58 86.207C1458.72 91.598 1454.88 95.8515 1446.81 95.8516C1446.8 95.8516 1446.8 95.8506 1446.79 95.8506C1446.78 95.8506 1446.78 95.8516 1446.77 95.8516C1438.71 95.8516 1434.88 91.5978 1430.03 86.2236C1425.57 81.2615 1420.13 75.3601 1411.08 73.5303V73.4971C1409.26 73.1174 1407.29 72.9043 1405.15 72.9043C1403.14 72.9043 1401.27 73.0929 1399.54 73.4336V73.5137C1390.49 75.3436 1385.05 81.2613 1380.56 86.207C1375.71 91.598 1371.86 95.8515 1363.79 95.8516C1363.79 95.8516 1363.78 95.8506 1363.77 95.8506C1363.77 95.8506 1363.76 95.8516 1363.75 95.8516C1355.7 95.8516 1351.87 91.5978 1347.01 86.2236C1342.55 81.2615 1337.11 75.3601 1328.07 73.5303V73.4971C1326.25 73.1174 1324.28 72.9043 1322.14 72.9043C1320.12 72.9043 1318.25 73.0929 1316.52 73.4336V73.5137C1307.48 75.3436 1302.03 81.2613 1297.55 86.207C1292.69 91.598 1288.85 95.8515 1280.77 95.8516C1280.77 95.8516 1280.76 95.8506 1280.75 95.8506C1280.75 95.8506 1280.74 95.8516 1280.74 95.8516C1272.68 95.8516 1268.85 91.5978 1263.99 86.2236C1259.53 81.2615 1254.09 75.3601 1245.05 73.5303V73.4971C1243.23 73.1174 1241.26 72.9043 1239.12 72.9043C1237.1 72.9043 1235.23 73.0929 1233.5 73.4336V73.5137C1224.46 75.3436 1219.01 81.2613 1214.53 86.207C1209.67 91.598 1205.83 95.8515 1197.76 95.8516C1197.75 95.8516 1197.74 95.8506 1197.74 95.8506C1197.73 95.8506 1197.72 95.8516 1197.72 95.8516C1189.66 95.8516 1185.83 91.5978 1180.97 86.2236C1176.52 81.2615 1171.07 75.3601 1162.03 73.5303V73.4971C1160.21 73.1174 1158.24 72.9043 1156.1 72.9043C1154.08 72.9043 1152.22 73.0929 1150.48 73.4336V73.5137C1141.44 75.3436 1136 81.2613 1131.51 86.207C1126.65 91.598 1122.81 95.8515 1114.74 95.8516C1114.73 95.8516 1114.73 95.8506 1114.72 95.8506C1114.71 95.8506 1114.71 95.8516 1114.7 95.8516C1106.64 95.8516 1102.81 91.5978 1097.96 86.2236C1093.5 81.2615 1088.06 75.3601 1079.01 73.5303V73.4971C1077.19 73.1174 1075.22 72.9043 1073.08 72.9043C1071.06 72.9043 1069.2 73.0929 1067.47 73.4336V73.5137C1058.42 75.3436 1052.98 81.2613 1048.49 86.207C1043.64 91.598 1039.79 95.8515 1031.72 95.8516C1031.71 95.8516 1031.71 95.8506 1031.7 95.8506C1031.69 95.8506 1031.69 95.8516 1031.68 95.8516C1023.63 95.8516 1019.8 91.5978 1014.94 86.2236C1010.48 81.2615 1005.04 75.3601 995.995 73.5303V73.4971C994.175 73.1174 992.207 72.9043 990.066 72.9043C988.047 72.9043 986.181 73.0929 984.448 73.4336V73.5137C975.405 75.3436 969.962 81.2613 965.476 86.207C960.618 91.598 956.776 95.8515 948.704 95.8516C948.697 95.8516 948.69 95.8506 948.684 95.8506C948.677 95.8506 948.671 95.8516 948.665 95.8516C940.608 95.8516 936.778 91.5978 931.921 86.2236C927.463 81.2615 922.021 75.3601 912.978 73.5303V73.4971C911.158 73.1174 909.189 72.9043 907.049 72.9043C905.03 72.9043 903.163 73.0929 901.431 73.4336V73.5137C892.387 75.3436 886.944 81.2613 882.458 86.207C877.601 91.598 873.758 95.8515 865.687 95.8516C865.68 95.8516 865.673 95.8506 865.666 95.8506C865.66 95.8506 865.654 95.8516 865.647 95.8516C857.59 95.8516 853.761 91.5978 848.903 86.2236C844.446 81.2615 839.003 75.3601 829.96 73.5303V73.4971C828.14 73.1174 826.172 72.9043 824.031 72.9043C822.012 72.9043 820.146 73.0929 818.413 73.4336V73.5137C809.37 75.3436 803.926 81.2613 799.44 86.207C794.583 91.598 790.74 95.8515 782.669 95.8516C782.662 95.8516 782.655 95.8506 782.648 95.8506C782.642 95.8506 782.636 95.8516 782.63 95.8516C774.572 95.8516 770.743 91.5978 765.886 86.2236C761.428 81.2615 755.986 75.3601 746.942 73.5303V73.4971C745.122 73.1174 743.154 72.9043 741.014 72.9043C738.995 72.9043 737.128 73.0929 735.396 73.4336V73.5137C726.352 75.3436 720.909 81.2613 716.423 86.207C711.566 91.598 707.723 95.8515 699.651 95.8516C699.645 95.8516 699.638 95.8506 699.631 95.8506C699.625 95.8506 699.618 95.8516 699.612 95.8516C691.555 95.8516 687.725 91.5978 682.868 86.2236C678.411 81.2615 672.968 75.3601 663.925 73.5303V73.4971C662.105 73.1174 660.136 72.9043 657.996 72.9043C655.977 72.9043 654.111 73.0929 652.378 73.4336V73.5137C643.335 75.3436 637.891 81.2613 633.405 86.207C628.548 91.598 624.705 95.8515 616.634 95.8516C616.627 95.8516 616.62 95.8506 616.613 95.8506C616.607 95.8506 616.601 95.8516 616.595 95.8516C608.537 95.8516 604.708 91.5978 599.851 86.2236C595.393 81.2615 589.95 75.3601 580.907 73.5303V73.4971C579.087 73.1174 577.119 72.9043 574.979 72.9043C572.959 72.9043 571.093 73.0929 569.36 73.4336V73.5137C560.317 75.3436 554.874 81.2613 550.388 86.207C545.531 91.598 541.688 95.8515 533.616 95.8516C533.609 95.8516 533.602 95.8506 533.596 95.8506C533.59 95.8506 533.583 95.8516 533.577 95.8516C525.52 95.8516 521.69 91.5978 516.833 86.2236C512.376 81.2615 506.933 75.3601 497.89 73.5303V73.4971C496.07 73.1174 494.101 72.9043 491.961 72.9043C489.942 72.9043 488.076 73.0929 486.343 73.4336V73.5137C477.299 75.3436 471.856 81.2613 467.37 86.207C462.513 91.598 458.67 95.8515 450.599 95.8516C450.592 95.8516 450.585 95.8506 450.578 95.8506C450.572 95.8506 450.566 95.8516 450.56 95.8516C442.502 95.8516 438.673 91.5978 433.815 86.2236C429.358 81.2615 423.915 75.3601 414.872 73.5303V73.4971C413.052 73.1174 411.084 72.9043 408.943 72.9043C406.924 72.9043 405.058 73.0929 403.325 73.4336V73.5137C394.282 75.3436 388.839 81.2613 384.353 86.207C379.495 91.598 375.653 95.8515 367.581 95.8516C367.574 95.8516 367.567 95.8506 367.561 95.8506C367.554 95.8506 367.548 95.8516 367.542 95.8516C359.485 95.8516 355.655 91.5978 350.798 86.2236C346.34 81.2615 340.898 75.3601 331.854 73.5303V73.4971C330.035 73.1174 328.066 72.9043 325.926 72.9043C323.907 72.9043 322.04 73.0929 320.308 73.4336V73.5137C311.264 75.3436 305.821 81.2613 301.335 86.207C296.478 91.598 292.635 95.8515 284.563 95.8516C284.557 95.8516 284.55 95.8506 284.543 95.8506C284.537 95.8506 284.531 95.8516 284.524 95.8516C276.467 95.8516 272.638 91.5978 267.78 86.2236C263.323 81.2615 257.88 75.3601 248.837 73.5303V73.4971C247.017 73.1174 245.049 72.9043 242.908 72.9043C240.889 72.9043 239.023 73.0929 237.29 73.4336V73.5137C228.247 75.3436 222.803 81.2613 218.317 86.207C213.46 91.598 209.617 95.8515 201.546 95.8516C201.539 95.8516 201.532 95.8506 201.525 95.8506C201.519 95.8506 201.513 95.8516 201.507 95.8516C193.449 95.8516 189.62 91.5978 184.763 86.2236C180.305 81.2615 174.862 75.3601 165.819 73.5303V73.4971C163.999 73.1174 162.031 72.9043 159.891 72.9043C157.872 72.9043 156.005 73.0929 154.272 73.4336V73.5137C145.229 75.3436 139.786 81.2613 135.3 86.207C130.443 91.598 126.6 95.8515 118.528 95.8516C118.522 95.8516 118.515 95.8506 118.508 95.8506C118.502 95.8506 118.495 95.8516 118.489 95.8516C110.432 95.8516 106.602 91.5978 101.745 86.2236C97.2877 81.2615 91.8449 75.3601 82.8018 73.5303V73.4551C82.7852 73.4518 82.7686 73.4485 82.752 73.4453V73.4219C81.036 73.0892 79.1894 72.9043 77.1934 72.9043C75.1743 72.9043 73.308 73.0929 71.5752 73.4336V73.5137C62.5319 75.3436 57.0886 81.2613 52.6025 86.207C47.7454 91.598 43.9025 95.8515 35.8311 95.8516C35.8243 95.8516 35.8173 95.8506 35.8105 95.8506C35.8044 95.8506 35.7982 95.8516 35.792 95.8516C27.7346 95.8516 23.9051 91.5978 19.0479 86.2236C14.5904 81.2615 9.14761 75.3601 0.104492 73.5303V73.4551C0.0879142 73.4518 0.0713075 73.4485 0.0546875 73.4453V1.70605C2.58553 2.55136 4.64271 3.97114 6.58789 5.74902C6.60692 5.76632 6.6265 5.78342 6.64551 5.80078C6.81596 5.95737 6.98625 6.11638 7.15527 6.27832C8.47829 7.53888 9.76745 8.95857 11.1338 10.4717C12.6013 12.1016 14.1688 13.8401 15.9316 15.5059C20.5184 19.8266 26.4256 23.6578 35.3496 23.7871C35.4962 23.7891 35.6438 23.791 35.792 23.791C35.8005 23.791 35.8089 23.79 35.8174 23.79L35.8311 23.7744C39.172 23.7744 42.0957 23.2592 44.6885 22.3926C51.8803 19.969 56.5162 14.8297 60.4502 10.4717C65.2146 5.20023 68.9896 1.00995 76.7363 0.851562H77.6504Z" fill="url(#paint0_linear_1133_46054)"/>
<defs>
<linearGradient id="paint0_linear_1133_46054" x1="0.0546875" y1="48.3516" x2="2041.39" y2="48.3516" gradientUnits="userSpaceOnUse">
<stop stop-color="#EEF7FE"/>
<stop offset="0.971154" stop-color="#D9EEFF"/>
</linearGradient>
</defs>
</svg>
